<svg height="464pt" viewBox="0 0 464 464" width="464pt" xmlns="http://www.w3.org/2000/svg"><path d="m420.960938 266.078125 39.277343 10.480469c-4.566406 17.082031-22.121093 27.21875-39.199219 22.640625l-8.320312-2.238281c-2.078125 5.757812-4.398438 11.359374-7.039062 16.878906l35.199218 20.320312c-4.234375 7.347656-11.222656 12.710938-19.417968 14.902344-8.191407 2.1875-16.921876 1.03125-24.261719-3.222656l-7.519531-4.320313c-3.519532 4.960938-7.199219 9.761719-11.121094 14.402344l28.800781 28.796875c-12.511719 12.480469-32.765625 12.480469-45.28125 0l-6.15625-6.160156c-4.5625 3.921875-9.441406 7.601562-14.402344 11.121094l20.320313 35.199218c-7.339844 4.253906-16.066406 5.414063-24.261719 3.222656-8.195313-2.191406-15.179687-7.554687-19.417969-14.902343l-4.320312-7.519531c-5.519532 2.640624-11.121094 4.960937-16.878906 7.039062l10.558593 39.203125c-8.191406 2.222656-16.929687 1.09375-24.285156-3.136719-7.355469-4.234375-12.722656-11.226562-14.914063-19.425781l-2.242187-8.398437c-5.917969 1.039062-12 1.839843-18.078125 2.320312v40.71875c-17.671875 0-32-14.328125-32-32v-8.71875c-6.078125-.480469-12.160156-1.28125-18.078125-2.320312l-10.480469 39.277343c-17.082031-4.566406-27.21875-22.121093-22.640625-39.199219l2.238281-8.320312c-5.757812-2.078125-11.359374-4.398438-16.878906-7.039062l-20.320312 35.199218c-7.347656-4.234375-12.710938-11.222656-14.902344-19.417968-2.1875-8.191407-1.03125-16.921876 3.222656-24.261719l4.320313-7.519531c-4.960938-3.519532-9.761719-7.199219-14.402344-11.121094l-28.796875 28.800781c-12.480469-12.511719-12.480469-32.765625 0-45.28125l6.160156-6.15625c-3.921875-4.640625-7.601562-9.441406-11.121094-14.402344l-35.199218 20.320313c-4.253906-7.339844-5.414063-16.066406-3.222656-24.261719 2.191406-8.195313 7.554687-15.179687 14.902343-19.417969l7.519531-4.320312c-2.640624-5.519532-4.960937-11.121094-7.039062-16.878906l-39.203125 10.558593c-2.222656-8.191406-1.09375-16.929687 3.136719-24.285156 4.234375-7.355469 11.226562-12.722656 19.425781-14.914063l8.398437-2.242187c-1.039062-5.917969-1.839843-12-2.320312-18.078125h-40.71875c0-17.671875 14.328125-32 32-32h8.71875c.480469-6.078125 1.28125-12.160156 2.320312-18.078125l-39.277343-10.480469c4.566406-17.082031 22.121093-27.21875 39.199219-22.640625l8.320312 2.238281c2.078125-5.757812 4.398438-11.359374 7.039062-16.878906l-35.199218-20.320312c4.234375-7.347656 11.222656-12.710938 19.417968-14.902344 8.191407-2.1875 16.921876-1.03125 24.261719 3.222656l7.519531 4.320313c3.519532-4.960938 7.199219-9.839844 11.121094-14.402344l-28.800781-28.796875c12.511719-12.480469 32.765625-12.480469 45.28125 0l6.15625 6.160156c4.640625-3.921875 9.441406-7.601562 14.402344-11.121094l-20.320313-35.199218c7.339844-4.253906 16.066406-5.414063 24.261719-3.222656 8.195313 2.191406 15.179687 7.554687 19.417969 14.902343l4.320312 7.519531c5.519532-2.640624 11.121094-4.960937 16.878906-7.039062l-10.558593-39.203125c8.191406-2.222656 16.929687-1.09375 24.285156 3.136719 7.355469 4.234375 12.722656 11.226562 14.914063 19.425781l2.242187 8.398437c5.917969-1.039062 12-1.839843 18.078125-2.320312v-40.71875c17.671875 0 32 14.328125 32 32v8.71875c6.078125.480469 12.160156 1.28125 18.078125 2.320312l10.480469-39.277343c17.082031 4.566406 27.21875 22.121093 22.640625 39.199219l-2.238281 8.320312c5.757812 2.078125 11.359374 4.398438 16.878906 7.039062l20.320312-35.199218c7.347656 4.234375 12.710938 11.222656 14.902344 19.417968 2.1875 8.191407 1.03125 16.921876-3.222656 24.261719l-4.320313 7.519531c4.960938 3.519532 9.761719 7.199219 14.402344 11.121094l28.796875-28.800781c12.480469 12.511719 12.480469 32.765625 0 45.28125l-6.160156 6.15625c3.921875 4.5625 7.601562 9.441406 11.121094 14.402344l35.199218-20.320313c4.253906 7.339844 5.414063 16.066406 3.222656 24.261719-2.191406 8.195313-7.554687 15.179687-14.902343 19.417969l-7.519531 4.320312c2.640624 5.519532 4.960937 11.121094 7.039062 16.878906l39.203125-10.558593c2.222656 8.191406 1.09375 16.929687-3.136719 24.285156-4.234375 7.355469-11.226562 12.722656-19.425781 14.914063l-8.398437 2.242187c1.039062 5.917969 1.839843 12 2.320312 18.078125h40.71875c0 17.671875-14.328125 32-32 32h-8.71875c-.480469 6.078125-1.28125 12.160156-2.320312 18.078125zm0 0" fill="#898890"/><path d="m336 232c0 57.4375-46.5625 104-104 104s-104-46.5625-104-104 46.5625-104 104-104 104 46.5625 104 104zm0 0" fill="#d8d7da"/><path d="m256 232c0 13.253906-10.746094 24-24 24s-24-10.746094-24-24 10.746094-24 24-24 24 10.746094 24 24zm0 0" fill="#787680"/></svg>