<?xml version="1.0" encoding="utf-8"?>
<!-- Generator: Adobe Illustrator 16.0.0, SVG Export Plug-In . SVG Version: 6.00 Build 0)  -->
<!DOCTYPE svg PUBLIC "-//W3C//DTD SVG 1.1//EN" "http://www.w3.org/Graphics/SVG/1.1/DTD/svg11.dtd">
<svg version="1.1" id="Слой_1" xmlns="http://www.w3.org/2000/svg" xmlns:xlink="http://www.w3.org/1999/xlink" x="0px" y="0px"
	 width="240px" height="90px" viewBox="0 0 240 90" enable-background="new 0 0 240 90" xml:space="preserve">
<g>
	<path d="M159.635,83.476c0,1.049-0.118,1.938-0.352,2.668c-0.139,0.378-0.28,0.762-0.414,1.143
		c-0.23,0.607-0.339,0.955-0.339,1.034c0,0.186,0.085,0.339,0.258,0.459c0.172,0.115,0.26,0.256,0.26,0.402
		c0,0.281-0.162,0.423-0.484,0.423c-0.106,0-0.255-0.042-0.441-0.117c-0.191-0.076-0.344-0.109-0.456-0.109
		c-0.117,0-0.272,0.033-0.46,0.109c-0.194,0.075-0.335,0.117-0.435,0.117c-0.11,0-0.23-0.044-0.352-0.128
		c-0.126-0.086-0.185-0.183-0.185-0.296c0-0.143,0.114-0.296,0.346-0.453c0.29-0.207,0.489-0.429,0.609-0.658
		c0.748-1.484,1.12-3.171,1.12-5.055c0-1.749-0.445-2.94-1.337-3.569c-0.385-0.274-0.755-0.412-1.102-0.412
		c-0.324,0-0.815,0.087-1.477,0.265v9.273c0,0.044,0.081,0.113,0.239,0.21c0.159,0.092,0.238,0.229,0.238,0.396
		c0,0.28-0.14,0.424-0.421,0.424c-0.073,0-0.179-0.041-0.329-0.118c-0.147-0.075-0.292-0.11-0.437-0.11
		c-0.138,0-0.282,0.035-0.431,0.11c-0.146,0.077-0.255,0.118-0.329,0.118c-0.103,0-0.209-0.045-0.303-0.137
		c-0.099-0.084-0.149-0.186-0.149-0.289c0-0.182,0.09-0.319,0.268-0.415c0.176-0.089,0.263-0.159,0.263-0.197l0.011-0.021v-9.371
		c-0.036-0.049-0.188-0.177-0.459-0.379c-0.196-0.152-0.3-0.305-0.3-0.46c0-0.371,0.163-0.557,0.487-0.557
		c0.075,0,0.217,0.077,0.418,0.24c0.197,0.159,0.361,0.238,0.477,0.238h0.044c0-0.026,0.123-0.035,0.367-0.028
		c0.629-0.329,1.204-0.496,1.726-0.496C158.346,77.736,159.635,79.65,159.635,83.476 M152.17,89.182c0,0.114-0.06,0.209-0.183,0.297
		c-0.125,0.084-0.247,0.129-0.364,0.129c-0.112,0-0.272-0.042-0.482-0.117c-0.211-0.077-0.374-0.112-0.485-0.112
		c-0.104,0-0.246,0.035-0.424,0.112c-0.171,0.075-0.309,0.117-0.411,0.117c-0.32,0-0.48-0.144-0.48-0.424
		c0-0.177,0.091-0.312,0.279-0.399c0.188-0.094,0.282-0.161,0.282-0.203v-9.548c0-0.037-0.094-0.103-0.282-0.194
		c-0.188-0.098-0.279-0.23-0.279-0.409c0-0.287,0.16-0.431,0.48-0.431c0.117,0,0.275,0.034,0.488,0.113
		c0.209,0.07,0.374,0.109,0.494,0.109c0.097,0,0.232-0.039,0.409-0.109c0.178-0.079,0.313-0.113,0.411-0.113
		c0.12,0,0.243,0.043,0.365,0.133c0.122,0.087,0.186,0.187,0.186,0.298c0,0.193-0.106,0.33-0.315,0.419
		c-0.208,0.087-0.312,0.161-0.312,0.218v9.471c0,0.072,0.104,0.149,0.312,0.236C152.067,88.854,152.17,88.991,152.17,89.182
		 M151.629,76.502c0,0.253-0.09,0.473-0.272,0.657c-0.185,0.184-0.406,0.271-0.657,0.271c-0.252,0-0.473-0.088-0.656-0.271
		c-0.183-0.185-0.274-0.404-0.274-0.657c0-0.251,0.092-0.473,0.274-0.658c0.184-0.183,0.404-0.273,0.656-0.273
		C151.319,75.57,151.629,75.879,151.629,76.502 M146.572,87.828l-0.243-5.631c-0.563,0.233-1.188,0.592-1.882,1.078
		c-1.091,0.751-1.638,1.734-1.638,2.943c0,1.392,0.711,2.086,2.131,2.086C145.44,88.304,145.983,88.146,146.572,87.828
		 M148.62,89.089c0,0.401-0.208,0.603-0.622,0.603c-0.144-0.09-0.284-0.181-0.425-0.261c-0.168-0.1-0.325-0.151-0.475-0.151
		c-0.206,0-0.545,0.063-1.021,0.185c-0.475,0.123-0.878,0.186-1.205,0.186c-0.806,0-1.52-0.217-2.146-0.645
		c-0.693-0.474-1.08-1.095-1.162-1.863c-0.051-0.383-0.077-0.783-0.077-1.203c0-0.687,0.109-1.227,0.329-1.612
		c0.409-0.748,1.055-1.452,1.935-2.118c0.141-0.106,0.949-0.632,2.433-1.578v-0.062c0.008-0.389-0.12-0.7-0.375-0.938
		c-0.255-0.235-0.583-0.354-0.967-0.354c-0.546,0-0.965,0.161-1.254,0.484c-0.294,0.322-0.527,0.479-0.704,0.479
		c-0.529,0-0.794-0.218-0.794-0.658c0-0.53,0.307-0.936,0.921-1.213c0.466-0.204,0.993-0.305,1.592-0.305
		c1.938,0,2.932,0.671,2.981,2.011l0.306,7.884c0.009,0.214,0.131,0.402,0.369,0.573C148.496,88.697,148.62,88.883,148.62,89.089
		 M140.71,89.108c0,0.287-0.184,0.43-0.548,0.43c-0.112,0-0.273-0.035-0.482-0.105c-0.213-0.072-0.376-0.109-0.488-0.109
		c-0.104,0-0.244,0.037-0.421,0.109c-0.172,0.07-0.308,0.105-0.408,0.105c-0.321,0-0.485-0.143-0.485-0.43
		c0-0.179,0.085-0.304,0.249-0.381c0.195-0.095,0.307-0.166,0.337-0.224V75.105c-0.028-0.05-0.14-0.119-0.337-0.212
		c-0.164-0.083-0.249-0.212-0.249-0.393c0-0.204,0.266-0.386,0.8-0.559c0.441-0.124,0.805-0.19,1.084-0.19
		c0.229,0,0.346,0.033,0.346,0.094v14.648c0,0.048,0.099,0.115,0.304,0.205C140.608,88.792,140.71,88.923,140.71,89.108
		 M137.346,79.427c0,0.449-0.047,0.732-0.138,0.86c-0.112,0.16-0.37,0.242-0.771,0.242c-0.182,0-0.334-0.079-0.451-0.233
		c-0.12-0.154-0.178-0.324-0.178-0.504c0-0.088,0.043-0.168,0.13-0.248c0.087-0.075,0.131-0.137,0.131-0.181
		c0-0.191-0.151-0.283-0.455-0.283c-0.25,0-0.64,0.165-1.171,0.492c-0.48,0.311-0.814,0.579-1.014,0.807v8.138
		c0,0.062,0.09,0.14,0.269,0.232c0.182,0.089,0.271,0.226,0.271,0.411c0,0.282-0.153,0.421-0.455,0.421
		c-0.08,0-0.189-0.04-0.338-0.119c-0.147-0.079-0.292-0.117-0.434-0.117c-0.139,0-0.285,0.038-0.429,0.117
		c-0.143,0.079-0.25,0.119-0.324,0.119c-0.281,0-0.423-0.139-0.423-0.421c0-0.169,0.085-0.304,0.252-0.399
		c0.165-0.102,0.25-0.168,0.25-0.202V79c0-0.03-0.085-0.095-0.25-0.195c-0.167-0.104-0.252-0.237-0.252-0.408
		c0-0.297,0.142-0.443,0.423-0.443c0.446,0,0.737,0.064,0.87,0.197c0.033,0.036,0.117,0.166,0.252,0.387
		c0.114,0.197,0.185,0.297,0.213,0.297c0.014,0,0.272-0.147,0.781-0.441c0.509-0.293,0.93-0.439,1.269-0.439
		c0.672,0,1.139,0.078,1.407,0.224C137.158,78.387,137.346,78.805,137.346,79.427 M129.562,81.807
		c-0.227-1.758-0.833-2.639-1.817-2.639c-0.993,0-1.599,0.881-1.816,2.639H129.562z M130.926,82.799V83h-5.084v0.254
		c0,3.308,0.717,4.967,2.151,4.967c0.836,0,1.396-0.288,1.676-0.862l0.074-0.012c0.065-0.167,0.13-0.33,0.201-0.492
		c0.096-0.188,0.235-0.282,0.411-0.282c0.307,0,0.464,0.154,0.464,0.465v2.155c0,0.306-0.155,0.456-0.467,0.456
		c-0.165,0-0.317-0.069-0.443-0.21c-0.129-0.14-0.228-0.208-0.307-0.208c-0.047,0-0.139,0.019-0.274,0.063
		c-0.399,0.138-0.87,0.205-1.413,0.205c-1.366,0-2.275-0.589-2.728-1.768c-0.429-1.124-0.643-2.535-0.643-4.234
		c0-3.752,1.092-5.63,3.273-5.63c1.14,0,1.979,0.571,2.512,1.707C130.742,80.438,130.936,81.514,130.926,82.799 M122.273,84.011
		c0-1.095-0.141-2.039-0.422-2.838c-0.419-1.151-1.068-1.726-1.947-1.726c-0.605,0-1.086,0.329-1.438,0.985v7.548
		c0.279,0.274,0.713,0.411,1.288,0.411c0.925,0,1.604-0.533,2.042-1.599C122.116,86.023,122.273,85.098,122.273,84.011
		 M123.613,84.043c0,1.996-0.422,3.499-1.265,4.511c-0.681,0.803-1.472,1.202-2.381,1.202c-0.673,0-1.236-0.166-1.688-0.499
		c-0.536,0.054-0.803,0.142-0.803,0.267c0,0.129-0.202,0.192-0.613,0.192c-0.274,0-0.411-0.146-0.411-0.437
		c0-0.226,0.104-0.431,0.313-0.623c0.209-0.191,0.314-0.309,0.314-0.353V74.83c0-0.026-0.082-0.09-0.248-0.19
		c-0.166-0.097-0.249-0.233-0.249-0.411c0-0.291,0.14-0.433,0.42-0.433c0.073,0,0.184,0.033,0.334,0.111
		c0.151,0.074,0.292,0.116,0.429,0.116c0.134,0,0.274-0.042,0.423-0.116c0.148-0.078,0.26-0.111,0.34-0.111
		c0.303,0,0.454,0.142,0.454,0.433c0,0.153-0.062,0.277-0.188,0.366c-0.188,0.135-0.297,0.228-0.331,0.274v3.878
		c0.569-0.444,1.108-0.664,1.624-0.664c0.956,0,1.76,0.454,2.417,1.363C123.245,80.473,123.613,82.004,123.613,84.043
		 M115.667,83.476c0,1.041-0.119,1.938-0.359,2.687c-0.134,0.37-0.276,0.743-0.417,1.118c-0.218,0.601-0.327,0.94-0.327,1.024
		c0,0.199,0.086,0.357,0.258,0.479c0.173,0.117,0.261,0.252,0.261,0.399c0,0.28-0.164,0.424-0.488,0.424
		c-0.105,0-0.251-0.042-0.443-0.117c-0.19-0.077-0.342-0.112-0.454-0.112c-0.121,0-0.275,0.035-0.466,0.112
		c-0.19,0.075-0.334,0.117-0.433,0.117c-0.122,0-0.239-0.042-0.351-0.117c-0.133-0.095-0.199-0.194-0.199-0.307
		c0-0.132,0.116-0.291,0.356-0.464c0.285-0.21,0.485-0.428,0.598-0.646c0.337-0.647,0.606-1.472,0.817-2.464
		c0.202-0.935,0.304-1.794,0.304-2.577c0-1.746-0.443-2.933-1.326-3.563c-0.394-0.272-0.761-0.41-1.104-0.41
		c-0.333,0-0.825,0.087-1.486,0.263v9.258c0,0.044,0.084,0.11,0.251,0.202c0.164,0.088,0.248,0.224,0.248,0.4
		c0,0.281-0.137,0.423-0.411,0.423c-0.08,0-0.191-0.042-0.338-0.117c-0.147-0.076-0.289-0.109-0.426-0.109
		c-0.133,0-0.274,0.033-0.426,0.109c-0.153,0.075-0.265,0.117-0.346,0.117c-0.103,0-0.209-0.044-0.305-0.136
		c-0.097-0.086-0.148-0.184-0.148-0.288c0-0.184,0.091-0.32,0.27-0.407c0.182-0.085,0.273-0.166,0.273-0.239v-8.426
		c0-0.818-0.395-1.226-1.184-1.226c-0.262,0-0.618,0.067-1.071,0.205c-0.451,0.139-0.787,0.277-1.013,0.417v8.962
		c0,0.052,0.085,0.119,0.259,0.215c0.174,0.09,0.258,0.227,0.258,0.412c0,0.281-0.151,0.42-0.454,0.42
		c-0.079,0-0.19-0.035-0.347-0.108c-0.15-0.07-0.288-0.107-0.415-0.107c-0.143,0-0.288,0.037-0.436,0.107
		c-0.146,0.073-0.254,0.108-0.327,0.108c-0.281,0-0.421-0.139-0.421-0.42c0-0.171,0.083-0.307,0.248-0.409
		c0.167-0.101,0.25-0.166,0.25-0.194v-9.569c0-0.034-0.09-0.134-0.271-0.297c-0.181-0.162-0.271-0.321-0.271-0.477
		c0-0.288,0.138-0.433,0.411-0.433c0.081,0,0.28,0.093,0.61,0.275c0.327,0.181,0.612,0.282,0.86,0.304
		c0.341-0.284,1.174-0.428,2.491-0.428c0.352,0,0.689,0.061,1.006,0.176c0.313,0.11,0.598,0.178,0.843,0.192
		c0.625-0.315,1.201-0.474,1.723-0.474C114.381,77.759,115.667,79.665,115.667,83.476 M101.049,87.828l-0.242-5.631
		c-0.562,0.233-1.189,0.592-1.882,1.078c-1.093,0.751-1.639,1.734-1.639,2.943c0,1.392,0.71,2.086,2.133,2.086
		C99.916,88.304,100.461,88.146,101.049,87.828 M103.096,89.089c0,0.401-0.208,0.603-0.625,0.603
		c-0.141-0.09-0.28-0.181-0.421-0.261c-0.168-0.1-0.328-0.151-0.474-0.151c-0.207,0-0.545,0.063-1.021,0.185
		c-0.476,0.123-0.881,0.186-1.208,0.186c-0.804,0-1.518-0.217-2.146-0.645c-0.692-0.474-1.077-1.095-1.16-1.863
		c-0.051-0.383-0.077-0.783-0.077-1.203c0-0.687,0.109-1.227,0.329-1.612c0.406-0.748,1.052-1.452,1.936-2.118
		c0.141-0.106,0.948-0.632,2.429-1.578v-0.062c0.008-0.389-0.118-0.7-0.375-0.938c-0.255-0.235-0.581-0.354-0.966-0.354
		c-0.545,0-0.962,0.161-1.254,0.484c-0.292,0.322-0.526,0.479-0.704,0.479c-0.529,0-0.793-0.218-0.793-0.658
		c0-0.53,0.306-0.936,0.918-1.213c0.466-0.204,0.995-0.305,1.594-0.305c1.938,0,2.932,0.671,2.98,2.011l0.307,7.884
		c0.008,0.214,0.131,0.402,0.369,0.573C102.974,88.697,103.096,88.883,103.096,89.089 M94.941,83.426
		c0,1.053-0.116,1.945-0.346,2.672c-0.14,0.37-0.278,0.75-0.412,1.13c-0.216,0.599-0.326,0.946-0.326,1.035
		c0,0.184,0.084,0.331,0.25,0.449c0.167,0.116,0.25,0.25,0.25,0.406c0,0.282-0.164,0.42-0.484,0.42
		c-0.107,0-0.255-0.035-0.444-0.105c-0.191-0.072-0.341-0.109-0.453-0.109c-0.111,0-0.264,0.037-0.45,0.109
		c-0.191,0.07-0.334,0.105-0.434,0.105c-0.364,0-0.547-0.138-0.547-0.42c0-0.141,0.119-0.296,0.357-0.467
		c0.285-0.208,0.485-0.42,0.598-0.641c0.748-1.463,1.122-3.075,1.122-4.843c0-1.659-0.442-2.804-1.333-3.427
		c-0.4-0.282-0.776-0.425-1.122-0.425c-0.331,0-0.825,0.093-1.482,0.274v8.924c0,0.039,0.083,0.101,0.249,0.199
		c0.166,0.096,0.25,0.228,0.25,0.404c0,0.282-0.141,0.42-0.422,0.42c-0.08,0-0.194-0.035-0.345-0.105
		c-0.153-0.072-0.29-0.109-0.419-0.109c-0.125,0-0.263,0.037-0.416,0.109c-0.154,0.07-0.266,0.105-0.345,0.105
		c-0.303,0-0.455-0.138-0.455-0.42c0-0.185,0.087-0.32,0.256-0.411c0.169-0.096,0.251-0.159,0.251-0.203l0.011-0.031l-0.046-13.694
		c0-0.038-0.078-0.101-0.236-0.197c-0.158-0.096-0.239-0.229-0.239-0.406c0-0.297,0.137-0.443,0.412-0.443
		c0.073,0,0.18,0.04,0.325,0.116c0.143,0.075,0.292,0.109,0.439,0.109c0.141,0,0.284-0.034,0.434-0.109
		c0.147-0.076,0.255-0.116,0.328-0.116c0.112,0,0.221,0.048,0.318,0.145c0.097,0.091,0.148,0.194,0.148,0.299
		c0,0.185-0.091,0.321-0.266,0.411c-0.178,0.092-0.264,0.159-0.264,0.203l-0.01,0.018v3.541c0.623-0.263,1.181-0.394,1.684-0.394
		c0.525,0,0.983,0.145,1.38,0.434c0.79,0.563,1.263,0.995,1.421,1.301C94.671,80.748,94.941,81.997,94.941,83.426 M86.934,87.779
		c0,0.198-0.14,0.395-0.421,0.591c-1.184,0.822-1.934,1.237-2.252,1.237c-0.324,0-0.829-0.284-1.521-0.846
		c-1.583-1.301-2.375-3.851-2.375-7.651c0-3.925,0.832-6.348,2.502-7.265c0.249-0.134,0.544-0.202,0.886-0.202
		c0.317,0,0.668,0.029,1.046,0.086c0.081,0.017,0.216,0.066,0.416,0.152c0.169,0.071,0.306,0.105,0.412,0.105
		c0.147,0,0.267-0.058,0.352-0.171c0.09-0.118,0.203-0.174,0.343-0.174c0.295,0,0.443,0.144,0.443,0.437v2.062
		c0,0.255-0.163,0.383-0.495,0.383c-0.246,0-0.429-0.184-0.548-0.542c-0.083-0.25-0.267-0.484-0.551-0.71
		c-0.286-0.228-0.555-0.339-0.814-0.339c-0.154,0-0.322,0.033-0.499,0.113c-1.305,0.586-1.957,2.616-1.957,6.099
		c0,3.918,0.79,6.181,2.369,6.804c0.228,0.093,0.442,0.137,0.652,0.137c0.213,0,0.506-0.12,0.876-0.365
		c0.371-0.242,0.635-0.364,0.79-0.364C86.819,87.355,86.934,87.497,86.934,87.779"/>
	<path d="M106.97,56.736c0.097-2.337-0.434-4.922-0.363-7.469c0.066-2.281,0.951-5.093-0.356-6.604
		c-0.249,0.351-1.118,6.53-1.095,7.399C105.204,51.865,106.192,55.69,106.97,56.736 M109.529,64.322
		c-1.653,0.129-0.745,0.469-0.328,1.449c0.345,0.813,0.183,1.829,0.193,2.744c-1.195-0.784-1.068-2.909-1.631-4.372l-0.756,0.019
		c-1.012,1.542,0.067,2.856,0.336,4.367c0.278,1.562,0.459,3.554,2.109,3.479c0.453-1.125,0.712-2.819,0.938-4.094
		C110.716,66.062,110.886,65.027,109.529,64.322 M137.246,41.192c-0.146-0.252-0.203-0.911-0.179-1.323
		c-0.439-0.579-0.377-1.992-0.47-2.795c-1.561,0.934-1.549,6.352-2.021,8.664c-0.504,2.478-2.537,5.51-1.999,8.392
		c1.098-0.705,1.058-1.288,1.498-2.916c0.306-1.124,0.879-2.051,1.411-2.936C136.842,46.029,137.594,44.383,137.246,41.192
		 M139.167,0.994c-0.2,0.292-0.06,0.16-0.407,0.195c-0.396,0.653-1.978,1.58-2.076,3.878c-0.146,3.458,1.863,6.122,5.056,6.843
		c1.77,0.398,3.245,0.194,4.597-0.694c4.671-3.074,1.783-9.917-2.268-10.817C141.822-0.1,141.051,0.383,139.167,0.994 M138.089,6.66
		c-0.606-5.006,5.382-7.712,7.899-4.663c2.886,3.493,1.481,8.722-2.703,9.299C140.52,11.677,138.416,9.365,138.089,6.66
		 M105.83,41.35c0.379,0.255,0.939,1.807,3.849,1.805c2.507,0,2.715-1.298,4.308-1.619c1.542,2.498-0.461,8.106-0.817,10.498
		c-0.686,4.635-0.792,3.884-1.94,7.448c-0.33,1.02-0.33,1.71-0.569,2.706c-2.047,0.766-3.264,1.618-2.932-1.992
		c0.499-5.437,4.844-15.355,0.46-15.375c-0.548,2.59,0.179,2.739,0.236,5.092c0.049,2.08-0.962,5.224-1.239,7.776
		c-0.086,0.801-0.004,2.132-0.234,2.77c-0.216,0.598-1.727,2.921,1.392,3.399c1.034,0.053,1.366-0.073,2.227-0.307l1.146-0.753
		c0.16-0.394,0.223-0.312,0.332-0.88c0.085-0.463-0.004-0.548,0.172-0.923c0.209-0.98,0.643-1.476,1.01-2.228
		c0.357-0.732,0.621-1.422,0.855-2.264c0.556-2.015,0.238-3.822,0.656-5.479c0.876-3.491,2.146-6.179,2.072-10.306l-0.092-0.386
		c-0.244-1.363-0.418-1.529-0.186-3.064c0.152-0.985,0.116-2.09-0.471-2.748c-0.449,0.462-0.738,2.025-1.545,2.965
		c-1.31,1.532-3.293,3.012-5.437,3.253c-1.67,0.188-2.084-0.719-3.429-0.778L105.83,41.35z M124.83,5.21
		c-0.612,0.578-2.129,0.246-3.132,0.272c-0.288,0.498-0.435,0.501-0.775,0.966c-0.625,0.856-0.891,2.165-2.454,2.293l-0.664-1.648
		c-0.604,0.319-1.171,1.398-1.526,2.158c-1.187-0.242-0.929-0.902-2.045-1.33l-0.375,1.446c-0.871-0.211-0.802-0.685-2.695-0.684
		c-2.059,0.002-1.906,0.546-2.462,0.781c-0.368,0.772-0.905,1.247-1.609,1.729c-1.588,1.095-0.997,1.03-1.615,1.52l-0.158,0.917
		c-0.016,1.323,0.517,1.686,0.491,2.368c-0.026,0.716-0.521,0.948-0.312,2.381c0.453,3.081,0.61-0.169,0.235,4.667
		c-0.872-0.106-2.942-1.969-4.478,2.694c-0.508,2.424-0.571,4.537-0.241,7.115c0.15,1.163,0.333,2.238,0.618,3.289
		c0.277,1.027,0.848,2.039,0.981,2.905c0.622,0.365,0.181,0.419,0.837,0.707c0.296-0.3,0.353-0.358,0.552-0.943
		c1.912,0.24,2.514,1.273,5.012,0.399c0.781-0.272,1.329-0.614,1.854-1.185c0.532-0.579,0.583-0.953,0.875-1.589l0.106-0.207
		c0.007-0.056,0.033-0.07,0.054-0.101c1.495,0.748,2.555,0.454,3.364-0.855c0.992-1.598,0.354-2.917-0.226-4.046
		c-0.862,0.139-0.925,0.582-1.328,1.083c-0.835-0.755-0.614-1.214-1.958-0.461l-0.594,0.809c-0.893-0.125-1.085-0.526-2.044-0.151
		c-0.811,0.317-0.86,0.517-1.831,0.628c0.067-1.172,0.39-3.941-1.718-4.082c-0.076,1.066,0.259,1.81,0.067,3.086
		c-0.13,0.858-0.537,1.845-0.138,2.747c0.806,1.811,3.314-0.746,4.177-0.814c0.627,0.805,0.825,1.554,0.704,2.845
		c-1.515,0.963-4.702,1.231-6.644,0.835c-0.257-0.477-0.275-0.754-0.352-1.391c-0.282-0.887-0.716-3.762-0.509-4.623
		c-0.023-0.039-0.04-0.09-0.051-0.123l-0.11-0.403c-0.02-0.123-0.027-0.337-0.032-0.465c-0.081-1.808-0.118-4.681,1.35-5.688
		c1.22,0.369,1.212,1.54,2.75,1.948c2.156,0.572,2.241-0.398,2.516-2.182c-0.905,0.094-0.614,0.416-1.708,0.371
		c-0.182-0.548-0.296-0.729-0.296-1.404l1.883,0.108c1.276-0.942,0.917-0.442,1.813-1.998c-0.075-0.332,0.051-0.225-0.197-0.344
		c-0.698,0.7-1.348,1.394-2.615,1.416c-0.567-1.097-0.712-1.055-0.801-2.689c-0.005-0.998-0.316-0.783-0.766-1.332
		c-0.415-0.506-0.451-1.175-0.029-1.668c0.507-0.498,0.74,0.03,1.603-0.642c0.254-0.197,0.074-0.149,0.2-0.161
		c0.114-0.906,0.235-1.176,1.049-1.371c0.903-0.218,0.799-0.225,1.279-0.915c1.185,0.304,0.615,0.577,2.215,0.298l0.099,1.512
		l-0.753,0.262c-0.235,0.06-0.366,0.075-0.579,0.15c-1.745,0.633-1.571,2.2-2.085,2.85l0.063,0.381
		c0.041,0.656-0.105,0.262,0.144,0.656c0.187-0.53,0.308-0.795,0.654-1.125l0.111-0.428l1.36,0.267l0.79-0.318
		c-0.255-0.632-0.637-0.387-1.299-0.776c0.11-0.333,0.066-0.403,0.504-0.636c1.388-0.738,1.223,1.586,1.072,2.154l-0.112,0.214
		c0.214,1.354-0.844,4.443-1.331,5.488c-1.018,2.185-0.771,3.103,0.528,4.693c0.841,0.875,0.759,0.685,2.24,0.499
		c0.349-0.044,0.888-0.077,1.182-0.178c0.593-0.206,0.352-0.263,0.778-0.59c0.213-4.222,1.357-4.468,3.227-6.073
		c0.64-0.551,0.962-1.045,1.589-1.484c0.572,0.291,2.3,2.307,2.586,2.801c0.809,1.4,0.897,2.978,0.637,4.793l-0.131,0.975
		c-0.076,0.97-0.129,1.782-0.065,2.771c0.042,0.629,0.321,2.285,0.23,2.743c-0.083,0.417-0.607,1.029-0.833,1.99
		c-0.578,2.421-0.719,3.446-3.077,5.583c-1.59,1.439-2.849,1.359-2.417,2.844c0.839,2.899-0.873,7.036-1.745,9.361
		c-1.485,3.973-1.218,5.55-0.048,9.678c0.857,0.021,1.103-0.092,1.667-0.676c1.696-1.756,2.085-3.332,1.359-6.051
		c-0.291-1.085-0.769-0.22-0.371-1.76c0.274-1.054-0.087-1.255-0.136-2.261c-0.067-1.359,0.393-3.472,1.228-3.926
		c0.102-0.301-0.053,0.003,0.149-0.273c0.033-0.043,0.256-0.28,0.287-0.308c1.313-1.264,0.711-0.671,1.569-2.157
		c2.771,0.085,4.497,0.781,6.777-2.627c0.243,1.691,0.13,3.405,0.42,5.264c0.213,1.35,0.031,1.31-0.244,2.419
		c-0.451,1.807,0.908,2.313-1.325,6.987c-0.422,0.876-1.742,3.201-1.897,3.98l-0.274,1.108c-0.154,11.825,4.076,5.396,4.465,3.362
		c0.541-2.83-0.685-3.245-1.02-3.678c0.263-0.791,0.592-0.773,0.677-1.29c0.104-0.614-0.297-1.072-0.363-1.615
		c-0.819-0.003-0.056,0.527-1.74,1.883c0.078,1.609,0.606,1.598,1.1,2.604c-0.293,0.914-0.944,1.784-1.626,2.139
		c-0.335-1.168-0.443-3.548,0.05-4.565l2.182-3.168c0.185-1.947,4.75-6.628,0.842-16.9c-3.607-9.479-2.905-6.777-3.726-17.582
		l-0.061-0.228c-0.497-2.841-1.377-4.58-2.73-6.448c-1.673-2.306-2.315-4.978-4-5.039c0.01,1.596,2.606,2.788-1.068,7.122
		c-3.879,4.581-2.138,6.5-3.358,7.043c-0.035,0.016-0.075,0.032-0.114,0.045l-1.729,0.181c-1.239-2.361-0.136-4.205,0.416-6.507
		c0.379-1.582,0.57-3.689,0.714-5.416c0.043-0.506-0.003-1.25,0.261-1.667c-0.205-1.14,0.247-3.688,0.464-4.875
		c0.462,0.21,0.818,0.763,1.319,0.604c0.615-0.195,0.613-0.883,0.991-1.437c0.437,0.173,0.785,0.399,1.365,0.433
		c0.348-0.624,0.353-1.055,1.243-1.302c1.83-0.503,5.303,0.277,6.851,1.053c5.184,2.6,5.732,9.481,7.036,12.303
		c0.395,0.853,0.717,0.949,1.17,1.603c1.608,2.313,0.506,2.115,0.139,4.279c-0.208,1.232,0.437,3.953,1.059,4.531
		c0.324-0.582,0.348-1.383,0.586-2.021c0.732-1.938,2.541-3.585,1.114-6.238c-0.74-1.369-1.817-1.771-0.859-3.793
		c1.141-2.414,0.315-3.568,0.244-4.492c-0.216-0.161-0.082-0.056-0.272-0.255c-0.031-0.032-0.12-0.139-0.151-0.173
		c-0.114-0.133-0.152-0.201-0.274-0.336c-0.26-0.293-0.384-0.358-0.579-0.652c-0.925-1.389,1.376-3.96-2.377-5.064
		c-2.116-0.622-1.529-1.003-2.575-2.489c-1.024-1.455-2.043-0.886-3.743-0.926C126.886,5.108,126.205,4.92,124.83,5.21
		 M129.587,8.296c0.483,0.697,0.916,1.855,1.171,2.812c-0.483-0.285-0.877-0.684-1.412-1.025c-1.781-1.139-3.814-1.389-4.747-1.999
		c0.269-0.441,0.474-0.654,1.125-0.886c0.433,0.241,0.359,0.285,0.746,0.728C127.323,8.907,127.755,8.266,129.587,8.296
		 M134.334,19.012c-0.468-0.809-0.632-2.996-1.066-4.084c-0.6-1.503-1.217-2.125-1.885-3.187c0.63,0.057,1.552,0.442,1.998,0.778
		c0.104,2.176,0.372,3.114,1.911,3.889C135.269,17.638,134.986,18.499,134.334,19.012 M107.528,13.553
		c-0.151-1.137,0.509-1.125,1.394-1.375c0.896-0.253,1.028-0.612,1.344-1.375c1.353-0.107,1.783,0.208,2.114,1.294
		c-1.332,1.201-1.202,0.229-2.6,0.704C108.743,13.151,109.106,13.841,107.528,13.553 M112.052,32.993
		c0.669,0.165,0.786,0.701,1.425,0.442c0.5-0.202,0.157-0.523,1.252-0.712c-0.017,1.273-0.117,1.728-0.81,2.536
		c-0.983,1.145-0.77,0.579-2.157,0.626C111.63,34.047,111.026,34.372,112.052,32.993 M122.942,46.385
		c-0.866,0.545,0.089,0.138-0.823,0.243c-0.331,0.036-0.687,0.05-1.025,0.086c-0.204,0.668-0.927,3.47-1.999,3.056l-0.165-3.428
		l2.294-0.746c2.279-1.158,4.423-3.433,5.018-6.057c0.616,0.328,0.616,0.527,0.973,1.012c0.302,0.408,0.568,0.549,0.85,0.997
		c1.031,1.657-1.198,3.519-2.425,4.149C124.871,46.086,123.826,46.566,122.942,46.385 M118.28,59.345
		c-0.221,1.099-0.999,2.124-1.715,2.558c-0.541-2.359,0.193-5.577,1.142-6.449C118.476,56.851,116.314,57.503,118.28,59.345"/>
</g>
</svg>
