<?xml version="1.0" encoding="UTF-8"?>
<!DOCTYPE svg PUBLIC "-//W3C//DTD SVG 1.1//EN" "http://www.w3.org/Graphics/SVG/1.1/DTD/svg11.dtd">
<!-- Creator: CorelDRAW X8 -->
<svg xmlns="http://www.w3.org/2000/svg" xml:space="preserve" width="38.8056mm" height="35.2778mm" version="1.1" style="shape-rendering:geometricPrecision; text-rendering:geometricPrecision; image-rendering:optimizeQuality; fill-rule:evenodd; clip-rule:evenodd"
viewBox="0 0 3881 3528"
 xmlns:xlink="http://www.w3.org/1999/xlink">
 <defs>
  <style type="text/css">
   <![CDATA[
    .str0 {stroke:white;stroke-width:70.56;stroke-linecap:round;stroke-linejoin:round}
    .str1 {stroke:white;stroke-width:70.56;stroke-linecap:round;stroke-linejoin:round}
    .fil0 {fill:none}
    .fil1 {fill:white}
   ]]>
  </style>
 </defs>
 <g id="Слой_x0020_1">
  <metadata id="CorelCorpID_0Corel-Layer"/>
  <g id="_1046625184">
   <rect class="fil0" width="3881" height="3528"/>
   <g>
    <path class="fil0 str0" d="M1940 3457c627,0 1174,-340 1467,-846l-870 0 0 -106 926 0c49,-101 89,-207 117,-318l-897 0 0 -106 921 0c19,-102 30,-209 30,-317 0,-935 -759,-1693 -1694,-1693 -484,0 -921,203 -1229,529l594 0 0 106 -686 0c-66,82 -125,170 -175,264l191 0 723 0 0 124 -723 0 -229 0 -21 0c-30,68 -55,139 -75,211l713 0 0 106 -739 0c-24,114 -37,232 -37,353 0,108 10,215 30,317l1469 0 0 106 -1446 0c19,73 43,144 70,212l730 0 0 106 -682 0c29,61 62,120 99,176l1004 0 0 106 -930 0c309,407 799,670 1349,670z"/>
    <path class="fil0 str1" d="M2594 682c172,-81 399,38 508,267 108,229 57,481 -115,562 -172,81 -399,-38 -507,-267 -109,-229 -57,-480 114,-562z"/>
    <path class="fil1 str1" d="M2745 1001c40,-19 92,9 117,62 25,52 14,111 -26,129 -40,19 -92,-9 -117,-61 -25,-53 -13,-111 26,-130z"/>
    <line class="fil0 str0" x1="247" y1="1764" x2="3634" y2= "1764" />
   </g>
   <line class="fil0 str0" x1="256" y1="1588" x2="1552" y2= "1588" />
   <line class="fil0 str0" x1="254" y1="1940" x2="1429" y2= "1940" />
   <line class="fil0 str0" x1="329" y1="2293" x2="1411" y2= "2293" />
   <line class="fil0 str0" x1="3525" y1="2361" x2="2328" y2= "2361" />
   <line class="fil0 str0" x1="547" y1="811" x2="1570" y2= "811" />
  </g>
 </g>
</svg>
