<?xml version="1.0" encoding="utf-8"?>
<!-- Generator: Adobe Illustrator 16.0.0, SVG Export Plug-In . SVG Version: 6.00 Build 0)  -->
<!DOCTYPE svg PUBLIC "-//W3C//DTD SVG 1.1//EN" "http://www.w3.org/Graphics/SVG/1.1/DTD/svg11.dtd">
<svg version="1.1" id="Слой_1" xmlns="http://www.w3.org/2000/svg" xmlns:xlink="http://www.w3.org/1999/xlink" x="0px" y="0px"
	 width="240px" height="90px" viewBox="0 0 240 90" enable-background="new 0 0 240 90" xml:space="preserve">
<g id="Слой_x0020_1">
	<g id="_871707184">
		<g>
			<path fill="#2B2A29" d="M50.015,67.218h0.047c0.442,0,0.52,0.126,0.646,0.41l-0.047,0.157c-0.315-0.094-0.315-0.314-0.803-0.363
				C49.872,67.28,49.857,67.218,50.015,67.218z M47.131,64.209c0-0.316,0.425-0.363,0.646-0.521
				c0.331-0.251,0.363-0.188,0.788-0.331c0.189-0.048,0.252-0.126,0.41-0.141c0.079-0.017,0.314-0.017,0.441-0.063
				c0.204-0.064,0.692-0.426,0.692-0.11c0,0.473-0.803,0.883-1.165,1.055c-0.252,0.142-0.568,0.189-0.804,0.3
				c-0.237,0.125-0.473,0.236-0.709,0.362C47.304,64.666,47.131,64.413,47.131,64.209z M48.848,59.876
				c0-0.758,0.426-1.309,1.009-1.624c0.251,0.237,0.662,1.354,0.662,1.858v0.063c0,0.521-0.693,0.315-1.009,0.394
				c-0.267,0.064-0.96,0.254-1.166,0.363C48.36,60.632,48.848,60.048,48.848,59.876z M54.553,58.158
				c-0.158,0.03-0.347,0.141-0.552,0.141c-0.252,0-0.551-0.221-0.551-0.504v-0.048c0-0.11,0.032-0.141,0.142-0.141h0.11
				C53.938,57.606,54.553,57.811,54.553,58.158z M47.083,43.03v0.82c0,1.513,1.67,3.167,3.183,3.167
				c0.568,0,0.977-0.834,1.576-1.087c0.426-0.188,1.702-0.551,1.954-0.709l2.174-0.362V45c-0.063,0.017-3.088,1.575-3.356,1.749
				c-0.157,0.095-0.662,0.33-0.851,0.396c-0.347,0.125-0.787,0.125-1.071,0.251c-0.473,0.188-0.883,1.134-0.883,1.687
				c0,0.03,0.126,0.551,0.142,0.566c0.063,0.188,0.237,0.268,0.457,0.301c0.614,0.063,0.788-0.064,1.324-0.064
				c-0.142,0.189-0.678,0.503-1.008,0.503c-0.206,0.144-0.994,0.427-1.292,0.553c-0.41,0.157-0.82,0.378-1.214,0.583
				c-0.818,0.441-1.701,0.883-2.6,0.883h-0.505c-0.646,0-1.166,1.338-1.166,2.175v0.204c0,0.143,0.284,0.488,0.362,0.583
				c0.252,0.314,0.268,0.236,0.63,0.378c0.536,0.222,0.914,0.379,1.639,0.395c0.173-0.126,3.655-1.135,3.986-1.056
				c-0.189,0.363-1.008,1.354-1.008,1.766c0,0.124,0.016,0.109,0.047,0.188c-0.284,0.441-0.395,0.441-0.851,0.663
				c-0.11-0.049-0.362-0.127-0.362-0.253c0-0.205,0.125-0.031,0.158-0.346c-0.41,0.094-1.75,1.056-1.781,1.056
				c-0.315,0-0.394-0.3-0.504-0.3s-0.11,0.031-0.189,0.094c-0.267-0.063-0.457-0.094-0.457,0.253
				c-0.189-0.032-0.458-0.032-0.458,0.251c0,0.899,0.252,1.292,0.741,1.718c0.362,0.331,0.771,1.01,1.481,1.01
				c-0.016,0.235-0.331,0.268-0.568,0.394c-0.235,0.125-0.393,0.188-0.63,0.331c-0.299,0.157-1.024,0.566-1.024,0.93
				c0,0.142,0.017,0.142,0.048,0.251h0.205c0.284,0-0.032,0.536-0.252,0.554l-0.031,0.063l0.284,0.094
				c-0.032,0.299-0.157,0.235-0.157,0.41v0.046c0,0.253,0.457,0.978,0.457,1.009c0,0.236-0.787,0.583-1.008,0.646
				c-0.426,0.127-1.009,0.174-1.45,0.236c-0.158,0.016-2.143,0.772-2.143,1.071c0,0.063,0.504,1.024,0.567,1.103
				c0.189,0.221,0.741,0.584,1.009,0.693l0.551,0.016h0.3H43.9c0.946-0.016,1.26-0.582,1.922-0.817
				c0.63-0.223,1.402-0.662,2.048-0.017c0.394,0.393,0.331,0.237,0.662,0.756c0.11,0.174,0.599,0.536,0.772,0.678
				c0.504,0.396,0.851,1.323,1.56,1.323c1.118,0,2.033-0.913,2.033-2.063c0-0.11-0.268-0.631-0.268-0.852
				c0-0.945,0.709-0.93,1.418-0.708c0.488,0.157,1.45,0.347,1.576,0.851c-0.331,0-0.426-0.126-0.567,0.047
				c0.063,0.094,1.024,0.252,1.024,0.504c0,0.253-0.457,0.095-0.772,0.299h-0.394v0.063c0.173,0.238,0.473,0.08,0.788,0.205
				c0.252,0.111,0.457,0.236,0.788,0.253l-0.221,0.189c0.11,0.142,0.268,0.142,0.457,0.205c0.125,0.047,0.284,0.188,0.41,0.298
				c0.346,0.237,0.52,0.27,0.851,0.553c0.583-0.269,0.804,0.222,1.607-0.3c0.315-0.204,0.819-0.882,0.819-1.354v-0.457
				c0-0.472-0.678-1.576-0.961-1.845c-0.504-0.487-0.962-0.929-1.75-1.148c-0.852-0.238-1.45-0.285-2.3-0.427
				c-0.568-0.095-1.876-0.157-2.064-0.504c0.063-0.613,0.567-1.135,0.567-1.671v-0.457c0-0.631-0.41-0.96-0.41-1.355
				c0-0.172,0.3-0.203,0.347-0.203c1.906,0,4.506-0.6,4.506-2.617v-0.298c0-0.819-0.835-1.765-1.434-2.048
				c-0.993-0.474-1.812-0.364-2.916-0.632v0.253c-0.363-0.032-0.536,0.063-0.504-0.283l-0.457-0.112
				c-0.063-0.221-0.662-0.613-0.662-0.709c0-0.236,1.134-0.408,1.292-0.441c0.078-0.016,0.457-0.221,0.614-0.283
				c0.174-0.078,0.41-0.109,0.725-0.141c1.135-0.096,2.001-0.394,3.137-0.394h0.047c0.488,0,0.393,0.047,0.472,0.597
				c0.032,0.269,0.126,0.694,0.189,1.025c0.095,0.646,0.095,1.403,0.095,2.048v0.253c0,0.929,0.188,2.411,0.409,3.276
				c0.268,1.058,0.315,2.097,0.631,3.168c0.142,0.504,0.819,2.427,1.056,2.727c0.362,0.472,0.283,0.63,0.834,1.009
				c0.316,0.221,0.82,0.613,1.324,0.613h0.347c0.284,0,1.103-0.426,1.276-0.598c0.285-0.252,0.599-0.756,0.599-1.277
				c0-0.378-0.173-1.103-0.142-1.338c0.031-0.237,0.142-1.278,0.142-1.482H65.22c0-0.535,0.174-1.292,0.3-1.717
				c0.205-0.693,0.11-1.215,0.11-1.954c-0.268,0.063-0.347,1.055-0.615,1.449c-0.094,0.109-0.205,0.567-0.269,0.757
				c-0.189,0.583-0.189,0.299-0.394,0.677l-0.142-0.063l-0.252,0.409l-0.205-0.063c-0.11,0.158-0.488,1.008-0.662,1.008
				c-0.015,0-0.377-0.047-0.394-0.047c-0.189-0.095,0.031-0.063-0.331-0.269c-0.158-0.093-0.299-0.583-0.347-0.818
				c-0.142-0.567-0.331-1.34-0.362-1.844c-0.016-0.504-0.173-1.293-0.173-2.05c0-0.755-0.11-1.606-0.11-2.126
				c0-1.245,0.535-2.741,1.04-3.499c0.787-1.133-0.064-2.521-0.978-2.945c-0.535-0.253-1.197-0.158-1.733,0.046
				c-0.347,0.127-1.481,0.363-1.875,0.333c-0.347-0.018-1.182,0.125-1.749,0.172c-0.268,0.031-1.56,0.299-1.78,0.252
				c0.268-0.361,1.639-0.63,2.158-0.865c0.473-0.221,0.804-0.128,1.229-0.283c0.315-0.128,0.82-0.411,1.166-0.411
				c0.173-0.268,0.41-0.268,0.489-0.519c0.094-0.27,0.314-0.441,0.314-0.694V48.12c0-0.725-1.292-1.498-1.969-1.56
				c0.032-0.285,0.851-0.427,1.103-0.552c0.346-0.173,0.771-0.488,1.135-0.6c0.63-0.188,0.709-0.063,0.913-0.803
				c0.095-0.395-0.031-0.772-0.283-1.151c-1.04-1.529-3.435-0.867-4.901-0.883l-0.094,0.111c-0.236-0.111-1.844,0.268-2.301,0.362
				c-0.409,0.079-2.127,0.646-2.284,0.646c-0.378,0-0.521-0.3-0.693-0.521c-0.11-0.142-0.536-0.472-0.694-0.583
				c-0.346-0.235-1.087-1.009-1.449-1.009C47.415,41.58,47.083,42.305,47.083,43.03z"/>
			<path fill="#2B2A29" d="M45.398,22.876c-0.017,0.173-0.725,0.756-0.883,0.883c-0.378,0.267-0.536,0.74-0.882,0.882
				c-0.568,0.22-0.395,0.473-0.962,0.818c-0.268,0.158-0.615,0.521-0.993,0.772c-0.362,0.237-0.582,0.568-0.945,0.819
				c-0.394,0.252-0.662,0.474-0.992,0.772c-0.252,0.205-1.86,1.34-2.127,1.402c0.031,0.395,0.63,0.269,0.913,0.41
				c0.3-0.142,0.505-0.189,0.82-0.189l1.197-0.063c0.11,0.063,0.143,0.158,0.253,0.158c0.188,0,0.74-0.425,0.929-0.457
				c0.505-0.079,0.662-0.095,1.025-0.221c0.536-0.188,0.457-0.236,0.898-0.472c0.173-0.095,0.236-0.205,0.378-0.331
				c0.126-0.127,0.268-0.158,0.426-0.284c0.283-0.206,0.535-0.331,0.787-0.568c0.284-0.283,0.331-0.473,0.709-0.693
				c0.362-0.22,1.213-0.961,1.528-1.26c0.473-0.458,0.93-0.914,1.402-1.371c0.489-0.441,0.899-0.961,1.355-1.418
				c0.458-0.441,0.852-1.024,1.245-1.544c0.315-0.41,0.835-1.26,1.497-1.26c0.489,0,4.617,4.821,5.122,5.483
				c0.331,0.441,0.883,0.914,1.292,1.324c0.299,0.299,0.394,0.347,0.709,0.599c0.221,0.189,0.377,0.473,0.646,0.709
				c0.378,0.315,1.088,0.929,1.34,1.308c0.267,0.378,1.071,0.946,1.717,0.946c0.316,0,0.537,0.078,0.914,0.141
				c0.457,0.079,0.426-0.047,0.961,0.063c0.488,0.094,1.387,0.457,1.954,0.457h0.11c0.126,0,0.142-0.079,0.205-0.158
				c-0.346-0.503-0.488-0.582-0.977-0.946c-0.41-0.298-0.646-0.614-1.056-0.913c-0.741-0.536-1.355-1.276-1.954-1.97
				c-0.441-0.52-0.536-0.504-1.009-0.915c-0.425-0.362-0.882-0.457-1.166-0.803c-0.189-0.236-0.095-0.236-0.409-0.552
				c-0.174-0.174-0.347-0.331-0.504-0.504c-0.347-0.331-0.647-0.662-0.978-0.993c-0.315-0.299-0.599-0.694-0.867-1.04
				c-0.157-0.221-0.725-0.898-0.898-1.072c-0.567-0.551-1.165-1.56-1.718-2.222c-0.315-0.347-0.567-0.757-0.882-1.072
				c-0.504-0.504-0.425-0.646-0.725-1.26c-0.314-0.615-1.15-1.954-1.875-1.954c-0.709,0-0.551,0.536-0.882,1.04
				c-0.3,0.473-0.536,0.741-0.852,1.166c-0.251,0.347-0.536,0.883-0.834,1.183c-0.173,0.188-0.772,0.897-0.914,1.103
				c-0.504,0.788-1.292,1.418-1.954,2.08C47.21,21.19,45.665,22.86,45.398,22.876z"/>
			<path fill="#2B2A29" d="M49.81,33.812c-0.205,0-0.362-0.851-0.425-1.086c-0.079-0.332,0.173-0.805,0.315-1.073
				c0.394-0.788,0.867-0.945,1.812-1.166c0.819-0.205,1.561-0.347,2.537-0.347c0.74,0,2.222-0.031,2.222,0.599
				c0,0.206-0.851,0.631-1.055,0.757c0.031,0.489-0.095,0.441-0.489,0.631c-0.394,0.189-0.41,0.221-0.882,0.237l-0.047-0.206
				l-0.252,0.127c-0.031,0.409-0.22,0.173-0.489,0.346c-0.157,0.11-0.188,0.379-0.425,0.379h-0.158
				c-0.283,0-0.078-0.348-0.346-0.348c-0.079,0-0.284,0.19-0.395,0.253c-0.189,0.109-0.237,0.095-0.425,0.172
				c-0.473,0.222,0,0.332-0.804,0.332C50.439,33.418,49.983,33.812,49.81,33.812z M51.118,28.974
				c-0.064-0.063-0.158-0.173-0.158-0.299c0-0.111,0.835-0.599,0.867-0.599c0.126,0,0.189,0.095,0.252,0.142
				c0.331-0.221,0.599-0.395,1.166-0.395c0.205-0.41,0.205-0.189,0.615-0.33c0.157-0.064,0.521-0.222,0.646-0.222
				c0.283,0,0.142,0.11,0.725,0.016c0.284-0.047,0.725-0.031,0.977-0.094c0.866-0.19,0.662-0.489,1.024-1.041
				c0-0.881-0.173-0.913-0.521-1.434c-0.314-0.457-0.598-0.677-1.354-0.677h-0.095c-1.323,0-2.536,0.252-3.718,0.566
				c-0.819,0.236-3.403,0.583-3.403,1.402c0,0.395,1.134,1.183,1.449,1.371c0.992,0.551,1.718-0.315,2.112-0.079l-1.702,1.277
				c-0.772,0.52-1.261,0.851-2.269,1.151c-0.882,0.252-1.465,0.977-1.245,2.049c0.299,1.448,1.057,4.254,2.617,4.254
				c0.283,0.205,0.393,0.425,0.85,0.504c0.442,0.063,0.678,0.079,0.961,0.094c0.458,0.032,0.599,0.079,1.041-0.015
				c0.268-0.048,0.93-0.283,1.182-0.125c0.094-0.064,0.094-0.111,0.206-0.111h0.457c0.189,0,0.016-0.016,0.173,0.095l-0.252,0.11
				l-0.536,0.362c0.047,0.063,0.284,0.346,0.362,0.346c0.158,0,0.189-0.03,0.3-0.047c0.583,0.379,0.472,0.221,1.245,0.379
				c0.283,0.046,0.378-0.063,0.741,0c0.252,0.046,0.567,0.079,0.756,0.109c1.04,0.174,1.859-0.504,1.859-1.497v-0.109
				c0-0.222-0.205-0.71-0.315-0.836c-0.315-0.362-0.268-0.221-0.425-0.741c-0.11-0.378-1.166-0.881-1.481-0.741l-0.158-0.188
				c0.142-0.047,0.252-0.109,0.41-0.109c0.158,0,0.094,0.109,0.205,0.109c0.331,0,1.135-0.504,1.466-0.6
				c0.725-0.237,0.787-0.362,0.945-1.118c0.125-0.615-0.3-1.008-0.394-1.56c-0.079-0.378-0.662-0.945-0.962-1.12
				c-0.315-0.173-0.268-0.252-0.583-0.409c-0.268-0.142-0.504-0.221-0.693-0.285c-0.473-0.141-1.371-0.157-1.67-0.125
				c-0.74,0.079-1.087,0.142-1.749,0.221c-0.362,0.047-1.481,0.346-1.67,0.252v0.094h-0.158H51.118z"/>
			<path fill="#2B2A29" d="M52.709,60.284l-0.205,0.835c0.126,0.048,0.095,0.064,0.205,0.064c0.236,0,0.268-0.599,0.346-0.757
				l-0.094-0.205L52.709,60.284z"/>
			<path fill="#2B2A29" d="M52.709,62.019l-0.189,1.024c0.268-0.017,0.52-0.741,0.52-1.009l-0.047-0.284L52.709,62.019z"/>
			<path fill="#2B2A29" d="M52.583,62.081c0.269,0,0.379,0,0.394-0.251C52.741,61.845,52.63,61.876,52.583,62.081z"/>
			<polygon fill="#2B2A29" points="52.63,28.581 52.678,28.786 52.93,28.723 52.867,28.518 			"/>
		</g>
		<path fill="#2B2A29" d="M7.17,41.487c0.095-0.536,0.221-1.073,0.347-1.591C7.374,40.493,7.232,41.139,7.17,41.487z M7.659,39.248
			c0.031-0.109,0.063-0.221,0.094-0.346c0.079-0.299,0.158-0.614,0.237-0.913c0.078-0.3,0.157-0.583,0.219-0.883
			c0.079-0.331,0.158-0.678,0.237-1.008c0.11-0.441,0.204-0.867,0.315-1.292c0.362-1.372,0.788-2.71,1.308-4.034
			c0.063-0.174,0.142-0.363,0.205-0.536c0.505-1.166,1.072-2.285,1.718-3.373c0.583-0.945,1.229-1.875,1.938-2.742
			c1.418-1.749,2.978-3.325,4.648-4.79c0.914-0.82,1.875-1.592,2.836-2.317c1.686-1.276,3.419-2.379,5.31-3.309
			c1.197-0.583,2.412-1.135,3.656-1.623c2.364-0.945,4.728-1.623,7.154-2.333c0.252-0.063,0.552-0.142,0.771-0.267
			c0.143-0.08,0.095-0.142-0.047-0.173c-0.315-0.079-0.709-0.048-1.024-0.031c-0.74,0.031-1.465,0.109-2.206,0.22
			c-0.316,0.048-0.646,0.11-0.961,0.189c-0.41,0.079-0.819,0.189-1.229,0.3c-0.961,0.252-1.906,0.551-2.836,0.897
			c-1.182,0.441-2.316,0.946-3.451,1.498c-0.063,0.031-0.111,0.047-0.174,0.079c-0.031,0.016-0.079,0.032-0.126,0.063
			c-0.032,0-0.063,0.016-0.094,0.031c-0.017,0-0.048,0.016-0.079,0.016c-0.046,0.016-0.079,0-0.046-0.063
			c0.063-0.142,0.204-0.252,0.251-0.394c0.016-0.079-0.063-0.079-0.11-0.079c-0.064,0-0.142,0.031-0.206,0.047
			c-0.11,0.048-0.236,0.094-0.346,0.142c-0.174,0.079-0.331,0.158-0.505,0.252c-0.236,0.11-0.457,0.237-0.677,0.362
			c-0.678,0.394-1.339,0.82-1.986,1.276c-1.717,1.214-3.403,2.506-4.947,3.94c-3.53,3.309-6.397,7.138-8.478,11.566
			c-1.985,4.255-3.072,8.776-3.419,13.457c-0.142,1.733-0.125,3.482-0.016,5.214c0.063,1.166,0.188,2.333,0.315,3.499
			c0.016,0.111,0.031,0.204,0.048,0.316c0.015,0.141,0.046,0.299,0.079,0.455c0.078,0.441,0.173,0.884,0.284,1.309
			c0.252,1.072,0.566,2.127,0.913,3.182c0.189,0.569,0.395,1.136,0.614,1.688c0.079,0.19,0.143,0.378,0.221,0.566
			c0.016,0.064,0.048,0.128,0.064,0.205c0.015,0.032,0.031,0.064,0.046,0.11c0,0,0.016,0.049,0,0.033
			c-0.015,0-0.031-0.033-0.031-0.049c-0.079-0.125-0.142-0.251-0.205-0.378c-0.347-0.724-0.662-1.464-0.946-2.206
			c-1.639-4.507-2.364-9.17-2.095-13.977c0.252-4.806,1.497-9.391,3.624-13.677c0.614-1.246,1.371-2.443,2.175-3.578
			c0.347-0.504,0.693-1.008,1.04-1.496c0.473-0.662,0.945-1.308,1.434-1.955c1.245-1.607,2.601-3.167,4.097-4.569
			c3.704-3.482,7.722-5.988,12.464-7.721c1.45-0.535,2.994-0.93,4.507-1.213c1.371-0.252,2.742-0.41,4.144-0.457
			c0.378-0.015,0.772-0.031,1.151-0.046c0.457-0.017,0.914-0.033,1.371-0.048c1.008-0.047,2.017-0.064,3.024-0.064
			c2.175,0.033,4.286,0.221,6.445,0.379c0.079,0.016,0.378,0.047,0.441,0c0.032-0.032-0.047-0.063-0.047-0.063
			c-0.094-0.047-0.173-0.063-0.267-0.095c-0.174-0.046-0.331-0.094-0.505-0.125c-0.252-0.063-0.504-0.11-0.756-0.158
			c-0.789-0.142-1.576-0.252-2.364-0.331c-0.961-0.11-1.938-0.173-2.9-0.205c-0.63-0.016-1.261-0.031-1.891-0.031
			c-0.394-0.016-0.787-0.016-1.181-0.016c-0.221,0-0.426-0.016-0.646-0.047c-0.063,0-0.205-0.015-0.268-0.078
			c-0.331-0.284,0-0.394-0.756-0.552c-0.016,0-0.551-0.094-0.504-0.157c0.015,0,0.063-0.016,0.078-0.016
			c0.016,0,0.032,0,0.063-0.016c0.032,0,0.048,0,0.078,0c0.08,0,0.143-0.015,0.222-0.015c0.094,0,0.188,0,0.298,0
			c1.513-0.017,3.026,0.063,4.539,0.188c1.591,0.126,3.168,0.315,4.743,0.552c2.143,0.347,4.255,0.804,6.366,1.308
			c1.245,0.284,2.49,0.568,3.687,0.961c1.104,0.347,2.159,0.804,3.199,1.339c0.741,0.395,1.466,0.835,2.175,1.292
			c0.945,0.615,1.828,1.277,2.709,1.985c0.11,0.11,0.237,0.205,0.363,0.3c0.111,0.095,0.237,0.188,0.363,0.283
			c0.252,0.189,0.489,0.378,0.741,0.552c0.425,0.314,0.835,0.629,1.276,0.913c0.157,0.095,0.504,0.347,0.694,0.363
			c0.063,0.016,0-0.079,0-0.11c-0.033-0.047-0.079-0.095-0.126-0.142c-0.063-0.079-0.127-0.143-0.189-0.205
			c-0.378-0.394-0.788-0.756-1.198-1.103c-0.756-0.646-1.528-1.276-2.332-1.859c-2.301-1.671-4.775-3.136-7.375-4.271
			c-4.837-2.111-9.77-3.23-15.017-3.498c-1.291-0.063-2.616-0.047-3.908,0.016c-0.378,0.016-0.741,0.046-1.118,0.063
			c-0.095,0.016-0.189,0.016-0.3,0.016c-0.031,0-0.047,0-0.079,0h-0.032c-0.299-0.22-0.662-0.173-1.008-0.236l0,0h0.015
			c0.016,0,0.016,0,0.031,0c0.016-0.016,0.048-0.016,0.064-0.016c0.157-0.016,0.299-0.032,0.457-0.047
			c0.835-0.063,1.654-0.11,2.474-0.126c1.134-0.047,2.285-0.047,3.419,0c5.389,0.268,10.242,1.339,15.332,3.104
			c0.599,0.205,1.213,0.441,1.828,0.583l0.189-0.252c-0.157-0.158-0.394-0.299-0.582-0.426c-0.364-0.219-0.741-0.425-1.12-0.614
			c-0.867-0.457-1.765-0.851-2.663-1.213c-1.198-0.473-2.412-0.882-3.64-1.213c-3.01-0.836-6.129-1.355-9.25-1.466
			c-5.421-0.189-10.605,0.583-15.742,2.348c-1.812,0.631-3.608,1.402-5.341,2.253c-3.199,1.561-6.178,3.53-8.825,5.941
			c-4.113,3.75-7.28,8.13-9.675,13.204c-1.339,2.836-2.333,5.878-3.042,8.935c-0.488,2.08-0.819,4.285-0.882,6.429
			c-0.205,5.515,0.678,10.526,2.442,15.726c0.189,0.583,0.426,1.166,0.646,1.732c1.89,4.68,4.396,8.699,7.689,12.48
			c0.961,1.088,2.033,2.127,3.104,3.088c0.347,0.3,0.678,0.6,1.024,0.867c0.095,0.079,0.206,0.157,0.3,0.237
			c0.031,0.016,0.063,0.046,0.094,0.063c0,0,0.033,0.016,0.048,0.016c0.031,0-0.015-0.047-0.015-0.063
			c-0.063-0.079-0.143-0.144-0.205-0.221c-0.299-0.285-0.599-0.552-0.899-0.837c-1.134-1.07-2.238-2.158-3.262-3.324
			c-3.671-4.175-6.492-8.808-8.367-14.102c-1.781-5.028-2.505-10.307-2.253-15.647c0.11-2.349,0.472-4.712,1.023-7.012
			c0.189-0.804,0.41-1.591,0.678-2.38c0.158-0.488,0.331-0.977,0.552-1.45c0-0.015,0.016-0.063,0.031-0.063
			c0-0.016-0.016,0.048-0.016,0.048c-0.031,0.156-0.079,0.299-0.11,0.456c-0.205,0.694-0.394,1.402-0.567,2.128
			c-0.662,2.71-1.087,5.499-1.198,8.303c-0.205,5.265,0.552,10.496,2.301,15.459c1.859,5.199,4.664,9.801,8.319,13.882
			c1.261,1.403,2.664,2.727,4.113,3.924c0.725,0.6,1.465,1.182,2.237,1.703c0.347,0.235,0.709,0.472,1.056,0.708
			c0.283,0.188,0.552,0.393,0.835,0.583c0.441,0.33,0.898,0.662,1.339,0.992c0.346,0.253,0.741,0.488,1.119,0.709
			c0.709,0.426,1.45,0.82,2.206,1.182c4.822,2.317,9.833,3.642,15.159,4.02c5.216,0.377,10.558-0.332,15.521-1.986
			c5.137-1.7,9.927-4.46,13.993-8.099c4.034-3.578,7.39-8.021,9.675-12.969c2.222-4.837,3.451-9.896,3.75-15.222
			c0.063-1.292,0.063-2.616,0-3.908c-0.204-4.033-0.882-7.88-2.159-11.692c-0.898-2.663-2.111-5.215-3.608-7.579
			c-0.236-0.378-0.505-0.756-0.773-1.118c-0.173-0.253-0.362-0.489-0.567-0.709c-0.063-0.063-0.237-0.252-0.315-0.252
			c-0.079,0.016,0.016,0.268,0.016,0.299c0.016,0.031,0.031,0.063,0.047,0.079c0.031,0.063,0.063,0.126,0.095,0.173
			c0.11,0.188,0.22,0.378,0.347,0.567c0.377,0.662,0.756,1.324,1.118,2.001c1.15,2.174,2.143,4.459,2.884,6.808
			c1.56,4.963,2.238,10.069,1.876,15.285l-0.143,0.787c0.017-0.269,0.033-0.536,0.048-0.803c0.283-5.263-0.378-10.181-2.033-15.176
			c-0.489-1.45-1.103-2.915-1.781-4.286c-1.182-2.364-2.473-4.648-4.017-6.775c-0.253-0.347-0.521-0.678-0.789-1.009
			c-0.205-0.252-0.442-0.504-0.678-0.725c-0.173-0.189-0.362-0.347-0.583-0.489c-0.142-0.094-0.299-0.173-0.488-0.205
			c-0.063-0.016,0,0.094,0.016,0.11c0.079,0.142,0.173,0.267,0.252,0.394c0.347,0.489,0.725,0.961,1.071,1.434
			c1.009,1.371,1.97,2.774,2.836,4.255c0.615,1.04,1.197,2.11,1.702,3.214c0.016,0.047,0.031,0.094,0.047,0.142
			c0.016,0.016,0.016,0.016,0.016,0.031v0.016v-0.016c-0.016-0.016-0.016-0.031-0.031-0.047c-0.031-0.047-0.047-0.094-0.079-0.141
			c-0.315-0.583-0.63-1.166-0.961-1.749c-0.221-0.378-0.441-0.757-0.693-1.135c-0.063-0.094-0.126-0.188-0.205-0.267
			c-0.016-0.047-0.063-0.095-0.095-0.126c-0.079-0.031,0.016,0.158,0.016,0.173c0.094,0.189,0.189,0.394,0.267,0.583
			c0.568,1.167,1.12,2.333,1.608,3.53c0.473,1.166,0.914,2.363,1.26,3.561c1.419,4.791,2.018,9.612,1.671,14.624
			c-0.362,4.853-1.623,9.643-3.75,13.993c-2.237,4.584-5.279,8.445-9.029,11.786c-1.402,1.244-2.947,2.379-4.522,3.371
			c-2.616,1.655-5.483,2.868-8.43,3.766c-1.813,0.553-3.687,0.93-5.562,1.183c-0.584,0.078-1.167,0.143-1.75,0.19
			c-0.142,0.015-0.3,0.03-0.441,0.03c-0.031,0-0.063,0-0.095,0.016h-0.015l0,0l0,0l0,0l0,0v-0.016c0,0,0,0,0.015,0
			c2.632-0.283,5.248-0.805,7.769-1.67c4.68-1.592,8.919-4.003,12.668-7.28c3.751-3.294,6.65-7.139,8.967-11.583
			c0.44-0.835,0.835-1.717,1.197-2.583c1.482-3.546,2.364-7.391,2.647-11.219c0.362-4.917-0.236-9.771-1.78-14.435
			c-0.079-0.251-0.158-0.488-0.252-0.725c-0.032-0.063-0.064-0.142-0.095-0.205c-0.015-0.047-0.031-0.079-0.048-0.11
			c0-0.016-0.015-0.032-0.015-0.016v0.031c0.015,0.063,0.048,0.127,0.063,0.19c0.079,0.299,0.173,0.583,0.252,0.867
			c1.387,4.728,1.986,9.439,1.639,14.385c-0.331,4.761-1.654,9.503-3.75,13.757c-1.418,2.853-3.184,5.437-5.248,7.848
			c-1.119,1.324-2.332,2.6-3.64,3.72c-3.797,3.213-7.974,5.594-12.716,7.027c-4.57,1.387-9.203,1.766-13.945,1.371
			c-1.954-0.157-3.939-0.521-5.846-1.009c-2.601-0.662-5.152-1.577-7.547-2.79c-4.365-2.221-8.037-5.041-11.346-8.698
			c-0.978-1.07-1.907-2.268-2.727-3.466c-1.828-2.695-3.372-5.641-4.365-8.777c-1.371-4.396-1.922-8.824-1.497-13.41
			C7.17,41.833,7.391,40.541,7.659,39.248z M14.024,70.354c-3.419-3.861-5.909-8.099-7.659-12.984
			c-0.394-1.118-0.708-2.27-0.992-3.42c-0.048-0.172-0.079-0.362-0.127-0.534c-0.016-0.047-0.016-0.095-0.031-0.142
			c0-0.017,0-0.033,0-0.049c0-0.017,0-0.017,0-0.031l0,0v0.015c0.016,0.032,0.016,0.049,0.031,0.08
			c0.032,0.127,0.063,0.253,0.094,0.378c0.331,1.229,0.694,2.459,1.135,3.657c1.828,4.853,4.35,8.965,7.752,12.826
			c0.568,0.63,1.167,1.244,1.781,1.843c0.158,0.142,0.314,0.3,0.473,0.458c0.095,0.11,0.189,0.204,0.284,0.314
			c0.079,0.094,0.157,0.205,0.205,0.33c0.047,0.08,0.063,0.143,0.111,0.221c0.031,0.048,0.063,0.08,0.095,0.111L14.024,70.354z
			 M51.322,82.519c-3.608,0.835-7.375,1.071-11.046,0.82c-4.964-0.348-9.707-1.671-14.198-3.829
			c-1.308-0.615-2.568-1.356-3.782-2.161c-0.41-0.251-0.803-0.534-1.197-0.803c-0.221-0.173-0.441-0.33-0.646-0.503
			c-0.031-0.032-0.078-0.063-0.11-0.095c0-0.017,0-0.017,0.015-0.017c0.017,0.017,0.032,0.017,0.048,0.033
			c0.063,0.03,0.142,0.078,0.221,0.125c0.126,0.093,0.268,0.173,0.394,0.268c1.229,0.771,2.458,1.497,3.75,2.174
			c0.473,0.238,0.961,0.472,1.434,0.709c1.417,0.678,2.836,1.34,4.301,1.891c1.608,0.6,3.231,1.041,4.901,1.355
			c1.606,0.283,3.246,0.52,4.884,0.615c4.996,0.3,9.707-0.236,14.513-1.701c0.883-0.27,1.765-0.6,2.631-0.931
			c0.237-0.094,0.473-0.188,0.694-0.284c0.063-0.03,0.11-0.047,0.173-0.078c0.016,0,0.016,0,0.032-0.015l0,0l0,0l0,0l0,0l0,0l0,0
			c-1.151,0.534-2.316,0.992-3.499,1.401c-0.772,0.268-1.544,0.489-2.316,0.709c-0.268,0.078-0.536,0.144-0.804,0.221
			c-0.094,0.016-0.173,0.032-0.267,0.063C51.401,82.502,51.354,82.502,51.322,82.519z M30.317,82.991h-0.016
			c-0.079-0.031-0.158-0.063-0.236-0.094c-0.362-0.143-0.725-0.268-1.087-0.411c-1.213-0.456-2.395-0.945-3.562-1.496
			c-1.591-0.771-3.135-1.639-4.632-2.6c-1.339-0.867-2.615-1.781-3.845-2.805c-0.615-0.521-1.213-1.072-1.796-1.64
			c-0.063-0.063-0.126-0.143-0.189-0.205c-0.048-0.047-0.079-0.079-0.11-0.125c-0.016-0.017-0.047-0.047-0.032-0.063l0.032,0.017
			c0.11,0.077,0.205,0.156,0.299,0.234c0.189,0.143,0.362,0.301,0.552,0.441c3.104,2.537,6.303,4.618,9.895,6.366
			c0.962,0.457,1.938,0.883,2.932,1.294c0.362,0.141,0.74,0.298,1.119,0.456c0.252,0.11,0.52,0.204,0.772,0.331
			c0.047,0.03,0.173,0.093,0.188,0.156c0.016,0.049-0.047,0.079-0.079,0.095c-0.047,0.017-0.109,0.032-0.157,0.048
			C30.349,82.991,30.333,82.991,30.317,82.991z"/>
		<path fill="#2B2A29" d="M60.745,12.004c-0.126-0.079-0.237-0.142-0.362-0.221c3.388,1.386,6.255,3.608,9.092,5.861
			c0.457,0.362,0.915,0.741,1.355,1.135c0.126,0.126,0.268,0.252,0.395,0.378c0.047,0.048,0.094,0.095,0.142,0.143
			c0.048,0.032,0.079,0.079,0.11,0.109c0.032,0.031,0.047,0.063,0.079,0.079c0.016,0.031,0.031,0.047,0.031,0.064
			c0.016,0.015,0.032,0.046,0,0.031c-0.094-0.016-0.221-0.126-0.299-0.189c-0.473-0.347-0.93-0.709-1.387-1.071
			c-0.567-0.442-1.119-0.866-1.686-1.308c-1.498-1.197-3.073-2.253-4.712-3.247c-0.394-0.235-0.804-0.473-1.197-0.692
			c-0.315-0.19-0.631-0.362-0.946-0.552c-0.11-0.063-0.221-0.126-0.331-0.205c-0.079-0.047-0.157-0.094-0.237-0.157
			C60.761,12.13,60.619,12.02,60.745,12.004z"/>
		<path fill="#2B2A29" d="M50.361,8.852c0.771,0.11,1.544,0.236,2.3,0.41c0.221,0.048,0.441,0.095,0.662,0.141
			c0.079,0.033,0.142,0.048,0.22,0.064c0.047,0.016,0.11,0.031,0.158,0.048c0.031,0.015,0.063,0.031,0.095,0.047
			c0.016,0,0.031,0.016,0.047,0.016c0,0.031-0.063,0.016-0.079,0.016c-0.189,0-0.378-0.032-0.566-0.063
			c-0.647-0.094-1.293-0.189-1.924-0.315c-0.142-0.031-0.283-0.063-0.409-0.095c-0.063-0.015-0.126-0.031-0.173-0.047
			c-0.063,0-0.111-0.016-0.158-0.032c-0.047-0.031-0.126-0.047-0.173-0.094c-0.032-0.032-0.032-0.048,0-0.079
			C50.361,8.868,50.361,8.868,50.361,8.852z"/>
		<path fill="#2B2A29" d="M7.563,63.972c-1.135-2.001-2.096-4.129-2.852-6.303c-0.85-2.505-1.449-5.074-1.78-7.704
			c-0.299-2.302-0.426-4.682-0.284-6.981c0.315-5.106,1.434-9.723,3.545-14.355c0.11-0.221,0.206-0.425,0.315-0.646
			c2.285-4.413,5.249-8.32,9.03-11.566l0.567-0.378c-0.174,0.143-0.347,0.284-0.505,0.442c-3.86,3.419-6.996,7.564-9.187,12.244
			c-1.812,3.86-2.868,7.925-3.325,12.165c-0.063,0.692-0.126,1.401-0.142,2.096c-0.142,5.058,0.52,9.769,2.159,14.544
			c0.788,2.332,1.859,4.616,3.104,6.744c0.3,0.52,0.615,1.041,0.93,1.56c0.079,0.143,0.174,0.283,0.253,0.427
			c0.046,0.094,0.094,0.172,0.142,0.252c0,0.016,0.031,0.078,0.031,0.094c-0.016,0.017-0.063-0.031-0.079-0.031
			c-0.126-0.127-0.236-0.268-0.347-0.394C8.573,65.468,8.052,64.729,7.563,63.972z M16.104,16.037l7.547-5.042
			C20.942,12.366,18.405,14.068,16.104,16.037z"/>
		<path fill="#2B2A29" d="M44.846,84.205c3.545-0.206,7.122-0.852,10.51-1.938c3.97-1.276,7.595-3.041,11.03-5.405
			c0.961-0.661,1.907-1.388,2.805-2.143c4.097-3.531,7.264-7.516,9.722-12.339c0.694-1.34,1.277-2.773,1.781-4.191
			c0.362-1.04,0.662-2.078,0.898-3.151c0.158-0.693,0.283-1.401,0.362-2.112c0.016-0.126,0.031-0.298,0.016-0.424
			c0-0.016,0-0.048-0.016-0.032c-0.031,0.032-0.046,0.08-0.063,0.11c-0.063,0.237-0.11,0.458-0.173,0.694
			c-0.11,0.456-0.206,0.912-0.331,1.37c-0.662,2.63-1.591,5.153-2.806,7.579c-1.118,2.19-2.441,4.27-3.954,6.193
			c-1.687,2.175-3.609,4.208-5.72,5.972c-3.672,3.041-7.659,5.31-12.118,6.981c-0.504,0.188-1.024,0.361-1.544,0.52
			c-4.586,1.403-9.139,2.127-13.93,2C42.498,84.047,43.664,84.142,44.846,84.205z"/>
		<g>
			<path fill="#2B2A29" d="M218.54,27.682c0.08,0.016,0.19,0.016,0.221-0.016c0.175,0.158,0.379,0.268,0.521,0.426
				c0.283-0.016,0.393,0.504,0.691,0.315c0.018,0.363,0.349,0.363,0.426,0.646l0.286,0.125c-0.333,0.047,0.046,0.378-0.223,0.521
				c0.017,0.425,0.285,0.772,0.253,1.182c-0.096,0.221,0.125,0.63-0.268,0.708c0.031,0.567-0.41,0.047-0.6,0.3
				c-0.551-0.016-1.118,0.251-1.732,0.314c-0.552,0.127-1.072,0.206-1.624,0.411c-0.236,0.205-0.692,0.063-0.93,0.172
				c-0.174,0.395-0.6,0.3-0.867,0.537c-0.204-0.109-0.377,0.19-0.693,0.063c-0.456,0.269-0.818,0.363-1.26,0.411
				c-0.11-0.111-0.251-0.126-0.283-0.221c-0.772,0.142-1.246-0.79-1.797-1.135c-0.283-0.535-0.772-0.96-1.136-1.371
				c0.064-0.315-0.061-0.646-0.299-0.866h-0.077l0.016-0.189c0.172,0.063,0.124-0.221,0.205-0.252c0.613-0.11,1.147-0.52,1.81-0.537
				c0.867,0.017,1.562-0.598,2.444-0.63c1.229-0.457,2.536-0.961,3.782-1.182c0.157-0.251,0.551-0.031,0.802-0.046
				C218.304,27.43,218.446,27.541,218.54,27.682z"/>
			<path fill="#2B2A29" d="M148.72,26.249c0.063,0,0.172,0.016,0.221-0.031c0.156,0.157,0.378,0.283,0.504,0.441
				c0.3-0.016,0.41,0.504,0.709,0.299c0.016,0.377,0.331,0.362,0.426,0.662l0.283,0.126c-0.331,0.047,0.048,0.363-0.22,0.52
				c0,0.426,0.268,0.773,0.235,1.182c-0.078,0.221,0.143,0.616-0.268,0.709c0.032,0.552-0.395,0.047-0.6,0.299
				c-0.55-0.016-1.103,0.237-1.732,0.316c-0.551,0.11-1.056,0.189-1.622,0.41c-0.238,0.205-0.694,0.046-0.915,0.157
				c-0.173,0.41-0.599,0.299-0.883,0.551c-0.204-0.109-0.362,0.19-0.693,0.063c-0.44,0.268-0.819,0.363-1.261,0.411
				c-0.093-0.111-0.236-0.127-0.268-0.222c-0.772,0.143-1.244-0.788-1.813-1.134c-0.284-0.535-0.756-0.961-1.133-1.371
				c0.063-0.315-0.063-0.662-0.301-0.866l-0.063-0.016v-0.173c0.189,0.063,0.127-0.221,0.205-0.268
				c0.63-0.11,1.166-0.504,1.813-0.521c0.881,0,1.575-0.598,2.441-0.646c1.229-0.458,2.537-0.946,3.782-1.167
				c0.173-0.268,0.551-0.031,0.802-0.046C148.483,25.98,148.624,26.091,148.72,26.249z"/>
			<path fill="#2B2A29" d="M210.504,27.494c0.048-0.222,0.173-0.3,0.284-0.474C210.788,27.068,210.614,27.414,210.504,27.494z"/>
			<path fill="#2B2A29" d="M140.684,26.043c0.047-0.22,0.155-0.299,0.283-0.471C140.967,25.618,140.793,25.965,140.684,26.043z"/>
			<path fill="#2B2A29" d="M215.737,9.719c0.346,0.284,0.817,0.741,1.07,1.245c0.378,0.315,0.584,1.024,0.677,1.544
				c-0.077,0.189,0.128,0.441-0.077,0.599c0.109,0.52,0.205,0.756,0.235,1.323c-0.078,0.031-0.141,0.063-0.188,0.11
				c0.063,0.142,0.016,0.236,0.016,0.378c1.213,0.819,2.331,1.78,3.262,3.088c0.221,0.867,0.882,1.308,1.277,1.955
				c0.598,1.182,1.606,2.347,2.409,3.183v0.094c0.726,0.867,1.561,1.986,2.412,2.727l-0.049,0.141
				c0.396,0.221,0.488,0.789,0.962,0.882c0.158,0.346,0.456,0.568,0.692,0.82c0.081,0.378,0.458,0.236,0.537,0.662
				c0.157-0.063,0.221,0.079,0.204,0.172c0.646,0.536,0.898,1.072,1.561,1.608c0.473,0.426,0.726,0.867,1.182,1.197
				c0.048,0.284,0.267,0.221,0.41,0.332c0.362,0.409,0.693,0.866,1.149,1.102c0.017,0.411,0.505,0.521,0.71,0.867
				c0.52-0.173,0.866,0.504,1.213,0.772c0.11-0.032,0.236,0.126,0.236,0.268c0.616,0.85,1.436,1.229,2.017,2.125
				c0.331,0.458,0.82,0.742,1.196,1.057c-0.171,0.441,0.301,0.268,0.426,0.521c-0.204-0.032-0.409-0.188-0.566-0.157
				c0.078,0.457,1.245,0.362,0.536,1.118c-0.331,0.568-0.787-0.598-0.914,0.127c-0.299-0.268-0.678-0.537-1.04-0.583
				c-0.079,0.079-0.046,0.221-0.096,0.315l0.175,0.157c-0.393-0.235-1.055-0.583-1.418-1.087c-0.253-0.031-0.378-0.237-0.566-0.11
				c0.22,0.488,0.707,0.678,1.087,0.946c-0.362,0.063-0.646-0.488-1.057-0.347c-0.188,0.063-0.379-0.458-0.534-0.205l0.093,0.157
				l-0.361-0.047c0.205,0.251-0.301,0.236-0.175,0.488c-0.11-0.063-0.362-0.046-0.439,0.048c-0.128,0.299-0.3,0.235-0.505,0.488
				c-0.362-0.048-0.473,0.504-0.82,0.314c-0.173-0.063-0.377,0.283-0.504-0.094c-0.629,0.158-0.978-0.537-1.56-0.362
				c-0.284-0.269-0.614-0.725-0.96-0.773c-0.271,0.111-0.271-0.441-0.537-0.283c-0.235-0.725-0.757-0.914-1.04-1.559
				c-0.268-0.441-0.693-1.041-1.104-1.277c-0.015-0.41-0.361-0.551-0.597-0.944c-0.252,0.015-0.284-0.395-0.567-0.521
				c-0.237-0.362-0.427-0.741-0.727-1.008c-0.598-0.773-1.386-1.544-1.968-2.395c-0.41-0.835-0.898-1.687-1.419-2.522
				c0.048-0.236-0.127-0.347-0.221-0.489c-1.244-2.315-2.378-4.711-3.389-7.453c-0.581-1.04-1.243-2.411-2.315-2.631
				c-0.456,0.283-0.456,0.882-0.63,1.354c-0.175,0.315-0.237,0.772-0.3,1.12c-0.094,0.22-0.409-0.032-0.426,0.236
				c0.032,0.095,0.063,0.095,0.143,0.158l-0.284,0.426c0-0.095-0.063-0.095-0.11-0.11c0.048,0.331-0.142,0.629-0.268,0.851
				c-0.126,0.173-0.221-0.111-0.301,0.109c-0.063,0.222,0.049,0.237-0.14,0.394c0-0.047,0-0.047-0.032-0.047
				c-0.031-0.016-0.049,0.079-0.049,0.126c0,0.094,0.063,0.11,0.063,0.11c-0.015,0.315-0.33,0.646-0.362,1.008
				c-0.252-0.031-0.142,0.458-0.377,0.331l-0.189,0.441c-0.157-0.205-0.189,0.205-0.268,0.284c-0.063,0.363-0.315,0.426-0.426,0.835
				c-0.174,0.441-0.426,0.868-0.662,1.261l-0.11-0.015c0-0.142,0.018-0.268-0.015-0.363c-0.411,0.079-0.349,0.835-0.725,0.977
				c-0.143,0.015-0.08,0.221-0.19,0.206h-0.03c-0.175,0.251-0.41,0.503-0.679,0.692c-0.188,0.677-0.709,0.756-0.992,1.323
				c-0.567,0.158-0.553,1.088-1.104,1.167c-0.126,0.221-0.394,0.314-0.504,0.488c-0.188,0.173-0.409,0.551-0.662,0.536
				c-0.977,1.118-2.096,1.543-3.041,2.505c-0.616,0.472-1.15,0.883-1.859,1.166c-0.566,0.394-1.308,0.488-1.985,0.741
				c-0.473,0.125-0.866,0.456-1.402,0.439c0.079-0.14,0.268-0.109,0.441-0.14c0.613-0.348,1.45-0.474,2.063-1.009
				c-0.268-0.157-0.613,0.079-0.882,0.173h-0.031c0.126-0.173,0.409-0.221,0.473-0.458c-0.235-0.393-0.521,0.033-0.805,0.049
				c-0.883,0.725-1.952,0.834-2.694,1.591c-0.331,0.094-0.662,0.284-1.023,0.284c0-0.049-0.048-0.049-0.048-0.049
				c0.236-0.063,0.425-0.219,0.553-0.441l-0.128-0.298c0.205-0.3,0.646-0.016,0.789-0.504c0,0.046,0.078,0.109,0.11,0.063
				c0.032,0.047,0.109,0.016,0.19-0.032c0.597-0.347,0.976-0.946,1.479-1.434c0.253,0.063,0.394-0.426,0.616-0.537l-0.065-0.047
				l0.065,0.047c0.706-0.834,1.936-1.717,2.551-2.694l-0.063-0.157c-0.473,0.551-1.055,0.992-1.45,1.497
				c-0.379,0.236-0.725,0.615-0.945,1.041c-0.03-0.048-0.063-0.142-0.143-0.111c-0.031,0.047-0.108,0.095-0.108,0.174
				c-0.709,0.614-1.389,1.559-2.033,2.033c0.866-1.103,1.764-1.97,2.584-3.215l0.063,0.111c0.394-0.473,0.804-0.978,1.166-1.528
				l0.033,0.046c0.251-0.473,0.629-0.756,0.942-1.134c0.333,0.08,0.19-0.583,0.491-0.646c0.094-0.252,0.283-0.425,0.582-0.472
				c0.205-0.347,0.3-0.709,0.631-0.897c0.063,0.141,0.156,0.015,0.236-0.064c0.03-0.094,0.188-0.221,0.093-0.362l-0.078-0.016
				c0.126-0.125,0.205-0.394,0.363-0.457c0.03,0.094-0.11,0.126-0.016,0.221c0.536-0.441,0.771-1.103,1.276-1.654
				c0.408-0.678,0.865-1.466,1.387-2.191c0.078-0.41,0.394-0.961,0.694-1.072c0.203-0.803,0.865-1.323,1.101-2.08l0.221-0.126
				c-0.11,0-0.063-0.189-0.016-0.268c0.032,0,0.11,0.016,0.19-0.031c-0.128-0.284,0.095-0.394,0.141-0.583
				c0.189-0.016-0.016-0.189,0.127-0.299c0.313-0.3,0.457-0.741,0.693-1.04c1.654-2.159,2.693-4.711,4.08-7.232
				c0.017-0.316,0.143-0.537,0.065-0.82c0.124-0.441,0.485-0.457,0.755-0.646C215.044,9.278,215.594,9.025,215.737,9.719z
				 M211.104,26.217c0.314,0.141,0.205-0.347,0.363-0.458C211.339,25.934,211.198,26.043,211.104,26.217z M202.373,29.684
				c-0.126,0.221-0.329,0.52-0.52,0.631c-0.096,0.268-0.458,0.362-0.347,0.709l0.709-0.709c-0.015-0.284,0.348-0.331,0.3-0.615
				L202.373,29.684z M237.922,37.688c0.126,0.378,0.521,0.472,0.804,0.599C238.442,38.067,238.207,37.893,237.922,37.688z"/>
			<path fill="#2B2A29" d="M145.899,8.285c0.346,0.267,0.817,0.74,1.07,1.229c0.379,0.331,0.584,1.039,0.694,1.56
				c-0.095,0.173,0.11,0.425-0.078,0.599c0.108,0.52,0.204,0.757,0.236,1.308c-0.08,0.047-0.158,0.078-0.19,0.126
				c0.047,0.142,0.017,0.221,0,0.362c1.213,0.836,2.349,1.797,3.263,3.104c0.235,0.851,0.883,1.307,1.275,1.954
				c0.6,1.167,1.607,2.348,2.428,3.183l-0.016,0.095c0.74,0.866,1.559,1.969,2.427,2.726l-0.048,0.126
				c0.378,0.236,0.488,0.803,0.945,0.898c0.157,0.346,0.474,0.567,0.709,0.819c0.078,0.378,0.457,0.236,0.52,0.662
				c0.158-0.079,0.221,0.079,0.221,0.158c0.646,0.536,0.897,1.071,1.545,1.623c0.472,0.409,0.739,0.866,1.181,1.197
				c0.063,0.283,0.284,0.205,0.41,0.315c0.378,0.409,0.709,0.866,1.167,1.103c0,0.426,0.504,0.52,0.692,0.867
				c0.521-0.172,0.867,0.521,1.213,0.788c0.111-0.03,0.253,0.127,0.237,0.253c0.631,0.867,1.433,1.229,2.032,2.128
				c0.314,0.456,0.804,0.739,1.183,1.071c-0.174,0.441,0.314,0.268,0.441,0.505c-0.221-0.017-0.426-0.19-0.567-0.158
				c0.077,0.473,1.243,0.379,0.534,1.134c-0.329,0.552-0.787-0.598-0.913,0.111c-0.315-0.252-0.693-0.537-1.056-0.583
				c-0.079,0.095-0.047,0.237-0.094,0.314l0.172,0.158c-0.378-0.221-1.04-0.582-1.4-1.087c-0.254-0.017-0.396-0.221-0.584-0.109
				c0.221,0.488,0.708,0.692,1.103,0.961c-0.378,0.046-0.662-0.49-1.072-0.347c-0.188,0.062-0.361-0.473-0.534-0.206l0.109,0.142
				l-0.362-0.03c0.205,0.251-0.313,0.235-0.188,0.488c-0.095-0.063-0.348-0.046-0.426,0.031c-0.143,0.316-0.315,0.253-0.52,0.506
				c-0.347-0.048-0.458,0.488-0.819,0.314c-0.175-0.063-0.379,0.284-0.488-0.109c-0.63,0.158-0.979-0.521-1.577-0.362
				c-0.268-0.253-0.599-0.71-0.96-0.757c-0.269,0.111-0.253-0.441-0.521-0.283c-0.236-0.725-0.773-0.93-1.056-1.559
				c-0.253-0.441-0.678-1.057-1.104-1.277c0-0.426-0.361-0.551-0.582-0.946c-0.252,0.016-0.299-0.409-0.582-0.535
				c-0.221-0.348-0.409-0.741-0.726-1.01c-0.599-0.755-1.37-1.543-1.97-2.395c-0.41-0.835-0.899-1.669-1.419-2.521
				c0.063-0.221-0.109-0.331-0.22-0.489c-1.245-2.301-2.379-4.696-3.372-7.453c-0.584-1.025-1.245-2.396-2.317-2.616
				c-0.457,0.268-0.472,0.867-0.646,1.355c-0.172,0.3-0.235,0.756-0.298,1.119c-0.095,0.221-0.396-0.047-0.411,0.236
				c0.03,0.095,0.063,0.095,0.126,0.143l-0.283,0.441c0.016-0.095-0.063-0.11-0.094-0.11c0.046,0.33-0.157,0.629-0.285,0.85
				c-0.125,0.158-0.205-0.125-0.299,0.094c-0.047,0.221,0.063,0.236-0.143,0.41c0.016-0.047,0.016-0.047-0.03-0.063
				c-0.032,0-0.032,0.095-0.048,0.142c0,0.094,0.078,0.094,0.078,0.094c-0.03,0.331-0.346,0.662-0.362,1.024
				c-0.251-0.031-0.141,0.441-0.394,0.316l-0.174,0.44c-0.172-0.189-0.204,0.221-0.283,0.3c-0.063,0.362-0.313,0.425-0.409,0.835
				c-0.19,0.425-0.427,0.867-0.679,1.261l-0.11-0.015c0.018-0.143,0.018-0.284,0-0.379c-0.409,0.095-0.363,0.835-0.725,0.977
				c-0.157,0.031-0.095,0.221-0.205,0.204h-0.03c-0.158,0.269-0.395,0.505-0.662,0.709c-0.205,0.678-0.709,0.757-1.009,1.324
				c-0.553,0.158-0.553,1.087-1.102,1.15c-0.127,0.221-0.381,0.331-0.506,0.505c-0.188,0.157-0.394,0.551-0.646,0.52
				c-0.991,1.135-2.111,1.56-3.057,2.505c-0.615,0.488-1.15,0.883-1.859,1.182c-0.566,0.394-1.308,0.488-1.97,0.739
				c-0.487,0.127-0.866,0.441-1.417,0.427c0.095-0.127,0.268-0.111,0.455-0.127c0.6-0.346,1.45-0.472,2.065-1.008
				c-0.283-0.173-0.63,0.063-0.883,0.173h-0.031c0.11-0.173,0.41-0.237,0.457-0.458c-0.221-0.393-0.504,0.033-0.803,0.047
				c-0.884,0.725-1.939,0.836-2.68,1.577c-0.33,0.109-0.677,0.3-1.039,0.3c0-0.049-0.032-0.049-0.032-0.049
				c0.22-0.063,0.409-0.236,0.536-0.441l-0.127-0.298c0.204-0.3,0.662-0.016,0.804-0.504c0,0.046,0.063,0.093,0.111,0.061
				c0.031,0.048,0.094,0,0.173-0.03c0.614-0.347,0.977-0.946,1.481-1.45c0.251,0.079,0.393-0.41,0.615-0.521l-0.064-0.063
				l0.064,0.063c0.725-0.851,1.937-1.717,2.552-2.71l-0.063-0.142c-0.473,0.552-1.039,0.977-1.45,1.498
				c-0.379,0.221-0.725,0.599-0.945,1.041c-0.03-0.048-0.063-0.144-0.125-0.112c-0.047,0.047-0.127,0.079-0.127,0.174
				c-0.693,0.614-1.386,1.544-2.031,2.033c0.882-1.103,1.779-1.97,2.583-3.215l0.063,0.095c0.408-0.457,0.803-0.961,1.166-1.529
				l0.032,0.063c0.251-0.488,0.644-0.772,0.961-1.15c0.314,0.094,0.189-0.567,0.473-0.631c0.095-0.267,0.283-0.425,0.582-0.489
				c0.205-0.346,0.301-0.693,0.646-0.897c0.063,0.157,0.143,0.016,0.221-0.063c0.047-0.078,0.188-0.205,0.095-0.362h-0.063
				c0.11-0.125,0.205-0.394,0.346-0.473c0.031,0.095-0.11,0.126-0.015,0.236c0.551-0.44,0.771-1.118,1.291-1.653
				c0.409-0.693,0.867-1.466,1.387-2.191c0.063-0.41,0.393-0.977,0.693-1.072c0.205-0.803,0.852-1.339,1.087-2.095l0.222-0.111
				c-0.095-0.016-0.048-0.189-0.018-0.284c0.048,0.016,0.112,0.016,0.19-0.015c-0.128-0.299,0.096-0.41,0.158-0.583
				c0.172-0.031-0.032-0.189,0.125-0.315c0.316-0.284,0.456-0.725,0.693-1.024c1.64-2.16,2.696-4.711,4.064-7.233
				c0.033-0.331,0.158-0.536,0.065-0.819c0.14-0.458,0.503-0.458,0.771-0.662C145.206,7.844,145.773,7.576,145.899,8.285z
				 M141.282,24.783c0.314,0.126,0.205-0.347,0.347-0.473C141.519,24.483,141.36,24.609,141.282,24.783z M132.536,28.25
				c-0.126,0.221-0.33,0.521-0.521,0.63c-0.077,0.269-0.456,0.363-0.33,0.693l0.693-0.693c-0.015-0.284,0.361-0.331,0.299-0.615
				L132.536,28.25z M168.101,36.239c0.11,0.393,0.504,0.472,0.789,0.599C168.621,36.632,168.369,36.459,168.101,36.239z"/>
			<path fill="#2B2A29" d="M196.26,7.528c1.023,0.299,1.386,1.167,3.561,0.961c1.971,0.458,0.127,1.591,0.646,2.333
				c-1.072,0.472,0.206,0.755-1.229,1.15c-1.417,0.173-2.442,0.882-3.797,1.197c-3.641,1.151-7.106,2.49-10.4,3.893
				c-0.11-0.236,1.859-0.788,2.175-1.197c-1.088,0.109-1.89,0.693-2.979,0.787c-2.205,0.867-4.35,1.56-6.933,2.301
				c-0.41,0.11-0.614,0.362-1.04,0.347l-0.064-0.016c-0.502,0.236-1.101,0.362-1.622,0.441c0-0.221-0.804-0.047-1.291-0.063
				c-0.458,0.268-0.82,0.22-1.245,0.205c-1.766,0.063-3.025,0.756-4.538,1.198c-0.599,0.299-1.64,0.457-2.176,0.788
				c-0.314,0.032-0.771,0.063-1.007,0.252c0.63-0.425-0.474-0.693,0.409-1.15c0.661-0.331,0.945-0.804,1.544-1.151
				c1.529-0.094,1.496-0.803,2.363-1.229c1.56-0.803,3.546-1.606,5.106-2.411c0.977-0.158,0.677-0.41,1.496-0.646
				c1.765-0.835,2.884-1.435,4.728-2.206c2.173-0.552,3.514-1.481,5.326-2.127c1.039-0.347,2.206-1.104,3.672-1.418
				c0.96-0.284,1.48-0.568,2.095-0.93c0.552-0.158,1.308-0.41,1.575-0.662c0.458-0.251,1.292-0.583,1.954-0.709
				C195.455,7.292,195.394,7.671,196.26,7.528z"/>
			<path fill="#2B2A29" d="M160.458,22.293c0.489-0.016,0.175-0.269,0.348-0.379C160.696,22.042,160.522,22.168,160.458,22.293z"/>
			<path fill="#2B2A29" d="M182.818,18.023c0.945,0.662,1.953,1.355,2.994,2.017c0.22,0.331,0.631,0.489,0.631,0.835
				c0.504,0.614,0.835,1.324,0.74,2.048c-0.489,0.678,0.172,1.198-0.583,1.765c-0.189,0.031-0.142,0.205-0.362,0.236
				c-0.126,0.851-0.773,1.56-0.755,2.41c-0.758,1.97-1.467,4.223-1.136,6.32c0.945-0.569,1.732-1.262,2.504-2.002
				c0.065-0.079-0.015-0.188,0.158-0.142c0.489-0.362,0.835-0.788,1.15-1.197c-0.143,0.472-0.63,0.881-0.552,1.323
				c-0.063,0.111-0.142,0.204-0.157,0.378c0.378,0.221-0.426,0.411-0.096,0.694c-0.299,0.724-0.676,1.45-0.739,2.174
				c-0.315,0.251,0.11,0.614-0.157,0.914c0.268,0.048-0.204,0.537,0.204,0.332c-0.017,0.156-0.331,0.251-0.252,0.377
				c0.064,0.095-0.048,0.362,0.283,0.378c0.269,0.458-0.314,1.182,0.064,1.638c-0.096,0.411,0.173,0.883-0.41,1.15
				c-0.395,0.299-0.884,0.332-1.292,0.584c-1.057,0.188-2.16,0.14-3.025-0.362c-0.897-0.632-1.813-1.183-2.712-1.766
				c-0.802-0.693-0.157-1.813-0.787-2.6c-0.22-1.246-0.473-2.474-0.363-3.829c-0.093-2.034,0.537-4.287,1.104-6.35
				c-0.016-0.143,0.032-0.363,0.175-0.521c0.158-0.694,0.395-1.418,0.457-2.112c0.156-0.047,0.015-0.11,0.173-0.142
				c0.378-0.945,0.425-2.08,0.804-2.978c0.016-0.158-0.268-0.362-0.109-0.504c-0.301-0.426-0.349-0.946-0.27-1.386
				c-0.125-0.268,0.048-0.521,0.126-0.741C181.164,17.519,182.235,17.503,182.818,18.023z"/>
			<path fill="#2B2A29" d="M104.63,20.04c3.372,2.064,4.837,5.83,7.958,8.163l-0.032,0.11c2.175,1.119,3.515,4.034,5.862,5.089
				c0.016,0.425,4.665,3.513,5.09,4.224c-0.19-0.017-0.363-0.127-0.488-0.111c0.063,0.346,1.087,0.284,0.456,0.852
				c-0.252,0.362-1.307-0.316-1.718-0.348c-0.063,0.064-0.047,0.158-0.079,0.237l0.143,0.111c-0.314-0.158-1.419-1.073-1.733-0.899
				c0.19,0.362,0.631,0.521,0.962,0.725c-0.253,0.031-1.325-0.536-1.403-0.425l0.095,0.11l-0.316-0.031
				c0.174,0.205-0.267,0.189-0.156,0.377c-0.332-0.157-1.781,1.166-1.986,0.568c-2.6,0.551-8.335-7.752-9.391-9.139
				c-1.324-2.112-2.191-5.609-4.224-7.217C104.047,21.631,104.268,20.828,104.63,20.04z M122.325,37.026
				c0.095,0.284,0.441,0.363,0.694,0.458L122.325,37.026z"/>
			<path fill="#2B2A29" d="M105.639,16.889c0.158,0.031,0.125-0.252,0.314-0.189c0.662-0.867,1.765-1.812,2.6-2.726
				c0.237-0.41,0.647-0.805,0.994-1.135c0.205-0.236,0.346-0.473,0.52-0.631c0.425-0.488,0.897-1.071,1.355-1.591
				c0.016-0.252-0.111-0.505,0.142-0.74c0.299-0.347,0.757-0.394,1.103-0.583c0.205-0.048,0.362-0.189,0.583-0.315
				c0.331-0.158,0.788-0.126,1.119-0.205c0.552-0.142,0.992-0.095,1.544-0.173c0.031,0.031,0.016,0.047,0.016,0.11
				c0.945-0.284,1.654,0.126,2.489,0.173c0.362,0.11,0.868,0.3,0.978,0.756c-0.126,0.804-0.378,1.781-0.49,2.679
				c-0.142,0.048-0.267,0.158-0.362,0.252c0.016,0.362-0.251,0.473-0.267,0.804c-0.235,0.125-0.3,0.489-0.41,0.74
				c-0.125,0.253-0.188,0.536-0.504,0.646c-0.441,0.031-0.615,0.914-1.136,0.74c-0.093,0.142-0.393,0.285-0.361,0.489
				c0.172-0.252-0.285-0.158-0.253-0.425c-0.316,0.031-0.425,0.409-0.662,0.614c-0.253,0.079-0.314,0.394-0.425,0.614
				c-0.314,0.41-0.614,0.882-0.82,1.261c0.568-1.607,0.583-3.514,0.111-5.074c-0.882,0.693-1.64,1.623-2.379,2.237
				c-0.615,0.378-1.089,1.166-1.656,1.56c-0.472,0.614-1.197,1.213-1.654,1.828c-1.797,1.875-3.404,3.924-4.933,5.988
				c-0.535,0.945-1.213,1.97-2.395,2.175l-2.647-0.834c0.82-0.883,1.276-1.891,2.064-2.79c0.662-0.851,1.386-1.686,2.112-2.474
				L105.639,16.889z"/>
			<path fill="#2B2A29" d="M92.97,38.934c-0.789-3.562,0.456-6.508,0.11-10.164l0.079-0.047c-0.016-1.182,0.063-2.584-0.142-3.766
				l0.142-0.047c-1.087-2.805,0.3-7.029-1.009-9.896c0.237-0.206-1.275-7.548-1.071-8.383c0.189,0.189,0.251,0.457,0.41,0.567
				C91.771,6.819,90.638,5.953,91.851,6c0.992-0.158,0.757,1.985,1.78,1.733L93.6,7.497c0.172,0.441,0.441,2.253,0.913,2.38
				c0.158-0.505-0.142-1.025-0.284-1.513c0.19,0.125,0.883,1.654,1.041,1.638l0.031-0.173l0.3,0.3
				c0.016-0.772,3.262,0.977,3.199,1.103c2.285,1.292,1.64,10.825,1.387,13.362c-1.072,3.735-1.687,7.264-3.341,11.03
				c-0.536,2.427-0.788,2.443-2.837,3.987C93.709,39.327,93.347,39.09,92.97,38.934z"/>
			<g>
				<path fill="#2B2A29" d="M200.956,49.57c-44.563-0.679-92.701,3.071-98.595,3.402c-3.75,0.096-5.121,0.867-5.72,1.072
					c37.629-3.15,66.923-4.129,104.315-3.672l0.03,0.677c-37.232-0.534-71.585,0.506-108.379,3.973
					c0.519-1.151,1.875-2.081,4.931-3.027c5.722-0.881,59.045-5.137,103.527-4.111C201.003,48.436,200.956,49.002,200.956,49.57z"/>
				<defs>
					<filter id="Adobe_OpacityMaskFilter" filterUnits="userSpaceOnUse" x="92.607" y="47.726" width="108.458" height="7.297">
						<feColorMatrix  type="matrix" values="1 0 0 0 0  0 1 0 0 0  0 0 1 0 0  0 0 0 1 0"/>
					</filter>
				</defs>
				<mask maskUnits="userSpaceOnUse" x="92.607" y="47.726" width="108.458" height="7.297" id="id0_1_">
					
						<linearGradient id="SVGID_1_" gradientUnits="userSpaceOnUse" x1="15982.5625" y1="-10652.3105" x2="15982.5625" y2="-10814.6533" gradientTransform="matrix(0.0279 0 0 -0.0279 -299.7798 -249.1173)">
						<stop  offset="0" style="stop-color:#FFFFFF"/>
						<stop  offset="1" style="stop-color:#FFFFFF;stop-opacity:0"/>
					</linearGradient>
					<rect x="92.45" y="47.567" fill="url(#SVGID_1_)" filter="url(#Adobe_OpacityMaskFilter)" width="108.79" height="7.628"/>
				</mask>
				<path mask="url(#id0_1_)" fill="#2B2A29" d="M200.956,49.57c-44.563-0.679-92.701,3.071-98.595,3.402
					c-3.75,0.096-5.121,0.867-5.72,1.072c37.629-3.15,66.923-4.129,104.315-3.672l0.03,0.677
					c-37.232-0.534-71.585,0.506-108.379,3.973c0.519-1.151,1.875-2.081,4.931-3.027c5.722-0.881,59.045-5.137,103.527-4.111
					C201.003,48.436,200.956,49.002,200.956,49.57z"/>
				<path fill="#2B2A29" d="M199.395,45.646l-0.157,7.548c0.378,0.521,1.528,0.6,2.002,0.143l0.313-1.953
					c11.772,0.046,23.984,0.834,35.929,1.748c2.127-0.395,2.095-1.86,0.521-2.506c-12.372-1.543-24.001-2.396-36.023-2.899
					c-0.252-0.63-0.141-1.229-0.377-1.859C201.034,45.237,199.916,45.125,199.395,45.646z M233.825,51.445l0.662,1.213l0.677-1.15
					l-0.645-1.071L233.825,51.445z M232.155,51.303l0.662,1.198l0.678-1.151l-0.647-1.055L232.155,51.303z M230.533,51.098
					l0.66,1.213l0.679-1.149l-0.646-1.071L230.533,51.098z M228.861,50.957l0.662,1.196l0.678-1.149l-0.646-1.055L228.861,50.957z
					 M227.255,50.799l0.662,1.196l0.677-1.134l-0.646-1.07L227.255,50.799z M225.474,50.704l0.741,1.355l0.772-1.293l-0.725-1.196
					L225.474,50.704z M223.646,50.563l0.74,1.354l0.773-1.292l-0.726-1.197L223.646,50.563z M221.771,50.42l0.741,1.354l0.756-1.291
					l-0.725-1.197L221.771,50.42z M219.833,50.311l0.757,1.449l0.757-1.372l-0.742-1.291L219.833,50.311z M217.847,50.216
					l0.758,1.45l0.756-1.388l-0.74-1.276L217.847,50.216z M215.862,50.074l0.74,1.449l0.756-1.387l-0.724-1.275L215.862,50.074z
					 M213.925,49.979l0.757,1.449l0.755-1.387l-0.741-1.276L213.925,49.979z M211.938,49.869l0.758,1.449l0.757-1.369l-0.742-1.278
					L211.938,49.869z M209.952,49.774l0.757,1.45l0.758-1.371l-0.742-1.292L209.952,49.774z M208.03,49.711l0.741,1.45l0.755-1.37
					l-0.723-1.278L208.03,49.711z M206.093,49.616l0.757,1.45l0.756-1.371l-0.741-1.292L206.093,49.616z M204.17,49.521l0.741,1.451
					l0.756-1.387l-0.74-1.278L204.17,49.521z M202.279,49.507l0.757,1.45l0.756-1.387l-0.74-1.278L202.279,49.507z"/>
			</g>
			<path fill="#2B2A29" d="M91.82,63.105h0.724v2.362l2.616-2.362h0.994l-2.837,2.569l3.058,3.041h-1.024l-2.583-2.585l-0.222,0.189
				v2.396H91.82V63.105z M102.723,63.105v5.61h-0.708v-0.962c-0.316,0.378-0.646,0.646-1.025,0.834
				c-0.378,0.175-0.787,0.27-1.229,0.27c-0.804,0-1.482-0.285-2.033-0.868c-0.567-0.567-0.851-1.259-0.851-2.094
				c0-0.804,0.283-1.498,0.851-2.065c0.566-0.566,1.245-0.866,2.049-0.866c0.456,0,0.866,0.109,1.243,0.3
				c0.379,0.188,0.711,0.487,0.994,0.883v-1.041H102.723z M99.84,63.673c-0.411,0-0.788,0.095-1.12,0.283
				c-0.347,0.206-0.614,0.474-0.819,0.835c-0.189,0.363-0.299,0.74-0.299,1.135s0.11,0.771,0.314,1.134
				c0.19,0.348,0.474,0.632,0.804,0.836c0.346,0.204,0.708,0.3,1.103,0.3c0.394,0,0.772-0.096,1.12-0.3
				c0.361-0.204,0.63-0.474,0.818-0.804c0.19-0.346,0.284-0.725,0.284-1.15c0-0.646-0.205-1.182-0.646-1.623
				C100.974,63.877,100.454,63.673,99.84,63.673z M105.292,65.452h0.377c0.253,0,0.474-0.077,0.678-0.235s0.299-0.379,0.299-0.678
				c0-0.252-0.079-0.456-0.237-0.646c-0.173-0.172-0.425-0.268-0.755-0.268c-0.394,0-0.789,0.158-1.182,0.458l-0.409-0.506
				c0.504-0.424,1.039-0.63,1.622-0.63c0.472,0,0.867,0.142,1.182,0.41c0.314,0.285,0.472,0.646,0.472,1.088
				c0,0.566-0.251,0.977-0.771,1.181c0.678,0.284,1.008,0.771,1.008,1.481c0,0.442-0.158,0.852-0.474,1.213
				c-0.314,0.363-0.788,0.537-1.417,0.537c-0.771,0-1.387-0.253-1.859-0.741l0.456-0.504c0.348,0.377,0.788,0.583,1.34,0.583
				c0.378,0,0.662-0.096,0.866-0.3c0.221-0.189,0.316-0.458,0.316-0.771c0-0.315-0.095-0.568-0.316-0.757
				c-0.205-0.188-0.457-0.283-0.741-0.283h-0.456V65.452z M114.416,63.105v5.61h-0.71v-0.962c-0.314,0.378-0.646,0.646-1.023,0.834
				c-0.378,0.175-0.789,0.27-1.229,0.27c-0.805,0-1.482-0.285-2.034-0.868c-0.567-0.567-0.851-1.259-0.851-2.094
				c0-0.804,0.284-1.498,0.851-2.065c0.566-0.566,1.245-0.866,2.048-0.866c0.458,0,0.882,0.109,1.246,0.3
				c0.378,0.188,0.708,0.487,0.992,0.883v-1.041H114.416z M111.531,63.673c-0.409,0-0.771,0.095-1.118,0.283
				c-0.346,0.206-0.615,0.474-0.804,0.835c-0.204,0.363-0.315,0.74-0.315,1.135s0.111,0.771,0.315,1.134
				c0.205,0.348,0.472,0.632,0.82,0.836c0.331,0.204,0.693,0.3,1.086,0.3c0.395,0,0.773-0.096,1.12-0.3
				c0.362-0.204,0.629-0.474,0.82-0.804c0.188-0.346,0.283-0.725,0.283-1.15c0-0.646-0.204-1.182-0.631-1.623
				C112.683,63.877,112.146,63.673,111.531,63.673z M115.408,63.105h0.867l1.496,2.049l1.482-2.049h0.85l-1.891,2.646l2.158,2.964
				h-0.881l-1.719-2.364l-1.701,2.364h-0.851l2.126-2.964L115.408,63.105z M126.581,64.271l-0.568,0.362
				c-0.505-0.662-1.181-0.991-2.033-0.991c-0.692,0-1.26,0.22-1.717,0.659c-0.456,0.443-0.677,0.978-0.677,1.608
				c0,0.41,0.093,0.787,0.314,1.149c0.206,0.362,0.487,0.632,0.85,0.836s0.771,0.3,1.229,0.3c0.819,0,1.496-0.332,2.033-0.992
				l0.568,0.377c-0.27,0.409-0.632,0.725-1.088,0.945c-0.457,0.221-0.961,0.332-1.545,0.332c-0.898,0-1.638-0.285-2.223-0.836
				c-0.581-0.566-0.88-1.261-0.88-2.063c0-0.536,0.142-1.04,0.425-1.513c0.267-0.457,0.646-0.82,1.117-1.088
				c0.489-0.252,1.025-0.394,1.609-0.394c0.377,0,0.739,0.063,1.086,0.173c0.348,0.11,0.646,0.268,0.882,0.44
				C126.202,63.768,126.407,63.988,126.581,64.271z M127.336,63.105h3.704v0.63h-1.497v4.98h-0.725v-4.98h-1.482V63.105z
				 M137.61,63.105v5.61h-0.725v-0.962c-0.301,0.378-0.646,0.646-1.01,0.834c-0.378,0.175-0.787,0.27-1.244,0.27
				c-0.788,0-1.465-0.285-2.033-0.868c-0.551-0.567-0.834-1.259-0.834-2.094c0-0.804,0.283-1.498,0.851-2.065
				c0.566-0.566,1.245-0.866,2.048-0.866c0.458,0,0.867,0.109,1.246,0.3c0.362,0.188,0.692,0.487,0.977,0.883v-1.041H137.61z
				 M134.71,63.673c-0.393,0-0.771,0.095-1.103,0.283c-0.347,0.206-0.614,0.474-0.819,0.835c-0.206,0.363-0.299,0.74-0.299,1.135
				s0.093,0.771,0.299,1.134c0.205,0.348,0.473,0.632,0.819,0.836c0.348,0.204,0.71,0.3,1.103,0.3c0.395,0,0.773-0.096,1.12-0.3
				s0.63-0.474,0.82-0.804c0.188-0.346,0.283-0.725,0.283-1.15c0-0.646-0.221-1.182-0.647-1.623
				C135.86,63.877,135.342,63.673,134.71,63.673z M143.236,66.021h-3.277v2.694h-0.725v-5.61h0.725v2.237h3.277v-2.237h0.724v5.61
				h-0.724V66.021z M151.021,64.271l-0.568,0.362c-0.504-0.662-1.182-0.991-2.049-0.991c-0.676,0-1.243,0.22-1.701,0.659
				c-0.457,0.443-0.693,0.978-0.693,1.608c0,0.41,0.109,0.787,0.315,1.149c0.221,0.362,0.505,0.632,0.866,0.836
				c0.363,0.204,0.772,0.3,1.23,0.3c0.819,0,1.496-0.332,2.031-0.992l0.568,0.377c-0.269,0.409-0.631,0.725-1.088,0.945
				c-0.456,0.221-0.977,0.332-1.544,0.332c-0.897,0-1.64-0.285-2.222-0.836c-0.584-0.566-0.884-1.261-0.884-2.063
				c0-0.536,0.143-1.04,0.411-1.513c0.283-0.457,0.662-0.82,1.135-1.088c0.487-0.252,1.023-0.394,1.607-0.394
				c0.378,0,0.74,0.063,1.087,0.173s0.63,0.268,0.883,0.44C150.643,63.768,150.848,63.988,151.021,64.271z M152.406,63.105h0.709
				v2.362l2.615-2.362h0.993l-2.835,2.569l3.072,3.041h-1.025l-2.584-2.585l-0.236,0.189v2.396h-0.709V63.105z M163.312,63.105v5.61
				h-0.725v-0.962c-0.3,0.378-0.647,0.646-1.024,0.834c-0.362,0.175-0.789,0.27-1.229,0.27c-0.788,0-1.465-0.285-2.033-0.868
				c-0.567-0.567-0.835-1.259-0.835-2.094c0-0.804,0.283-1.498,0.85-2.065c0.554-0.566,1.246-0.866,2.033-0.866
				c0.474,0,0.883,0.109,1.261,0.3c0.363,0.188,0.693,0.487,0.979,0.883v-1.041H163.312z M160.41,63.673
				c-0.408,0-0.771,0.095-1.117,0.283c-0.332,0.206-0.6,0.474-0.804,0.835c-0.205,0.363-0.3,0.74-0.3,1.135s0.095,0.771,0.3,1.134
				c0.204,0.348,0.472,0.632,0.82,0.836c0.346,0.204,0.708,0.3,1.101,0.3c0.396,0,0.757-0.096,1.12-0.3
				c0.346-0.204,0.614-0.474,0.82-0.804c0.188-0.346,0.283-0.725,0.283-1.15c0-0.646-0.221-1.182-0.646-1.623
				C161.563,63.877,161.042,63.673,160.41,63.673z M167.313,66.209h-0.521l-1.604,2.507h-0.79l1.702-2.569
				c-0.425-0.047-0.756-0.221-1.024-0.488c-0.267-0.253-0.394-0.6-0.394-0.992c0-0.489,0.158-0.883,0.458-1.15
				c0.299-0.269,0.692-0.41,1.181-0.41h1.718v5.61h-0.726V66.209z M167.313,63.735h-0.471c-0.473,0-0.79,0.032-0.947,0.078
				c-0.157,0.063-0.283,0.158-0.378,0.3s-0.142,0.347-0.142,0.584c0,0.236,0.063,0.425,0.188,0.566
				c0.111,0.158,0.253,0.236,0.411,0.283c0.141,0.033,0.425,0.049,0.867,0.049h0.471V63.735z M178.154,63.105v5.61h-0.71v-0.962
				c-0.313,0.378-0.646,0.646-1.022,0.834c-0.381,0.175-0.789,0.27-1.229,0.27c-0.807,0-1.482-0.285-2.035-0.868
				c-0.566-0.567-0.849-1.259-0.849-2.094c0-0.804,0.282-1.498,0.849-2.065c0.569-0.566,1.246-0.866,2.049-0.866
				c0.458,0,0.884,0.109,1.245,0.3c0.379,0.188,0.709,0.487,0.992,0.883v-1.041H178.154z M175.271,63.673
				c-0.41,0-0.771,0.095-1.12,0.283c-0.345,0.206-0.612,0.474-0.802,0.835c-0.205,0.363-0.315,0.74-0.315,1.135
				s0.11,0.771,0.315,1.134c0.204,0.348,0.472,0.632,0.82,0.836c0.33,0.204,0.691,0.3,1.087,0.3c0.394,0,0.771-0.096,1.118-0.3
				c0.361-0.204,0.63-0.474,0.819-0.804c0.189-0.346,0.284-0.725,0.284-1.15c0-0.646-0.206-1.182-0.63-1.623
				C176.422,63.877,175.886,63.673,175.271,63.673z M185.245,64.271l-0.566,0.362c-0.506-0.662-1.183-0.991-2.049-0.991
				c-0.679,0-1.245,0.22-1.703,0.659c-0.456,0.443-0.677,0.978-0.677,1.608c0,0.41,0.095,0.787,0.3,1.149
				c0.222,0.362,0.504,0.632,0.865,0.836c0.363,0.204,0.774,0.3,1.229,0.3c0.82,0,1.497-0.332,2.034-0.992l0.566,0.377
				c-0.269,0.409-0.629,0.725-1.087,0.945c-0.457,0.221-0.961,0.332-1.545,0.332c-0.898,0-1.638-0.285-2.222-0.836
				c-0.583-0.566-0.882-1.261-0.882-2.063c0-0.536,0.142-1.04,0.409-1.513c0.285-0.457,0.662-0.82,1.135-1.088
				c0.489-0.252,1.023-0.394,1.608-0.394c0.377,0,0.74,0.063,1.086,0.173c0.348,0.11,0.631,0.268,0.883,0.44
				C184.867,63.768,185.072,63.988,185.245,64.271z M192.083,64.271l-0.566,0.362c-0.504-0.662-1.183-0.991-2.033-0.991
				c-0.691,0-1.261,0.22-1.717,0.659c-0.457,0.443-0.678,0.978-0.678,1.608c0,0.41,0.095,0.787,0.315,1.149
				c0.204,0.362,0.488,0.632,0.851,0.836s0.773,0.3,1.229,0.3c0.82,0,1.497-0.332,2.033-0.992l0.566,0.377
				c-0.267,0.409-0.629,0.725-1.086,0.945c-0.458,0.221-0.961,0.332-1.546,0.332c-0.897,0-1.638-0.285-2.221-0.836
				c-0.584-0.566-0.882-1.261-0.882-2.063c0-0.536,0.142-1.04,0.426-1.513c0.268-0.457,0.645-0.82,1.118-1.088
				c0.488-0.252,1.024-0.394,1.606-0.394c0.378,0,0.742,0.063,1.088,0.173s0.646,0.268,0.882,0.44
				C191.705,63.768,191.911,63.988,192.083,64.271z M196.135,62.964c0.865,0,1.591,0.314,2.158,0.945
				c0.521,0.567,0.771,1.245,0.771,2.017c0,0.787-0.267,1.466-0.82,2.049c-0.55,0.598-1.261,0.883-2.109,0.883
				c-0.866,0-1.577-0.285-2.113-0.883c-0.551-0.583-0.818-1.262-0.818-2.049c0-0.771,0.251-1.449,0.771-2.017
				C194.542,63.278,195.269,62.964,196.135,62.964z M196.135,63.673c-0.6,0-1.119,0.22-1.546,0.661
				c-0.44,0.441-0.646,0.979-0.646,1.607c0,0.41,0.096,0.789,0.282,1.135c0.206,0.346,0.474,0.615,0.806,0.803
				c0.33,0.189,0.693,0.301,1.104,0.301c0.393,0,0.771-0.111,1.102-0.301c0.332-0.188,0.6-0.457,0.788-0.803
				c0.204-0.346,0.3-0.725,0.3-1.135c0-0.629-0.221-1.166-0.646-1.607C197.236,63.893,196.732,63.673,196.135,63.673z
				 M205.651,68.716h-5.262v-5.61h0.725v4.932h3.26v-4.932h0.727v4.932h1.229v1.576h-0.679V68.716z M208.015,63.105v4.16l4.128-4.16
				h0.063v5.61h-0.725v-4.114l-4.097,4.114h-0.095v-5.61H208.015z M219.407,63.105v5.61h-0.725v-0.962
				c-0.3,0.378-0.632,0.646-1.008,0.834c-0.378,0.175-0.789,0.27-1.246,0.27c-0.787,0-1.466-0.285-2.032-0.868
				c-0.551-0.567-0.835-1.259-0.835-2.094c0-0.804,0.284-1.498,0.851-2.065c0.567-0.566,1.245-0.866,2.05-0.866
				c0.456,0,0.865,0.109,1.244,0.3c0.377,0.188,0.693,0.487,0.977,0.883v-1.041H219.407z M216.508,63.673
				c-0.393,0-0.771,0.095-1.102,0.283c-0.348,0.206-0.615,0.474-0.819,0.835c-0.205,0.363-0.301,0.74-0.301,1.135
				s0.096,0.771,0.301,1.134c0.204,0.348,0.472,0.632,0.819,0.836c0.346,0.204,0.709,0.3,1.102,0.3c0.396,0,0.771-0.096,1.12-0.3
				c0.362-0.204,0.629-0.474,0.818-0.804c0.189-0.346,0.284-0.725,0.284-1.15c0-0.646-0.222-1.182-0.647-1.623
				C217.658,63.877,217.138,63.673,216.508,63.673z M226.293,68.716h-5.264v-5.61h0.727v4.932h3.261v-4.932h0.725v4.932h1.229v1.576
				h-0.677V68.716z M228.656,63.105v4.16l4.129-4.16h0.063v5.61h-0.723v-4.114l-4.098,4.114h-0.096v-5.61H228.656z M236.836,66.209
				h-0.52l-1.608,2.507h-0.787l1.701-2.569c-0.426-0.047-0.771-0.221-1.025-0.488c-0.268-0.253-0.393-0.6-0.393-0.992
				c0-0.489,0.142-0.883,0.441-1.15c0.314-0.269,0.709-0.41,1.197-0.41h1.702v5.61h-0.709V66.209z M236.836,63.735h-0.489
				c-0.457,0-0.771,0.032-0.93,0.078c-0.158,0.063-0.283,0.158-0.379,0.3c-0.093,0.142-0.141,0.347-0.141,0.584
				c0,0.236,0.063,0.425,0.189,0.566c0.109,0.158,0.252,0.236,0.393,0.283c0.158,0.033,0.441,0.049,0.867,0.049h0.489V63.735z"/>
			<path fill="#2B2A29" d="M91.82,76.152h3.702v0.614h-1.497v4.995H93.3v-4.995h-1.48V76.152z M96.499,76.152h0.725v1.025
				c0.284-0.396,0.614-0.679,0.992-0.867c0.363-0.205,0.771-0.3,1.245-0.3c0.788,0,1.482,0.283,2.049,0.866
				c0.567,0.567,0.85,1.262,0.85,2.063c0,0.82-0.283,1.529-0.85,2.098c-0.567,0.582-1.246,0.867-2.033,0.867
				c-0.442,0-0.867-0.096-1.229-0.285c-0.378-0.188-0.725-0.456-1.024-0.835v3.025h-0.725V76.152z M99.399,76.704
				c-0.615,0-1.15,0.221-1.575,0.662c-0.427,0.425-0.646,0.978-0.646,1.623c0,0.425,0.094,0.804,0.298,1.134
				c0.19,0.347,0.458,0.615,0.804,0.82c0.362,0.188,0.741,0.3,1.135,0.3c0.377,0,0.755-0.112,1.087-0.315
				c0.346-0.189,0.614-0.473,0.818-0.835c0.206-0.362,0.3-0.741,0.3-1.12c0-0.408-0.094-0.787-0.3-1.133
				c-0.205-0.363-0.472-0.632-0.804-0.837C100.17,76.814,99.808,76.704,99.399,76.704z M109.31,76.152v5.609h-0.725v-0.961
				c-0.3,0.363-0.646,0.646-1.025,0.819c-0.378,0.189-0.788,0.285-1.229,0.285c-0.787,0-1.465-0.285-2.032-0.867
				c-0.567-0.568-0.851-1.277-0.851-2.098c0-0.802,0.284-1.496,0.851-2.063c0.567-0.583,1.261-0.866,2.049-0.866
				c0.458,0,0.883,0.095,1.261,0.3c0.363,0.188,0.693,0.472,0.977,0.867v-1.025H109.31z M106.41,76.704
				c-0.409,0-0.771,0.11-1.118,0.299c-0.332,0.205-0.599,0.474-0.804,0.837c-0.206,0.346-0.3,0.725-0.3,1.133
				c0,0.379,0.094,0.758,0.3,1.12c0.205,0.362,0.472,0.646,0.818,0.835c0.332,0.203,0.709,0.315,1.103,0.315
				c0.378,0,0.755-0.112,1.119-0.3c0.348-0.205,0.615-0.474,0.805-0.82c0.204-0.33,0.299-0.709,0.299-1.134
				c0-0.646-0.222-1.198-0.647-1.623C107.561,76.925,107.026,76.704,106.41,76.704z M110.98,81.148l2.174-4.996h0.379l2.142,4.996
				h0.678v1.338h-0.693v-0.725h-4.649v0.757h-0.708v-1.37H110.98z M113.329,77.271l-1.64,3.877h3.215L113.329,77.271z
				 M118.055,76.152v4.159l4.128-4.159h0.047v5.609h-0.709v-4.127l-4.096,4.127h-0.095v-5.609H118.055z M129.102,81.762h-5.264
				v-5.609h0.727v4.933h3.26v-4.933h0.725v4.933h1.229v1.56h-0.676V81.762z M131.465,76.152v4.159l4.128-4.159h0.063v5.609h-0.725
				v-4.127l-4.096,4.127h-0.095v-5.609H131.465z M139.928,76.011c0.865,0,1.574,0.315,2.159,0.946
				c0.502,0.566,0.771,1.244,0.771,2.016c0,0.788-0.269,1.467-0.82,2.05c-0.55,0.583-1.261,0.883-2.109,0.883
				c-0.866,0-1.577-0.3-2.112-0.883c-0.552-0.583-0.835-1.262-0.835-2.05c0-0.771,0.267-1.449,0.787-2.016
				C138.335,76.326,139.062,76.011,139.928,76.011z M139.928,76.72c-0.6,0-1.119,0.221-1.561,0.662
				c-0.426,0.44-0.647,0.977-0.647,1.607c0,0.409,0.112,0.788,0.299,1.134c0.206,0.347,0.474,0.615,0.806,0.805
				c0.33,0.188,0.693,0.283,1.104,0.283c0.393,0,0.756-0.096,1.102-0.283c0.331-0.189,0.6-0.458,0.787-0.805
				c0.205-0.346,0.301-0.725,0.301-1.134c0-0.631-0.221-1.167-0.646-1.607C141.029,76.94,140.525,76.72,139.928,76.72z
				 M148.186,79.053h-3.278v2.709h-0.725v-5.609h0.725v2.222h3.278v-2.222h0.723v5.609h-0.723V79.053z M154.502,79.053h-3.278v2.709
				h-0.708v-5.609h0.708v2.222h3.278v-2.222h0.725v5.609h-0.725V79.053z M159.497,76.011c0.867,0,1.592,0.315,2.16,0.946
				c0.52,0.566,0.771,1.244,0.771,2.016c0,0.788-0.269,1.467-0.82,2.05c-0.551,0.583-1.261,0.883-2.111,0.883
				c-0.866,0-1.575-0.3-2.112-0.883c-0.55-0.583-0.819-1.262-0.819-2.05c0-0.771,0.253-1.449,0.773-2.016
				C157.906,76.326,158.631,76.011,159.497,76.011z M159.497,76.72c-0.598,0-1.117,0.221-1.544,0.662
				c-0.44,0.44-0.646,0.977-0.646,1.607c0,0.409,0.095,0.788,0.282,1.134c0.205,0.347,0.474,0.615,0.805,0.805
				c0.33,0.188,0.692,0.283,1.103,0.283c0.395,0,0.773-0.096,1.104-0.283c0.33-0.189,0.6-0.458,0.787-0.805
				c0.205-0.346,0.301-0.725,0.301-1.134c0-0.631-0.221-1.167-0.646-1.607C160.601,76.94,160.097,76.72,159.497,76.72z
				 M164.479,76.782v4.979h-0.725v-5.609h2.85v0.63H164.479z M170.244,76.011c0.852,0,1.576,0.315,2.143,0.946
				c0.521,0.566,0.788,1.244,0.788,2.016c0,0.788-0.284,1.467-0.834,2.05c-0.536,0.583-1.245,0.883-2.097,0.883
				c-0.868,0-1.577-0.3-2.127-0.883c-0.551-0.583-0.818-1.262-0.818-2.05c0-0.771,0.268-1.449,0.771-2.016
				C168.653,76.326,169.361,76.011,170.244,76.011z M170.229,76.72c-0.6,0-1.104,0.221-1.545,0.662
				c-0.426,0.44-0.646,0.977-0.646,1.607c0,0.409,0.095,0.788,0.3,1.134c0.189,0.347,0.457,0.615,0.787,0.805
				c0.347,0.188,0.709,0.283,1.104,0.283c0.409,0,0.771-0.096,1.102-0.283c0.332-0.189,0.6-0.458,0.806-0.805
				c0.188-0.346,0.299-0.725,0.299-1.134c0-0.631-0.221-1.167-0.662-1.607C171.349,76.94,170.827,76.72,170.229,76.72z
				 M183.024,76.152v5.609H182.3v-0.961c-0.3,0.363-0.647,0.646-1.024,0.819c-0.364,0.189-0.79,0.285-1.229,0.285
				c-0.79,0-1.467-0.285-2.033-0.867c-0.569-0.568-0.837-1.277-0.837-2.098c0-0.802,0.283-1.496,0.852-2.063
				c0.566-0.583,1.244-0.866,2.032-0.866c0.475,0,0.883,0.095,1.26,0.3c0.363,0.188,0.694,0.472,0.979,0.867v-1.025H183.024z
				 M180.124,76.704c-0.394,0-0.772,0.11-1.118,0.299c-0.33,0.205-0.6,0.474-0.804,0.837c-0.205,0.346-0.3,0.725-0.3,1.133
				c0,0.379,0.095,0.758,0.3,1.12c0.204,0.362,0.474,0.646,0.819,0.835c0.347,0.203,0.709,0.315,1.103,0.315s0.757-0.112,1.118-0.3
				c0.348-0.205,0.631-0.474,0.82-0.82c0.189-0.33,0.282-0.709,0.282-1.134c0-0.646-0.22-1.198-0.645-1.623
				C181.275,76.925,180.753,76.704,180.124,76.704z M185.371,76.152v4.159l4.128-4.159h0.064v5.609h-0.726v-4.127l-4.098,4.127
				h-0.094v-5.609H185.371z M185.278,73.884h0.676c0.11,0.189,0.269,0.314,0.472,0.408c0.19,0.096,0.426,0.127,0.694,0.127
				c0.284,0,0.503-0.031,0.679-0.11c0.173-0.079,0.331-0.221,0.472-0.425h0.662c-0.08,0.314-0.268,0.567-0.582,0.787
				c-0.316,0.204-0.728,0.299-1.23,0.299c-0.504,0-0.912-0.095-1.244-0.299C185.561,74.466,185.355,74.198,185.278,73.884z
				 M191.171,76.152h0.709v2.363l2.615-2.363h0.992l-2.835,2.553l3.056,3.057h-1.009l-2.583-2.601l-0.236,0.205v2.396h-0.709V76.152
				z M197.189,76.152v4.159l4.129-4.159h0.063v5.609h-0.726v-4.127l-4.097,4.127h-0.095v-5.609H197.189z M203.036,81.148
				l2.174-4.996h0.379l2.143,4.996h0.678v1.338h-0.692v-0.725h-4.649v0.757h-0.71v-1.37H203.036z M205.384,77.271l-1.64,3.877h3.215
				L205.384,77.271z M212.048,76.011c0.868,0,1.577,0.315,2.16,0.946c0.504,0.566,0.771,1.244,0.771,2.016
				c0,0.788-0.284,1.467-0.819,2.05c-0.551,0.583-1.26,0.883-2.112,0.883c-0.867,0-1.575-0.3-2.11-0.883
				c-0.552-0.583-0.834-1.262-0.834-2.05c0-0.771,0.268-1.449,0.786-2.016C210.458,76.326,211.181,76.011,212.048,76.011z
				 M212.048,76.72c-0.614,0-1.118,0.221-1.56,0.662c-0.425,0.44-0.646,0.977-0.646,1.607c0,0.409,0.109,0.788,0.3,1.134
				c0.204,0.347,0.457,0.615,0.803,0.805c0.331,0.188,0.693,0.283,1.103,0.283c0.396,0,0.757-0.096,1.105-0.283
				c0.33-0.189,0.597-0.458,0.786-0.805c0.206-0.346,0.299-0.725,0.299-1.134c0-0.631-0.22-1.167-0.646-1.607
				C213.153,76.94,212.646,76.72,212.048,76.72z"/>
		</g>
	</g>
	<rect y="3.558" fill="none" width="239.75" height="82.885"/>
</g>
</svg>
