<?xml version="1.0" encoding="utf-8"?>
<!-- Generator: Adobe Illustrator 16.0.0, SVG Export Plug-In . SVG Version: 6.00 Build 0)  -->
<!DOCTYPE svg PUBLIC "-//W3C//DTD SVG 1.1//EN" "http://www.w3.org/Graphics/SVG/1.1/DTD/svg11.dtd">
<svg version="1.1" id="Слой_1" xmlns="http://www.w3.org/2000/svg" xmlns:xlink="http://www.w3.org/1999/xlink" x="0px" y="0px"
	 width="240px" height="90px" viewBox="0 0 240 90" enable-background="new 0 0 240 90" xml:space="preserve">
<g id="Слой_x0020_1">
	<g id="_871700560">
		<path fill="#2B2A29" d="M63.779,60.799c0.099,0.1,0.198,0.199,0.198,0.396v0.694c0,0.298-0.198,0.497-0.396,0.497h-6.247
			c-0.199,0-0.397-0.199-0.397-0.497v-0.694c0-0.197,0.199-0.494,0.397-0.494h0.099l0,0c1.983-3.074,3.867-6.843,5.652-10.115
			c0.397-0.793,0.793-1.487,1.091-2.181v-0.893c0,0-0.099-0.1-0.099-0.199c0-0.098,0-0.197,0-0.297v-0.197
			c0-0.1,0-0.199,0.099-0.199l0,0v-0.792l0,0c-0.099,0-0.099,0-0.099-0.1V45.43v-0.099c0-0.298,0.199-0.497,0.496-0.497h0.892
			c0.793-2.479,1.587-4.958,2.281-7.536c0-0.198,0.099-0.396,0.199-0.694c0.099-0.496,0.197-0.892,0.396-1.388
			c0-0.198,0-0.297,0.1-0.496h-0.396c-0.099,0-0.099-0.099-0.099-0.099v-0.595c0-0.297,0.197-0.595,0.496-0.595h0.198
			c0.199-1.091,0.396-2.281,0.496-3.372c0-0.099,0-0.099,0-0.198c0.298-2.479,0.596-4.958,0.794-7.437
			c0.099-2.083,0.297-4.065,0.396-6.049v-0.099v-0.1c0.198-2.776,0.297-5.652,0.396-8.428c-0.198-0.099-0.396-0.496-0.396-0.793l0,0
			V6.363v-0.1c0-0.199,0.198-0.693,0.495-0.693h0.1l0.198-0.397c0-0.099,0.1-0.099,0.198-0.099l0,0l0.1-4.562
			c0-0.198,0.099-0.297,0.297-0.297h0.099c0.1,0,0.199,0.099,0.199,0.297l0.199,4.562l0,0c0.099,0,0.198,0,0.198,0.099l0.198,0.397
			h0.1c0.297,0,0.396,0.495,0.496,0.793l0,0v0.594v0.1c0,0.198-0.198,0.595-0.397,0.694c0.099,2.776,0.199,5.652,0.397,8.428v0.1
			v0.099c0.099,1.983,0.198,4.065,0.396,6.049c0.199,2.479,0.397,4.958,0.694,7.437c0.099,0.1,0.099,0.1,0.099,0.198
			c0.1,1.09,0.298,2.28,0.496,3.372l0,0c0.297,0,0.495,0.298,0.495,0.595v0.595c0,0,0,0.099-0.099,0.099h-0.396
			c0.1,0.199,0.1,0.298,0.1,0.496c0.198,0.496,0.297,0.892,0.396,1.388c0.1,0.298,0.199,0.496,0.199,0.694
			c0.694,2.578,1.487,5.057,2.281,7.536h1.29c0.297,0,0.496,0.199,0.496,0.497v0.099v0.298c0,0.1-0.1,0.1-0.199,0.1l0,0v0.792l0,0
			c0.099,0,0.199,0.1,0.199,0.199v0.197c0,0.1,0,0.199-0.1,0.297c0,0.1-0.099,0.199-0.099,0.298v0.794
			c0.396,0.693,0.694,1.388,1.09,2.181c1.785,3.272,3.669,7.041,5.652,10.115l0,0h0.099c0.198,0,0.396,0.297,0.396,0.494v0.694
			c0,0.298-0.198,0.497-0.396,0.497h-6.247c-0.198,0-0.396-0.199-0.396-0.497v-0.694c0-0.197,0.099-0.297,0.198-0.396
			c-1.189-3.966-3.966-8.725-8.032-9.319C67.746,52.074,64.969,56.833,63.779,60.799z M73.497,33.135l-0.297,0.298h0.694
			L73.497,33.135z M72.802,33.135l0.397-0.297l-0.397-0.396C72.802,32.739,72.802,32.937,72.802,33.135z M73.497,32.54l0.297-0.297
			h-0.595L73.497,32.54z M73.001,31.747h0.793l-0.396-0.397L73.001,31.747z M72.704,31.45l0.297-0.397l-0.397-0.397
			C72.604,30.854,72.604,31.151,72.704,31.45z M73.298,30.656l0.297-0.297h-0.594L73.298,30.656z M72.802,29.764h0.694l-0.297-0.297
			L72.802,29.764z M72.505,29.466l0.297-0.396l-0.297-0.298C72.505,28.971,72.505,29.168,72.505,29.466z M73.1,28.673l0.298-0.298
			h-0.595L73.1,28.673z M72.704,27.879h0.594l-0.297-0.396L72.704,27.879z M72.406,27.483l0.198-0.397l-0.297-0.297
			C72.307,26.987,72.406,27.285,72.406,27.483z M72.901,26.69l0.298-0.298h-0.496L72.901,26.69z M72.604,25.896H73.1l-0.297-0.297
			L72.604,25.896z M72.208,25.5l0.297-0.198l-0.297-0.297C72.208,25.202,72.208,25.302,72.208,25.5z M72.802,24.905l0.199-0.298
			h-0.496L72.802,24.905z M72.505,24.112h0.396l-0.198-0.297L72.505,24.112z M72.108,23.715l0.297-0.298l-0.297-0.297
			C72.108,23.318,72.108,23.517,72.108,23.715z M72.704,23.021l0.198-0.298h-0.496L72.704,23.021z M72.406,22.229h0.396
			l-0.198-0.199L72.406,22.229z M72.009,21.831l0.199-0.198l-0.199-0.198C72.009,21.534,72.009,21.732,72.009,21.831z
			 M72.505,21.237l0.199-0.199h-0.298L72.505,21.237z M72.208,20.542h0.496l-0.298-0.297L72.208,20.542z M72.406,19.451l0.099-0.099
			h-0.099V19.451z M72.307,18.857h0.198l-0.099-0.099L72.307,18.857z M72.406,17.964v0.1l0.099-0.1H72.406z M72.307,17.468h0.198
			l-0.099-0.099L72.307,17.468z M72.406,16.576L72.406,16.576h-0.099H72.406z M72.307,16.081h0.099l0,0H72.307z M72.108,9.635h0.496
			c-0.099-0.496-0.099-0.992-0.099-1.487h-0.396V9.635z M72.009,15.683L72.009,15.683L72.009,15.683L72.009,15.683z M72.108,16.973
			l-0.099-0.099v0.199L72.108,16.973z M72.108,18.361l-0.099-0.099v0.198L72.108,18.361z M72.108,19.848l-0.099-0.198v0.396
			L72.108,19.848z M71.712,24.806c0,0.892-0.1,1.785-0.1,2.578c-0.099,1.884-0.198,4.264-0.496,6.049h1.289
			c-0.297-1.785-0.396-4.165-0.496-6.049C71.811,26.591,71.811,25.698,71.712,24.806z M70.72,33.135c0-0.198,0-0.396,0-0.694
			l-0.396,0.396L70.72,33.135z M70.522,31.053l0.297,0.397c0-0.298,0.1-0.595,0.1-0.794L70.522,31.053z M70.72,29.07l0.297,0.396
			c0-0.298,0-0.496,0-0.694L70.72,29.07z M70.819,27.086l0.298,0.397c0-0.198,0-0.496,0.1-0.694L70.819,27.086z M71.018,25.302
			l0.199,0.198c0-0.198,0.099-0.298,0.099-0.496L71.018,25.302z M71.117,23.417l0.198,0.298c0.1-0.198,0.1-0.397,0.1-0.595
			L71.117,23.417z M71.315,21.633l0.1,0.198c0.099-0.099,0.099-0.297,0.099-0.396L71.315,21.633z M71.415,19.848l0.099,0.198V19.65
			L71.415,19.848z M71.514,15.683L71.514,15.683L71.514,15.683L71.514,15.683z M71.514,17.072v-0.199l-0.099,0.099L71.514,17.072z
			 M71.018,9.635h0.496V8.148h-0.496C71.018,8.644,71.018,9.14,71.018,9.635z M71.117,16.081L71.117,16.081L71.117,16.081
			L71.117,16.081z M71.117,16.576L71.117,16.576L71.117,16.576L71.117,16.576z M71.216,17.468l-0.1-0.099l-0.099,0.099H71.216z
			 M71.514,18.262l-0.099,0.099l0.099,0.099V18.262z M71.117,17.964h-0.099l0.099,0.1V17.964z M71.117,18.758l-0.099,0.099h0.199
			L71.117,18.758z M71.117,19.353h-0.099v0.099L71.117,19.353z M71.315,20.542l-0.297-0.297l-0.199,0.297H71.315z M71.117,21.038
			h-0.298l0.1,0.199L71.117,21.038z M71.117,22.229l-0.198-0.199l-0.198,0.199H71.117z M71.117,22.724h-0.496l0.198,0.298
			L71.117,22.724z M71.018,24.112l-0.199-0.297l-0.297,0.297H71.018z M71.018,24.607h-0.496l0.198,0.298L71.018,24.607z
			 M70.918,25.896l-0.198-0.297l-0.298,0.297H70.918z M70.819,26.392h-0.495l0.198,0.298L70.819,26.392z M70.819,27.879
			l-0.297-0.396l-0.297,0.396H70.819z M70.72,28.375h-0.595l0.297,0.298L70.72,28.375z M70.621,29.764l-0.297-0.297l-0.396,0.297
			H70.621z M70.522,30.358h-0.595l0.198,0.297L70.522,30.358z M70.422,31.747l-0.297-0.397l-0.396,0.397H70.422z M70.225,32.243
			h-0.496l0.297,0.297L70.225,32.243z M70.324,33.433l-0.396-0.298l-0.298,0.298H70.324z M74.29,33.135c0-0.198,0-0.396-0.099-0.595
			l-0.297,0.297L74.29,33.135z M74.091,31.35c-0.099-0.199-0.099-0.496-0.099-0.694l-0.298,0.298L74.091,31.35z M73.794,29.367
			c0-0.199,0-0.396-0.099-0.694l-0.198,0.396L73.794,29.367z M73.595,27.483c0-0.298,0-0.496-0.099-0.694l-0.199,0.297
			L73.595,27.483z M73.397,25.004L73.1,25.202l0.298,0.298C73.397,25.302,73.397,25.103,73.397,25.004z M73.199,23.715
			c0-0.198,0-0.397,0-0.496l-0.198,0.198L73.199,23.715z M73.1,21.831c0-0.198,0-0.297,0-0.396l-0.198,0.198L73.1,21.831z
			 M72.901,19.65l-0.099,0.198l0.199,0.297C73.001,19.947,72.901,19.848,72.901,19.65z M72.901,18.559
			c-0.099-0.1-0.099-0.198-0.099-0.297l-0.099,0.099L72.901,18.559z M72.802,17.072c0-0.1,0-0.1,0-0.1h-0.099L72.802,17.072z
			 M72.604,14.494L72.604,14.494L72.604,14.494L72.604,14.494z M70.918,14.494L70.918,14.494L70.918,14.494L70.918,14.494z
			 M70.72,16.973c0,0,0,0,0,0.1l0.099-0.1H70.72z M70.621,18.262c0,0.099,0,0.198,0,0.297l0.099-0.198L70.621,18.262z M70.621,19.65
			c-0.099,0.198-0.099,0.297-0.099,0.496l0.198-0.297L70.621,19.65z M70.422,21.435c0,0.1,0,0.198,0,0.396l0.199-0.198
			L70.422,21.435z M70.324,23.22c0,0.099,0,0.297-0.099,0.496l0.297-0.298L70.324,23.22z M70.125,25.004c0,0.099,0,0.297,0,0.496
			l0.297-0.298L70.125,25.004z M70.026,26.79c-0.099,0.198-0.099,0.396-0.099,0.694l0.297-0.397L70.026,26.79z M69.729,28.673
			c0,0.297,0,0.495,0,0.694l0.297-0.297L69.729,28.673z M69.53,30.656c0,0.199-0.099,0.496-0.099,0.694l0.396-0.396L69.53,30.656z
			 M69.233,32.54c0,0.199,0,0.396-0.1,0.595l0.496-0.297L69.233,32.54z M71.415,36.011L71.415,36.011v-0.099V36.011z M71.117,36.407
			v-0.099l-0.099,0.099H71.117z M71.117,35.613v-0.099h-0.099L71.117,35.613z M70.72,36.011l-0.099-0.099v0.198L70.72,36.011z
			 M70.522,37.696c-0.198,2.28-0.793,4.858-1.19,7.139h4.661c-0.397-2.281-0.992-4.858-1.19-7.139H70.522z M72.604,36.011l0.1,0.099
			l-0.1-0.198V36.011z M72.307,36.407l-0.099-0.099v0.099H72.307z M72.208,35.613l0.099-0.099h-0.099V35.613z M71.91,36.011v-0.099
			V36.011L71.91,36.011z M75.579,44.835l-0.099-0.793l-0.595,0.793H75.579z M75.975,44.042l0.099,0.793h0.793L75.975,44.042z
			 M74.488,44.538l0.793-0.992l-1.19-0.892C74.19,43.249,74.29,43.943,74.488,44.538z M73.397,36.407h0.198l-0.099-0.099
			L73.397,36.407z M74.091,37.696h-0.396l0.396,0.297V37.696z M73.993,38.489l-0.695-0.496c0,0.297,0.1,0.694,0.1,0.992
			L73.993,38.489z M74.091,42.059l1.091,0.794l-0.297-1.686L74.091,42.059z M73.894,41.563l0.693-0.793l-0.992-0.793
			C73.695,40.572,73.794,41.067,73.894,41.563z M74.885,39.084l0.198,1.091l0.496-0.595L74.885,39.084z M74.587,40.175l-0.297-1.388
			l-0.595,0.694L74.587,40.175z M74.488,36.407h0.099l0,0H74.488z M74.389,35.515h0.1H74.389L74.389,35.515z M74.19,36.011
			L74.19,36.011v0.099V36.011z M73.1,35.912L73.1,35.912L73.1,35.912L73.1,35.912z M68.043,43.546l0.793,0.992
			c0.198-0.595,0.297-1.289,0.396-1.884L68.043,43.546z M68.44,44.835l-0.595-0.793l-0.099,0.793H68.44z M68.142,42.853l0.695-0.496
			h-0.595L68.142,42.853z M69.629,37.696h-0.396v0.297L69.629,37.696z M69.729,36.407h0.198l-0.1-0.099L69.729,36.407z
			 M70.026,37.994l-0.694,0.496l0.595,0.496C69.927,38.688,70.026,38.291,70.026,37.994z M68.737,40.77l0.694,0.793
			c0.099-0.496,0.198-0.991,0.297-1.586L68.737,40.77z M70.225,35.912L70.225,35.912L70.225,35.912L70.225,35.912z M69.133,36.109
			v-0.099l0,0V36.109z M68.936,35.515L68.936,35.515h-0.1H68.936z M68.836,36.407h-0.099l0,0H68.836z M69.432,39.184l-0.397-0.396
			l-0.098,0.396H69.432z M69.332,39.68h-0.496l-0.099,0.496L69.332,39.68z M68.44,39.184v-0.1l-0.199,0.1H68.44z M68.34,39.68
			h-0.496l0.396,0.496L68.34,39.68z M68.44,41.167l-0.1,0.694h0.694L68.44,41.167z M67.845,41.861l0.1-0.496l-0.596,0.496H67.845z
			 M67.746,42.356h-0.694l0.594,0.694L67.746,42.356z M67.25,44.835l0.099-0.793l-0.892,0.793H67.25z M77.265,44.438
			c-0.199-0.594-0.397-1.189-0.595-1.884l-0.695,0.893L77.265,44.438z M75.678,43.05l0.693-0.892l-0.992-0.793L75.678,43.05z
			 M76.372,41.464c-0.198-0.496-0.297-0.992-0.496-1.488l-0.595,0.695L76.372,41.464z M75.281,37.795l-0.496,0.594l0.793,0.596
			C75.479,38.588,75.38,38.192,75.281,37.795z M74.587,37.795l0.199-0.099h-0.199V37.795z M68.737,37.696h-0.199l0.199,0.099V37.696
			z M68.043,37.795c-0.099,0.396-0.199,0.793-0.298,1.19l0.793-0.596L68.043,37.795z M67.448,39.977
			c-0.199,0.496-0.298,0.992-0.496,1.488l1.091-0.793L67.448,39.977z M66.654,42.554c-0.198,0.695-0.396,1.29-0.594,1.884
			l1.289-0.991L66.654,42.554z M65.267,46.62h0.396v-0.792h-0.396V46.62z M66.853,46.62h0.396v-0.792h-0.396V46.62z M68.44,46.62
			h0.396v-0.792H68.44V46.62z M70.026,46.62h0.396v-0.792h-0.396V46.62z M71.612,46.62h0.397v-0.792h-0.397V46.62z M73.199,46.62
			h0.396v-0.792h-0.396V46.62z M74.786,46.62h0.396v-0.792h-0.396V46.62z M76.372,46.62h0.397v-0.792h-0.397V46.62z M77.958,46.62
			h0.396v-0.792h-0.396V46.62z M85.396,60.403c-0.496-0.794-0.893-1.686-1.389-2.579l-0.694,1.289L85.396,60.403z M64.969,48.207
			h13.782v-0.1H64.969V48.207z M66.754,52.568v-1.089l-0.793,1.486C66.258,52.866,66.457,52.668,66.754,52.568z M58.623,60.701
			h2.479l-0.594-1.191L58.623,60.701z M61.598,60.602l1.289-2.578l-1.983,1.289L61.598,60.602z M62.788,55.743l0.694,1.189
			l1.189-2.281L62.788,55.743z M63.085,57.132l-0.694-1.092l-1.785,1.092H63.085z M64.573,52.372l0.595,1.188l1.189-2.181
			L64.573,52.372z M64.771,53.76l-0.595-1.092l-1.785,1.092H64.771z M79.446,52.668l-0.595,1.092h2.38L79.446,52.668z
			 M78.455,53.561l0.595-1.188l-1.785-0.992L78.455,53.561z M81.23,56.04l-0.694,1.092h2.479L81.23,56.04z M80.14,56.933
			l0.694-1.189l-1.884-1.092L80.14,56.933z M82.52,60.701h2.479l-1.884-1.191L82.52,60.701z M82.023,60.602l0.695-1.289
			l-1.983-1.289L82.023,60.602z M82.916,58.816l0.695-1.189h-2.579L82.916,58.816z M83.412,56.734
			c-0.397-0.793-0.893-1.488-1.289-2.28l-0.694,1.09L83.412,56.734z M81.032,55.346l0.694-1.091h-2.38L81.032,55.346z
			 M81.528,53.264c-0.396-0.695-0.793-1.389-1.19-2.082l-0.595,1.091L81.528,53.264z M79.347,51.975l0.595-0.992h-2.281
			L79.347,51.975z M65.961,50.982H63.68l0.595,0.992L65.961,50.982z M63.284,51.182c-0.397,0.693-0.793,1.387-1.19,2.082
			l1.785-0.991L63.284,51.182z M64.275,54.255h-2.38l0.694,1.091L64.275,54.255z M61.499,54.454c-0.397,0.792-0.893,1.487-1.29,2.28
			l1.983-1.19L61.499,54.454z M62.589,57.627h-2.578l0.693,1.189L62.589,57.627z M59.615,57.824
			c-0.496,0.894-0.893,1.785-1.388,2.579l2.082-1.29L59.615,57.824z M69.034,51.975c-1.289,0.497-2.578,1.19-3.569,1.983
			l-3.372,6.743h1.19C64.275,57.527,66.258,53.76,69.034,51.975z M76.867,51.479v1.089c0.298,0.1,0.496,0.298,0.794,0.397
			L76.867,51.479z M75.876,50.982v0.992c0.198,0.1,0.397,0.199,0.496,0.298v-1.29H75.876z M74.786,50.982v0.595
			c0.199,0,0.396,0.1,0.594,0.199v-0.794H74.786z M73.794,50.982v0.199c0.199,0.099,0.396,0.099,0.595,0.198v-0.397H73.794z
			 M72.802,50.982L72.802,50.982c0.199,0.1,0.397,0.1,0.595,0.1v-0.1H72.802z M67.746,50.982H67.25v1.29
			c0.099-0.099,0.298-0.198,0.496-0.298V50.982z M68.836,50.982h-0.595v0.794c0.199-0.1,0.396-0.199,0.595-0.199V50.982z
			 M69.828,50.982h-0.595v0.397c0.199-0.1,0.396-0.1,0.595-0.198V50.982z M70.819,50.982h-0.594v0.1
			C70.422,51.082,70.621,51.082,70.819,50.982L70.819,50.982z M71.612,50.982h-0.297l0,0C71.415,50.982,71.514,50.982,71.612,50.982
			L71.612,50.982z M72.307,50.982h-0.297l0,0C72.108,50.982,72.208,50.982,72.307,50.982L72.307,50.982z M80.338,60.701h1.19
			l-3.371-6.743c-0.992-0.793-2.281-1.486-3.57-1.983C77.363,53.76,79.347,57.527,80.338,60.701z"/>
		<path fill="#2B2A29" d="M30.364,35.713v-1.487c3.272,0.198,5.75,0.198,7.536,0.198c1.884,0,4.362,0,7.437-0.198v1.487
			c-2.579,0.396-4.066,0.694-4.265,0.793c-0.396,0.198-0.595,0.793-0.595,1.686l-0.099,5.057v16.36h6.941c1.19,0,1.983,0,2.38-0.197
			c0.496-0.199,0.991-0.596,1.487-1.191c0.496-0.594,1.289-1.884,2.578-3.966h1.686c-0.892,2.38-1.686,5.058-2.479,7.933
			c-5.454-0.1-9.916-0.198-13.485-0.198c-2.875,0-5.949,0.099-9.122,0.198v-1.486c2.281-0.397,3.47-0.695,3.669-0.895
			c0.297-0.197,0.396-0.494,0.496-0.99c0-0.396,0-3.57,0-9.42v-7.139v-1.289c0-2.082,0-3.372-0.199-3.768
			c-0.099-0.297-0.198-0.596-0.496-0.694C33.636,36.407,32.446,36.109,30.364,35.713z"/>
		<path fill="#2B2A29" d="M118.017,47.711v1.388c-1.686,0.397-2.875,0.596-3.271,0.893c-0.298,0.1-0.397,0.298-0.496,0.694
			c-0.199,0.297-0.199,1.289-0.199,2.975c0,2.776,0,5.156,0.099,7.238c-0.892,0.1-1.884,0.297-2.875,0.496
			c-2.677,0.595-4.562,0.992-5.75,1.19c-1.19,0.1-2.479,0.197-3.868,0.197c-3.173,0-5.652-0.396-7.437-1.189
			c-2.379-1.091-4.065-2.677-5.354-4.858c-1.19-2.183-1.785-4.76-1.785-7.734c0-5.255,1.884-9.42,5.651-12.295
			c2.776-1.983,6.346-3.074,10.809-3.074c2.974,0,6.346,0.496,10.114,1.388c-0.1,0.793-0.1,1.388-0.1,1.884
			c0,1.486,0.1,3.668,0.199,6.544h-1.884c-0.496-2.182-1.091-3.768-1.586-4.561c-0.594-0.893-1.388-1.587-2.578-2.083
			c-1.091-0.496-2.479-0.694-4.165-0.694c-2.083,0-3.967,0.397-5.355,1.29c-1.487,0.892-2.578,2.379-3.371,4.263
			c-0.793,1.884-1.19,4.066-1.19,6.545c0,3.967,0.892,6.939,2.678,8.925c1.785,2.081,4.164,3.072,7.139,3.072
			c1.388,0,2.974-0.397,4.76-1.091v-6.048c0-1.289-0.099-2.183-0.198-2.577c-0.1-0.199-0.297-0.397-0.596-0.497
			c-0.197-0.198-0.992-0.396-2.379-0.694c-0.199,0-0.397-0.099-0.694-0.198v-1.388c2.876,0.1,5.057,0.197,6.544,0.197
			C111.969,47.908,114.348,47.811,118.017,47.711z"/>
		<path fill="#2B2A29" d="M118.811,35.713v-1.487c2.975,0.198,5.354,0.198,7.14,0.198c1.785,0,4.164,0,7.04-0.198v1.487
			c-1.785,0.298-2.975,0.595-3.471,0.793c-0.298,0.099-0.496,0.297-0.596,0.595c-0.1,0.298-0.197,1.19-0.197,2.579v10.113
			c0,2.579,0.098,4.363,0.396,5.256c0.397,1.288,1.092,2.28,2.083,2.975c0.991,0.793,2.479,1.189,4.264,1.189
			c2.082,0,3.569-0.495,4.66-1.289c0.991-0.892,1.687-2.082,1.983-3.47c0.298-1.389,0.397-3.769,0.397-7.238
			c0-0.794,0-2.976-0.1-6.644c-0.1-1.983-0.198-3.173-0.298-3.57c-0.1-0.198-0.197-0.397-0.396-0.496
			c-0.198-0.099-1.091-0.397-2.479-0.694c-0.198,0-0.396,0-0.693-0.099v-1.487c2.677,0.198,4.561,0.198,5.652,0.198
			c1.289,0,3.072,0,5.155-0.198v1.487c-1.884,0.396-2.975,0.694-3.371,0.892c-0.298,0.199-0.397,0.496-0.495,0.992
			c-0.1,0.694-0.199,4.065-0.199,10.015c-0.099,3.371-0.198,5.652-0.298,6.743c-0.198,1.389-0.595,2.578-0.991,3.569
			c-0.495,0.893-1.19,1.686-2.081,2.479c-0.992,0.792-1.983,1.387-3.074,1.685c-1.489,0.497-3.075,0.694-4.761,0.694
			c-2.775,0-5.057-0.396-6.742-1.289c-1.586-0.792-2.776-1.884-3.471-3.272c-0.594-1.388-0.991-3.371-0.991-6.047V39.977
			c0-1.587,0-2.479-0.198-2.975c-0.1-0.198-0.297-0.397-0.595-0.595C121.785,36.308,120.695,36.109,118.811,35.713z"/>
		<path fill="#2B2A29" d="M149.647,35.713v-1.487c1.686,0.198,3.272,0.198,4.859,0.198c1.487,0,3.271,0,5.256-0.198
			c1.587,2.181,6.247,8.13,13.98,17.948l-0.1-10.709c0-2.677-0.099-4.165-0.298-4.462c-0.098-0.297-0.297-0.496-0.595-0.694
			c-0.298-0.099-1.389-0.297-3.271-0.595v-1.487c2.082,0.198,3.866,0.198,5.354,0.198c1.486,0,3.371,0,5.652-0.198v1.487
			c-0.397,0.099-0.694,0.099-0.894,0.099c-1.487,0.297-2.379,0.496-2.676,0.793c-0.299,0.298-0.497,0.893-0.497,1.785
			c-0.1,1.884-0.198,5.652-0.198,11.305c0,3.769,0.099,7.933,0.198,12.692c-0.595,0.198-1.188,0.396-1.785,0.594l-7.238-9.42
			l-11.005-13.98l0.098,9.42l0.199,9.121c0,0.695,0.098,1.092,0.197,1.291c0.1,0.197,0.199,0.297,0.298,0.395
			c0.297,0.199,1.19,0.397,2.777,0.695c0.197,0.1,0.396,0.1,0.792,0.199v1.486c-2.182-0.1-3.967-0.198-5.255-0.198
			c-1.189,0-3.073,0.099-5.751,0.198v-1.486c0.397,0,0.694-0.1,0.893-0.199c1.388-0.198,2.28-0.397,2.577-0.695
			c0.199-0.098,0.298-0.297,0.397-0.594s0.1-2.181,0.199-5.85c0.197-5.256,0.197-9.718,0.197-13.486c0-1.289,0-2.082-0.197-2.479
			c-0.1-0.298-0.299-0.595-0.695-0.794c-0.298-0.198-1.19-0.396-2.578-0.693C150.342,35.812,150.045,35.812,149.647,35.713z"/>
		<path fill="#2B2A29" d="M196.252,62.188v-1.486c1.586-0.199,2.478-0.497,2.677-0.695c0.298-0.199,0.396-0.396,0.396-0.693
			c0-0.199-0.099-0.396-0.099-0.694c-0.199-0.497-0.892-2.182-1.983-4.958c-1.786,0-3.272,0-4.463,0c-0.992,0-2.578,0-4.858,0
			c-1.389,3.472-2.181,5.355-2.181,5.652c0,0.396,0.198,0.594,0.396,0.693c0.197,0.198,1.09,0.397,2.677,0.695v1.486
			c-1.587-0.1-3.173-0.198-4.659-0.198c-1.489,0-3.175,0.099-4.761,0.198v-1.486c1.189-0.199,1.983-0.497,2.38-0.795
			c0.298-0.197,0.496-0.494,0.793-0.99c0.496-0.795,1.982-3.967,4.463-9.619c1.486-3.469,3.767-8.725,6.644-15.666h1.486
			c1.191,3.074,3.669,8.825,7.338,17.252c2.083,4.761,3.271,7.438,3.669,8.033c0.298,0.496,0.595,0.793,0.892,0.99
			c0.199,0.198,1.092,0.397,2.578,0.795v1.486c-2.28-0.1-4.361-0.198-6.246-0.198C201.507,61.989,199.126,62.088,196.252,62.188z
			 M192.683,42.158l-3.868,9.321h3.769c0.892,0,2.082,0,3.769,0L192.683,42.158z"/>
		<path fill="#2B2A29" d="M82.718,76.664c0.496-0.595,1.189-1.389,1.785-1.686c0.396-0.298,0.893-0.396,1.289-0.396
			c1.091,0,2.083,0.396,2.777,1.288c0.892,0.893,1.091,2.182,1.091,3.37c0,1.19-0.199,2.183-0.694,3.174
			c-0.496,0.992-1.19,1.686-2.082,2.281c-0.694,0.495-1.587,0.893-2.479,0.893c-0.297,0-0.596-0.099-0.893-0.198
			c-0.297,0-0.496-0.1-0.793-0.199c0,0.991,0,2.182,0.099,3.074c0,0.1,0,0.197,0.099,0.297c0.199,0.1,0.992,0.298,1.19,0.397
			c0.099,0,0.297,0.1,0.396,0.1c0.1,0,0.1,0.098,0.1,0.098v0.596c0,0.099,0,0.099,0,0.099c-0.1,0.1-0.1,0.1-0.199,0.1
			c-0.793-0.1-1.587-0.1-2.479-0.1c-0.893,0-1.885,0-2.776,0.1c-0.1,0-0.1,0-0.1-0.1c0,0-0.099,0-0.099-0.099v-0.596l0.099-0.098
			l0.496-0.1c0.297-0.1,0.893-0.198,0.991-0.397c0.199-0.197,0.199-0.595,0.199-0.793c0.099-1.587,0.099-3.271,0-4.858v-4.462
			v-0.297c0-0.298,0-1.092-0.099-1.289c-0.1-0.1-0.198-0.1-0.298-0.1c-0.297,0-0.793,0.1-1.189,0.1c0,0,0,0-0.1,0c0-0.1,0-0.1,0-0.1
			v-0.595c0-0.1,0-0.199,0.1-0.199c0.991-0.298,2.28-0.694,3.172-1.289c0.1,0,0.1,0,0.199,0l0.297,0.199
			c0.099,0,0.099,0.099,0.099,0.099C82.817,75.574,82.817,76.069,82.718,76.664z M96.501,78.152c0-0.595-0.1-1.488-0.397-1.785
			c-0.297-0.397-0.793-0.496-1.289-0.496c-0.496,0-0.893,0.198-1.29,0.496c-0.496,0.396-0.793,1.091-1.09,1.686c0,0,0,0.1-0.099,0.1
			l-0.694-0.1c0,0-0.099,0-0.099-0.1c0,0,0,0,0-0.099c0.099-0.694,0.197-1.388,0.297-2.183c0,0,0-0.098,0.099-0.098
			c1.09-0.496,2.38-0.991,3.669-0.991c0.396,0,0.893,0.098,1.289,0.297c0.297,0.099,0.695,0.297,0.893,0.595
			c0.298,0.197,0.496,0.595,0.595,0.893c0.099,0.496,0.099,1.19,0.099,1.686v4.362c0,0.298,0,0.893,0.099,1.092
			c0.099,0.198,0.297,0.198,0.397,0.198c0.297,0,0.892-0.298,1.09-0.497c0.099,0,0.199,0,0.199,0l0.297,0.497
			c0.099,0,0.099,0.1,0,0.196c-0.396,0.298-1.189,1.191-1.586,1.39c-0.199,0.199-0.496,0.199-0.794,0.199
			c-0.396,0-0.793-0.1-1.09-0.397c-0.297-0.199-0.496-0.595-0.496-0.992c-0.496,0.397-1.19,0.893-1.686,1.091
			c-0.496,0.199-0.892,0.299-1.389,0.299c-0.693,0-1.388-0.199-1.982-0.794c-0.496-0.497-0.695-1.189-0.695-1.884
			c0-0.497,0.099-0.893,0.298-1.289c0.099-0.396,0.397-0.694,0.694-0.992c0.396-0.298,0.892-0.595,1.289-0.793
			C94.22,79.144,95.311,78.646,96.501,78.152z M104.433,76.764c0.396-0.496,0.992-1.189,1.487-1.587
			c0.298-0.198,0.793-0.396,1.19-0.396c0.396,0,0.694,0.1,1.091,0.298l0.099,0.099c-0.198,0.793-0.297,1.487-0.396,2.281
			c0,0-0.099,0.1-0.198,0.1h-0.496c-0.1,0-0.1-0.1-0.1-0.1c-0.099-0.298-0.099-0.497-0.297-0.694c-0.1-0.1-0.199-0.197-0.397-0.197
			c-0.297,0-0.594,0.197-0.793,0.395c-0.396,0.298-0.694,0.794-0.892,1.291c-0.297,0.594-0.297,1.387-0.297,2.081
			c0,0.991-0.099,2.28,0.1,3.272c0,0.199,0.099,0.296,0.198,0.396c0.198,0.198,1.19,0.397,1.388,0.497c0.1,0,0.1,0.099,0.1,0.099
			v0.595c0,0.1,0,0.1,0,0.1l-0.1,0.1c-0.793-0.1-1.586-0.199-2.379-0.199c-0.893,0-1.884,0.1-2.875,0.199c0,0,0-0.1-0.099-0.1
			c0,0,0,0,0-0.1v-0.595c0,0,0-0.099,0.099-0.099c0.198-0.1,1.388-0.397,1.487-0.497c0.199-0.196,0.199-0.793,0.199-0.991v-2.38
			c0-0.494,0.099-3.172-0.1-3.569c0-0.297-0.198-0.396-0.396-0.396c-0.297,0-0.596,0.1-0.893,0.1c-0.099,0.1-0.199,0.1-0.199,0.1
			c-0.099,0-0.099,0-0.198-0.1c0,0,0,0,0-0.1v-0.595c0,0,0-0.1,0.099-0.1c1.09-0.298,2.28-0.694,3.271-1.289
			c0-0.098,0.1-0.098,0.1,0l0.298,0.199c0,0,0.099,0.099,0,0.099C104.533,75.574,104.433,76.169,104.433,76.764z M109.986,76.367
			c-0.396,0-0.893,0-1.289,0c-0.1,0-0.1,0-0.1,0c-0.099,0-0.099-0.1-0.099-0.1v-0.496c0-0.1,0.099-0.1,0.099-0.197
			c0.496-0.199,0.992-0.397,1.388-0.694c0-0.595,0-1.586,0.099-2.182c0.1-0.596,0.397-1.09,0.793-1.587
			c0.496-0.595,0.992-0.992,1.686-1.288c0.496-0.298,0.992-0.397,1.587-0.397c0.396,0,0.793,0,1.189,0.1
			c0.397,0.198,0.893,0.396,1.389,0.594c0,0.1,0,0.1,0,0.199c-0.198,0.793-0.496,1.487-0.694,2.281c0,0.099-0.099,0.099-0.198,0.099
			L115.34,72.6c-0.099,0-0.099,0-0.198-0.1c0-0.497-0.198-1.091-0.496-1.389c-0.298-0.297-0.694-0.396-1.091-0.396
			c-0.396,0-0.694,0.1-0.992,0.297c-0.297,0.298-0.396,0.794-0.496,1.19c-0.099,0.695-0.099,1.686-0.099,2.281
			c0,0.197,0,0.396,0,0.495c0.198,0,0.496,0.1,0.693,0.1l1.785-0.1c0,0,0.099,0,0.099,0.1l0.099,0.099l0.1,0.099
			c0.991-0.099,2.082-0.197,3.073-0.495c0.1,0,0.1,0,0.198,0.1l0.199,0.198c0.099,0,0.099,0,0.099,0.099
			c-0.199,1.487-0.199,2.976-0.199,4.462c0,0.793-0.099,2.083,0.1,2.876c0.099,0.396,0.297,0.693,0.595,0.893
			c0.297,0.298,0.596,0.397,0.992,0.397c0.496,0,0.893-0.199,1.289-0.397c0.397-0.298,0.694-0.595,0.893-0.992
			c0.198-0.594,0.198-1.388,0.198-1.983c0-1.19,0-2.379,0-3.568c-0.099-0.1-0.099-0.396-0.198-0.496
			c-0.198-0.1-0.893-0.198-1.09-0.198h-0.397c-0.099,0-0.099-0.1-0.099-0.199v-0.595c0,0,0-0.1,0.099-0.1
			c1.09-0.099,2.281-0.197,3.371-0.495c0.1,0,0.1,0,0.1,0.1l0.297,0.198c0.1,0,0.1,0,0.1,0.099c-0.1,0.694-0.1,1.487-0.199,2.182
			c0,1.091,0,2.082,0,3.073c0,0.596-0.098,2.083,0.1,2.678c0.1,0.198,0.198,0.298,0.397,0.298c0.397,0,0.793-0.1,1.091-0.199
			l0.099,0.1c0.1,0,0.1,0,0.1,0.1v0.594l-0.1,0.1c-0.596,0.198-1.189,0.397-1.784,0.596c-0.497,0.197-1.091,0.495-1.488,0.794
			c-0.1,0-0.197,0-0.197,0l-0.298-0.299c-0.1,0-0.1,0-0.1-0.099c0.1-0.396,0.1-0.794,0.198-1.191
			c-0.496,0.397-1.091,0.992-1.586,1.29c-0.496,0.199-0.992,0.299-1.487,0.299c-0.793,0-1.586-0.199-2.181-0.794
			c-0.595-0.596-0.793-1.389-0.793-2.281v-3.669c0-0.396,0-1.982-0.198-2.279c-0.1-0.199-0.893-0.298-1.091-0.298
			c-0.198,0-0.297,0-0.396,0c-0.1,0-0.1-0.1-0.1-0.199l0,0c-0.098,0.1-0.098,0.199-0.198,0.397c0,0-0.099,0.1-0.099,0
			c-0.694,0-1.389,0-2.082,0c0,1.19,0,2.479,0,3.769v2.874c0,0.198,0,0.795,0.099,0.991c0.199,0.1,1.091,0.397,1.289,0.397
			c0.099,0,0.198,0.1,0.298,0.1c0.099,0,0.099,0.099,0.099,0.099v0.595c0,0.1,0,0.1,0,0.1l-0.099,0.1
			c-0.794-0.1-1.587-0.199-2.38-0.199c-0.893,0-1.785,0.1-2.677,0.199c-0.099,0-0.099-0.1-0.099-0.1c-0.1,0-0.1,0-0.1-0.1v-0.595
			l0.1-0.099c0.199-0.1,1.19-0.299,1.289-0.497c0.198-0.296,0.198-3.668,0.198-4.064C109.986,78.746,109.986,77.558,109.986,76.367z
			 M129.916,76.467l1.289-1.191c0.198-0.197,0.497-0.297,0.694-0.396c0.396-0.199,0.794-0.297,1.289-0.297
			c0.693,0,1.388,0.197,1.983,0.692c0.396,0.299,0.594,0.794,0.693,1.191c0.495-0.397,1.092-1.092,1.586-1.389
			c0.497-0.298,1.092-0.495,1.785-0.495c0.496,0,0.992,0.098,1.488,0.396c0.296,0.198,0.693,0.496,0.892,0.793
			c0.199,0.298,0.396,0.695,0.396,0.992c0.1,0.495,0.1,1.189,0.1,1.686v2.875c0,0.695-0.1,1.983,0.1,2.577
			c0,0.1,0,0.199,0.099,0.199c0.199,0.099,1.091,0.298,1.388,0.397l0.1,0.099v0.595c0,0.1,0,0.1-0.1,0.1c0,0,0,0.1-0.1,0.1
			c-0.693-0.1-1.486-0.199-2.181-0.199c-0.892,0-1.785,0.1-2.775,0.199c0,0,0-0.1-0.1-0.1c0,0,0,0,0-0.1v-0.595
			c0,0,0-0.099,0.1-0.099c0.099,0,0.198-0.1,0.298-0.1c0.098-0.1,0.892-0.298,0.991-0.397c0.098-0.1,0.098-0.693,0.098-0.793
			c0.1-1.188,0.1-2.28,0.1-3.37c0-0.694,0.1-1.785-0.1-2.38c-0.098-0.298-0.297-0.595-0.495-0.794
			c-0.298-0.197-0.693-0.297-1.091-0.297c-0.495,0-0.992,0.199-1.486,0.496c-0.397,0.396-0.694,0.792-0.794,1.389
			c-0.198,0.594-0.198,2.18-0.198,2.875c0,0.297,0,2.678,0.198,2.874c0.1,0.198,1.188,0.397,1.388,0.497c0.1,0,0.1,0.099,0.1,0.099
			v0.595c0,0.1,0,0.1,0,0.1c-0.1,0-0.1,0.1-0.1,0.1c-0.793-0.1-1.686-0.199-2.479-0.199s-1.587,0.1-2.479,0.199l-0.1-0.1
			c0,0,0,0,0-0.1v-0.595c0,0,0-0.099,0.1-0.099l0.197-0.1c0.199,0,0.992-0.298,1.091-0.397c0.198-0.296,0.198-1.586,0.198-1.882
			v-3.175c0-0.595,0-1.586-0.396-1.983c-0.299-0.395-0.794-0.594-1.29-0.594c-0.495,0-0.892,0.199-1.289,0.396
			c-0.396,0.297-0.792,0.694-0.991,1.189c-0.198,0.496-0.198,1.388-0.198,1.885v1.884c0,0.298,0,1.983,0.1,2.279
			c0.198,0.1,0.991,0.298,1.189,0.397c0.1,0,0.198,0.1,0.397,0.1l0.1,0.099v0.595c0,0.1,0,0.1-0.1,0.1c0,0,0,0.1-0.1,0.1
			c-0.695-0.1-1.487-0.199-2.182-0.199c-0.893,0-1.785,0.1-2.677,0.199c-0.1,0-0.1-0.1-0.1-0.1c-0.1,0-0.1,0-0.1-0.1v-0.595
			l0.1-0.099c0.199-0.1,1.19-0.299,1.289-0.397c0.199-0.199,0.199-1.288,0.199-1.487v-0.298v-3.172c0-0.298,0-1.983-0.1-2.183
			c-0.1-0.197-0.198-0.197-0.397-0.197c-0.397,0-0.693,0-1.091,0.1c0,0,0,0-0.099-0.1c0,0,0,0,0-0.1v-0.595c0,0,0-0.1,0.099-0.1
			c1.091-0.298,2.183-0.694,3.174-1.289c0.1-0.098,0.197-0.098,0.197,0l0.298,0.199v0.099
			C130.016,75.475,130.016,75.97,129.916,76.467z M146.476,79.144c0,1.189,0.197,2.479,0.792,3.47
			c0.497,0.694,1.091,1.191,1.983,1.191c0.496,0,0.991-0.199,1.389-0.298c0.595-0.199,1.288-0.596,1.785-0.992h0.099
			c0.1,0,0.1,0,0.1,0l0.396,0.693c0,0,0,0.1,0,0.199l-2.081,1.586c-0.298,0.198-0.596,0.298-0.893,0.397
			c-0.497,0.1-0.991,0.198-1.389,0.198c-1.289,0-2.28-0.496-2.975-1.39c-0.992-1.09-1.289-2.478-1.289-3.866
			c0-1.587,0.396-3.074,1.488-4.264c0.991-0.991,2.181-1.586,3.569-1.586c0.991,0,1.883,0.297,2.577,0.991
			c0.695,0.793,0.893,1.884,0.991,2.875c0,0.1-0.099,0.1-0.099,0.1c-0.297,0.197-0.495,0.396-0.793,0.595c0,0.1,0,0.1-0.1,0.1
			c-0.297,0-0.595,0-0.891,0C149.548,79.144,148.062,79.144,146.476,79.144z M160.258,77.755h-0.794c0,0-0.098-0.1-0.098-0.197
			c0-0.497-0.199-0.991-0.596-1.389c-0.396-0.298-0.793-0.497-1.29-0.497c-0.396,0-0.792,0.1-1.089,0.397
			c-0.298,0.198-0.397,0.497-0.397,0.892c0,0.298,0.1,0.497,0.298,0.694c0.396,0.597,1.388,1.091,1.982,1.389
			c0.694,0.396,1.687,0.893,2.181,1.487c0.397,0.596,0.597,1.091,0.597,1.784c0,0.893-0.397,1.686-1.091,2.281
			c-0.794,0.794-1.785,0.992-2.876,0.992c-0.991,0-1.983-0.198-2.876-0.596l-0.099-0.1c0.099-0.893,0.198-1.884,0.198-2.774
			c0-0.1,0.1-0.1,0.1-0.1h0.792c0,0,0.1,0,0.1,0.1c0.198,0.594,0.397,1.288,0.893,1.686c0.396,0.395,0.893,0.494,1.388,0.494
			c0.397,0,0.892,0,1.19-0.298c0.298-0.296,0.396-0.594,0.396-0.991c0-0.396-0.198-0.794-0.396-1.09
			c-0.396-0.496-1.388-0.992-1.984-1.29c-0.594-0.297-1.586-0.892-2.08-1.486c-0.298-0.397-0.497-0.991-0.497-1.488
			c0-0.892,0.397-1.586,0.991-2.181c0.794-0.694,1.785-0.991,2.777-0.991c0.892,0,1.785,0.297,2.577,0.595
			c0.1,0,0.1,0.099,0.1,0.197c-0.1,0.794-0.199,1.588-0.297,2.38c0,0.1,0,0.1,0,0.1H160.258z M82.718,83.208
			c0.297,0.299,0.594,0.497,0.992,0.693c0.396,0.199,0.793,0.298,1.189,0.298c0.793,0,1.388-0.395,1.884-0.991
			c0.694-0.793,0.893-1.884,0.893-2.875c0-1.092-0.199-2.181-0.893-3.074c-0.396-0.495-0.892-0.792-1.586-0.792
			c-0.397,0-0.893,0.197-1.289,0.396c-0.396,0.297-0.694,0.595-0.893,1.09c-0.198,0.496-0.297,1.091-0.297,1.587V83.208z
			 M96.501,79.341c-0.793,0.397-2.479,1.19-2.976,1.687c-0.396,0.396-0.496,0.794-0.496,1.288c0,0.497,0,0.893,0.298,1.191
			c0.297,0.298,0.595,0.494,0.892,0.494c0.496,0,0.893-0.196,1.19-0.396c0.397-0.198,0.694-0.496,0.893-0.893
			c0.198-0.397,0.198-1.289,0.198-1.785V79.341z M150.839,77.854c0-0.496-0.1-0.991-0.397-1.388
			c-0.396-0.497-0.794-0.795-1.487-0.795c-0.496,0-0.992,0.199-1.389,0.596c-0.495,0.396-0.693,1.091-0.893,1.785
			c0.1,0,0.298,0,0.397,0C148.358,78.053,149.647,77.953,150.839,77.854z"/>
	</g>
</g>
</svg>
