<?xml version="1.0" encoding="utf-8"?>
<!-- Generator: Adobe Illustrator 16.0.0, SVG Export Plug-In . SVG Version: 6.00 Build 0)  -->
<!DOCTYPE svg PUBLIC "-//W3C//DTD SVG 1.1//EN" "http://www.w3.org/Graphics/SVG/1.1/DTD/svg11.dtd">
<svg version="1.1" id="Слой_1" xmlns="http://www.w3.org/2000/svg" xmlns:xlink="http://www.w3.org/1999/xlink" x="0px" y="0px"
	 width="250px" height="157px" viewBox="0 0 250 157" enable-background="new 0 0 250 157" xml:space="preserve">
<line fill="none" stroke="#29B8F2" stroke-width="2" x1="200.275" y1="26.462" x2="225.735" y2="1"/>
<line fill="none" stroke="#29B8F2" stroke-width="2" x1="222.777" y1="26.462" x2="248.238" y2="1"/>
<line fill="none" stroke="#29B8F2" stroke-width="2" x1="223.509" y1="47.698" x2="248.969" y2="22.236"/>
<g>
	<path fill="#FFFFFF" d="M6.155,47.664c-1.626-0.896-2.901-2.137-3.826-3.724c-0.925-1.586-1.387-3.362-1.387-5.329
		c0-1.966,0.462-3.742,1.387-5.329c0.924-1.586,2.205-2.827,3.84-3.723c1.636-0.896,3.465-1.344,5.49-1.344
		c1.518,0,2.92,0.254,4.205,0.76c1.285,0.506,2.375,1.246,3.271,2.219l-1.372,1.373c-1.597-1.616-3.611-2.424-6.045-2.424
		c-1.616,0-3.085,0.37-4.409,1.109c-1.324,0.74-2.361,1.752-3.11,3.037c-0.75,1.285-1.125,2.726-1.125,4.321
		c0,1.597,0.375,3.037,1.125,4.322c0.749,1.285,1.786,2.297,3.11,3.037c1.324,0.739,2.793,1.109,4.409,1.109
		c2.453,0,4.468-0.817,6.045-2.453L19.135,46c-0.896,0.974-1.991,1.718-3.285,2.233s-2.701,0.773-4.219,0.773
		C9.605,49.007,7.78,48.56,6.155,47.664z"/>
	<path fill="#FFFFFF" d="M36.714,30.26H29.53v18.572h-2.131V30.26h-7.184v-1.868h16.499V30.26z"/>
	<path fill="#FFFFFF" d="M55.695,28.392l-9.286,17.199c-0.662,1.227-1.436,2.137-2.321,2.73c-0.886,0.594-1.854,0.891-2.906,0.891
		c-0.779,0-1.616-0.186-2.511-0.555l0.613-1.753c0.701,0.273,1.343,0.409,1.927,0.409c1.343,0,2.443-0.729,3.3-2.19l0.584-0.992
		l-8.293-15.739h2.307l7.125,13.841l7.3-13.841H55.695z"/>
	<path fill="#FFFFFF" d="M77.625,46.963v6.454H75.61v-4.585H57.768l-0.029,4.585h-2.015l0.029-6.454h1.022
		c1.343-0.077,2.277-1.144,2.803-3.197c0.525-2.054,0.847-4.969,0.963-8.746l0.234-6.628h13.783v18.571H77.625z M61.754,42.919
		c-0.379,2.015-1.017,3.363-1.913,4.044h12.586V30.26h-9.783l-0.175,4.965C62.372,38.339,62.134,40.904,61.754,42.919z"/>
	<path fill="#FFFFFF" d="M82.034,28.392h2.132v16.937l13.082-16.937h1.956v20.44h-2.131V31.925L83.991,48.832h-1.957V28.392z"/>
	<path fill="#FFFFFF" d="M120.579,28.392v20.44h-2.132v-6.19h-6.103c-0.273,0-0.662-0.02-1.168-0.059l-4.292,6.249h-2.307
		l4.643-6.629c-1.5-0.447-2.648-1.241-3.446-2.38c-0.798-1.139-1.197-2.535-1.197-4.19c0-2.297,0.725-4.078,2.175-5.344
		c1.45-1.265,3.412-1.897,5.884-1.897H120.579z M108.212,39.444c0.982,0.904,2.418,1.357,4.307,1.357h5.928V30.26h-5.724
		c-1.908,0-3.383,0.453-4.424,1.358c-1.042,0.905-1.562,2.225-1.562,3.957C106.738,37.249,107.229,38.539,108.212,39.444z"/>
	<path fill="#FFFFFF" d="M133.427,40.014h7.65v1.811h-7.65V40.014z"/>
</g>
<g>
	<path fill="#FFFFFF" d="M30.457,75.333v30.8h-8.624V82.241H10.129v23.892h-8.58v-30.8H30.457z"/>
	<path fill="#FFFFFF" d="M58.397,76.719c2.053,0.924,3.637,2.244,4.752,3.96c1.114,1.716,1.672,3.733,1.672,6.05
		c0,2.317-0.558,4.327-1.672,6.028c-1.115,1.701-2.699,3.014-4.752,3.938c-2.054,0.925-4.474,1.387-7.26,1.387h-5.368v8.052h-8.712
		v-30.8h14.08C53.923,75.333,56.343,75.795,58.397,76.719z M54.657,90.051c0.909-0.776,1.364-1.885,1.364-3.322
		c0-1.437-0.455-2.552-1.364-3.344c-0.91-0.792-2.259-1.188-4.048-1.188h-4.84v9.02h4.84C52.398,91.217,53.747,90.828,54.657,90.051
		z"/>
	<path fill="#FFFFFF" d="M75.535,104.681c-2.596-1.378-4.635-3.285-6.116-5.72c-1.481-2.435-2.222-5.177-2.222-8.229
		c0-3.05,0.741-5.793,2.222-8.228c1.481-2.435,3.52-4.341,6.116-5.72c2.596-1.379,5.522-2.068,8.778-2.068s6.182,0.689,8.778,2.068
		c2.596,1.379,4.635,3.285,6.116,5.72c1.481,2.435,2.222,5.178,2.222,8.228c0,3.052-0.741,5.794-2.222,8.229
		c-1.481,2.435-3.52,4.342-6.116,5.72c-2.596,1.379-5.522,2.068-8.778,2.068S78.13,106.06,75.535,104.681z M88.537,98.433
		c1.261-0.732,2.258-1.767,2.992-3.102c0.733-1.335,1.1-2.867,1.1-4.599c0-1.73-0.367-3.263-1.1-4.598
		c-0.733-1.334-1.731-2.368-2.992-3.102c-1.262-0.733-2.67-1.101-4.224-1.101c-1.555,0-2.963,0.367-4.224,1.101
		c-1.262,0.733-2.259,1.768-2.992,3.102c-0.734,1.335-1.1,2.867-1.1,4.598c0,1.731,0.366,3.264,1.1,4.599
		c0.732,1.335,1.73,2.369,2.992,3.102c1.261,0.733,2.669,1.101,4.224,1.101C85.867,99.533,87.275,99.166,88.537,98.433z"/>
	<path fill="#FFFFFF" d="M112.406,104.703c-2.567-1.364-4.583-3.264-6.05-5.698c-1.467-2.435-2.2-5.192-2.2-8.272
		s0.733-5.837,2.2-8.271c1.466-2.435,3.483-4.334,6.05-5.698s5.463-2.046,8.69-2.046c2.816,0,5.353,0.499,7.612,1.496
		s4.136,2.435,5.632,4.312l-5.544,5.017c-1.995-2.405-4.415-3.608-7.26-3.608c-1.672,0-3.161,0.367-4.466,1.101
		s-2.317,1.768-3.036,3.102c-0.719,1.335-1.078,2.867-1.078,4.598c0,1.731,0.359,3.264,1.078,4.599
		c0.718,1.335,1.73,2.369,3.036,3.102c1.305,0.733,2.794,1.101,4.466,1.101c2.845,0,5.265-1.203,7.26-3.608l5.544,5.016
		c-1.496,1.878-3.373,3.315-5.632,4.313s-4.796,1.496-7.612,1.496C117.869,106.749,114.973,106.066,112.406,104.703z"/>
	<path fill="#FFFFFF" d="M162.808,82.241h-9.416v23.892h-8.58V82.241h-9.46v-6.908h27.456V82.241z"/>
	<path fill="#FFFFFF" d="M172.73,104.681c-2.597-1.378-4.636-3.285-6.116-5.72c-1.481-2.435-2.222-5.177-2.222-8.229
		c0-3.05,0.74-5.793,2.222-8.228c1.48-2.435,3.52-4.341,6.116-5.72c2.596-1.379,5.521-2.068,8.777-2.068
		c3.257,0,6.183,0.689,8.778,2.068s4.635,3.285,6.116,5.72c1.48,2.435,2.222,5.178,2.222,8.228c0,3.052-0.741,5.794-2.222,8.229
		c-1.481,2.435-3.521,4.342-6.116,5.72c-2.596,1.379-5.521,2.068-8.778,2.068C178.252,106.749,175.326,106.06,172.73,104.681z
		 M185.732,98.433c1.261-0.732,2.258-1.767,2.992-3.102c0.732-1.335,1.1-2.867,1.1-4.599c0-1.73-0.367-3.263-1.1-4.598
		c-0.734-1.334-1.731-2.368-2.992-3.102c-1.262-0.733-2.67-1.101-4.225-1.101s-2.963,0.367-4.224,1.101
		c-1.262,0.733-2.259,1.768-2.992,3.102c-0.733,1.335-1.1,2.867-1.1,4.598c0,1.731,0.366,3.264,1.1,4.599s1.73,2.369,2.992,3.102
		c1.261,0.733,2.669,1.101,4.224,1.101S184.471,99.166,185.732,98.433z"/>
</g>
<g>
	<path fill="#FFFFFF" d="M14.001,144.169h-3.96v11.792H1.373v-30.8h8.668v11.968h4.18l7.348-11.968h9.152l-9.636,14.872
		l9.724,15.928h-9.812L14.001,144.169z"/>
	<path fill="#FFFFFF" d="M39.808,154.509c-2.596-1.378-4.635-3.285-6.116-5.72c-1.481-2.435-2.222-5.177-2.222-8.229
		c0-3.05,0.741-5.793,2.222-8.228c1.481-2.435,3.52-4.341,6.116-5.72c2.596-1.379,5.522-2.068,8.778-2.068s6.182,0.689,8.778,2.068
		c2.596,1.379,4.635,3.285,6.116,5.72c1.481,2.435,2.222,5.178,2.222,8.228c0,3.052-0.741,5.794-2.222,8.229
		c-1.481,2.435-3.52,4.342-6.116,5.72c-2.596,1.379-5.522,2.068-8.778,2.068S42.403,155.888,39.808,154.509z M52.81,148.261
		c1.261-0.732,2.258-1.767,2.992-3.102c0.733-1.335,1.1-2.867,1.1-4.599c0-1.73-0.367-3.263-1.1-4.598
		c-0.733-1.334-1.731-2.368-2.992-3.102c-1.262-0.733-2.67-1.101-4.224-1.101c-1.555,0-2.963,0.367-4.224,1.101
		c-1.262,0.733-2.259,1.768-2.992,3.102c-0.734,1.335-1.1,2.867-1.1,4.598c0,1.731,0.366,3.264,1.1,4.599
		c0.732,1.335,1.73,2.369,2.992,3.102c1.261,0.733,2.669,1.101,4.224,1.101C50.14,149.361,51.548,148.994,52.81,148.261z"/>
	<path fill="#FFFFFF" d="M76.679,154.531c-2.567-1.364-4.583-3.264-6.05-5.698c-1.467-2.435-2.2-5.192-2.2-8.272
		s0.733-5.837,2.2-8.271c1.466-2.435,3.483-4.334,6.05-5.698s5.463-2.046,8.69-2.046c2.816,0,5.353,0.499,7.612,1.496
		c2.258,0.997,4.136,2.435,5.632,4.312l-5.544,5.017c-1.995-2.405-4.415-3.608-7.26-3.608c-1.672,0-3.161,0.367-4.466,1.101
		s-2.317,1.768-3.036,3.102c-0.719,1.335-1.078,2.867-1.078,4.598c0,1.731,0.359,3.264,1.078,4.599
		c0.718,1.335,1.73,2.369,3.036,3.102c1.305,0.733,2.794,1.101,4.466,1.101c2.845,0,5.265-1.203,7.26-3.608l5.544,5.016
		c-1.496,1.878-3.374,3.315-5.632,4.313c-2.259,0.997-4.796,1.496-7.612,1.496C82.142,156.577,79.246,155.895,76.679,154.531z"/>
	<path fill="#FFFFFF" d="M130.293,155.961l-0.045-16.324l-7.919,13.288h-3.872l-7.92-12.936v15.972h-8.008v-30.8h7.172
		l10.824,17.775l10.561-17.775h7.172l0.088,30.8H130.293z"/>
	<path fill="#FFFFFF" d="M151.259,154.509c-2.597-1.378-4.636-3.285-6.116-5.72c-1.481-2.435-2.222-5.177-2.222-8.229
		c0-3.05,0.74-5.793,2.222-8.228c1.48-2.435,3.52-4.341,6.116-5.72c2.596-1.379,5.521-2.068,8.777-2.068
		c3.257,0,6.183,0.689,8.778,2.068s4.635,3.285,6.116,5.72c1.48,2.435,2.222,5.178,2.222,8.228c0,3.052-0.741,5.794-2.222,8.229
		c-1.481,2.435-3.521,4.342-6.116,5.72c-2.596,1.379-5.521,2.068-8.778,2.068C156.78,156.577,153.854,155.888,151.259,154.509z
		 M164.261,148.261c1.261-0.732,2.258-1.767,2.992-3.102c0.732-1.335,1.1-2.867,1.1-4.599c0-1.73-0.367-3.263-1.1-4.598
		c-0.734-1.334-1.731-2.368-2.992-3.102c-1.262-0.733-2.67-1.101-4.225-1.101s-2.963,0.367-4.224,1.101
		c-1.262,0.733-2.259,1.768-2.992,3.102c-0.733,1.335-1.1,2.867-1.1,4.598c0,1.731,0.366,3.264,1.1,4.599s1.73,2.369,2.992,3.102
		c1.261,0.733,2.669,1.101,4.224,1.101S162.999,148.994,164.261,148.261z"/>
	<path fill="#FFFFFF" d="M188.13,154.531c-2.567-1.364-4.584-3.264-6.05-5.698c-1.468-2.435-2.2-5.192-2.2-8.272
		s0.732-5.837,2.2-8.271c1.466-2.435,3.482-4.334,6.05-5.698c2.566-1.364,5.463-2.046,8.689-2.046c2.816,0,5.354,0.499,7.612,1.496
		s4.136,2.435,5.632,4.312l-5.544,5.017c-1.995-2.405-4.415-3.608-7.26-3.608c-1.672,0-3.161,0.367-4.466,1.101
		c-1.306,0.733-2.318,1.768-3.036,3.102c-0.72,1.335-1.078,2.867-1.078,4.598c0,1.731,0.358,3.264,1.078,4.599
		c0.718,1.335,1.73,2.369,3.036,3.102c1.305,0.733,2.794,1.101,4.466,1.101c2.845,0,5.265-1.203,7.26-3.608l5.544,5.016
		c-1.496,1.878-3.373,3.315-5.632,4.313s-4.796,1.496-7.612,1.496C193.593,156.577,190.696,155.895,188.13,154.531z"/>
	<path fill="#FFFFFF" d="M213.715,155.015c-0.939-0.895-1.408-1.986-1.408-3.277c0-1.32,0.469-2.405,1.408-3.257
		c0.938-0.85,2.141-1.275,3.607-1.275s2.662,0.426,3.587,1.275c0.924,0.852,1.386,1.937,1.386,3.257c0,1.291-0.47,2.383-1.408,3.277
		c-0.939,0.896-2.127,1.343-3.564,1.343C215.855,156.357,214.653,155.91,213.715,155.015z M212.351,125.161h9.944l-1.672,19.58
		h-6.645L212.351,125.161z"/>
</g>
</svg>
