<?xml version="1.0" encoding="UTF-8"?>
<!DOCTYPE svg PUBLIC "-//W3C//DTD SVG 1.1//EN" "http://www.w3.org/Graphics/SVG/1.1/DTD/svg11.dtd">
<!-- Creator: CorelDRAW X8 -->
<svg xmlns="http://www.w3.org/2000/svg" xml:space="preserve" width="38.8056mm" height="35.2778mm" version="1.1" style="shape-rendering:geometricPrecision; text-rendering:geometricPrecision; image-rendering:optimizeQuality; fill-rule:evenodd; clip-rule:evenodd"
viewBox="0 0 3881 3528"
 xmlns:xlink="http://www.w3.org/1999/xlink">
 <defs>
  <style type="text/css">
   <![CDATA[
    .str0 {stroke:white;stroke-width:70.56;stroke-linecap:round;stroke-linejoin:round}
    .fil0 {fill:none}
   ]]>
  </style>
 </defs>
 <g id="Слой_x0020_1">
  <metadata id="CorelCorpID_0Corel-Layer"/>
  <rect class="fil0" width="3881" height="3528"/>
  <line class="fil0 str0" x1="1854" y1="1136" x2="792" y2= "3493" />
  <line class="fil0 str0" x1="2030" y1="1147" x2="3088" y2= "3482" />
  <polygon class="fil0 str0" points="2083,1041 1801,1041 1801,900 2083,900 "/>
  <path class="fil0 str0" d="M811 635l2258 0c0,0 -439,35 -563,88 -123,53 -423,177 -423,177l-282 0c0,0 -401,-140 -531,-194 -130,-55 -375,-71 -459,-71z"/>
  <path class="fil0 str0" d="M1483 335c153,35 302,106 459,106 157,0 306,-71 459,-106 -36,-59 -58,-128 -106,-176 -49,-49 -85,-88 -177,-106 -91,-18 -261,-18 -352,0 -92,18 -128,57 -177,106 -48,48 -70,117 -106,176z"/>
  <path class="fil0 str0" d="M1818 159c-70,88 -88,123 -88,123"/>
  <path class="fil0 str0" d="M1483 335c-121,35 -223,41 -335,88 -112,47 -220,149 -337,212"/>
  <path class="fil0 str0" d="M2401 335c126,34 245,58 352,106 107,48 225,131 316,194"/>
  <line class="fil0 str0" x1="1411" y1="741" x2="2434" y2= "741" />
  <path class="fil0 str0" d="M1766 2706c0,0 0,53 -18,88 -18,35 -88,106 -88,106"/>
  <path class="fil0 str0" d="M1871 2741c0,0 18,88 0,123 -17,36 -70,89 -70,89"/>
  <path class="fil0 str0" d="M2114 2883c0,0 4,-1 -13,34 -18,36 -88,88 -88,88"/>
  <path class="fil0 str0" d="M2291 2898c0,0 -14,37 -32,90 -17,53 -70,106 -70,106"/>
  <path class="fil0 str0" d="M1766 2706c35,11 70,23 105,35 47,12 100,11 142,35 41,25 67,71 100,107 55,5 123,9 178,15 55,5 39,-122 57,-139 17,-18 0,-106 0,-106 0,0 17,-89 17,-124 0,-35 -211,-88 -211,-88 0,0 -141,-18 -177,-53 -35,-35 -123,-141 -123,-141l-53 -88c0,0 -194,141 -194,141 0,0 123,159 141,176 18,18 18,230 18,230z"/>
  <path class="fil0 str0" d="M1716 2218c-55,-136 -35,-91 -35,-91"/>
  <path class="fil0 str0" d="M1801 2176c0,-70 -19,-77 -19,-77"/>
  <path class="fil0 str0" d="M1748 2476c0,0 194,53 194,106 0,53 -71,124 -71,124"/>
  <path class="fil0 str0" d="M2015 2410c0,0 -73,49 -38,84 36,35 124,53 124,53l133 -83"/>
  <path class="fil0 str0" d="M2348 2653c0,0 -71,-36 -106,-36 -35,0 -141,0 -141,36 0,35 141,141 141,141l90 18"/>
 </g>
</svg>
