<?xml version="1.0" encoding="UTF-8"?>
<!DOCTYPE svg PUBLIC "-//W3C//DTD SVG 1.1//EN" "http://www.w3.org/Graphics/SVG/1.1/DTD/svg11.dtd">
<!-- Creator: CorelDRAW X8 -->
<svg xmlns="http://www.w3.org/2000/svg" xml:space="preserve" width="38.8056mm" height="35.2778mm" version="1.1" style="shape-rendering:geometricPrecision; text-rendering:geometricPrecision; image-rendering:optimizeQuality; fill-rule:evenodd; clip-rule:evenodd"
viewBox="0 0 3881 3528"
 xmlns:xlink="http://www.w3.org/1999/xlink">
 <defs>
  <style type="text/css">
   <![CDATA[
    .str8 {stroke:white;stroke-width:70.56;stroke-linecap:round;stroke-linejoin:round}
    .str9 {stroke:white;stroke-width:70.56;stroke-linecap:round;stroke-linejoin:round}
    .str1 {stroke:white;stroke-width:70.56;stroke-linecap:round;stroke-linejoin:round}
    .str0 {stroke:white;stroke-width:70.56;stroke-linecap:round;stroke-linejoin:round}
    .str11 {stroke:white;stroke-width:70.56;stroke-linecap:round;stroke-linejoin:round}
    .str10 {stroke:white;stroke-width:70.56;stroke-linecap:round;stroke-linejoin:round}
    .str2 {stroke:white;stroke-width:70.56;stroke-linecap:round;stroke-linejoin:round}
    .str7 {stroke:white;stroke-width:70.56;stroke-linecap:round;stroke-linejoin:round}
    .str4 {stroke:white;stroke-width:70.56;stroke-linecap:round;stroke-linejoin:round}
    .str6 {stroke:white;stroke-width:70.56;stroke-linecap:round;stroke-linejoin:round}
    .str3 {stroke:white;stroke-width:70.56;stroke-linecap:round;stroke-linejoin:round}
    .str5 {stroke:white;stroke-width:70.56;stroke-linecap:round;stroke-linejoin:round}
    .fil0 {fill:none}
    .fil1 {fill:white;fill-rule:nonzero}
   ]]>
  </style>
 </defs>
 <g id="Слой_x0020_1">
  <metadata id="CorelCorpID_0Corel-Layer"/>
  <g id="_1042991792">
   <rect class="fil0" width="3881" height="3528"/>
   <g>
    <path class="fil0 str0" d="M2081 2813c12,24 24,47 36,71 11,18 23,35 35,53 35,-6 75,-37 106,-18 31,20 42,69 35,106 -7,37 -47,59 -70,88"/>
    <path class="fil0 str1" d="M2293 3025c41,-1 67,-7 106,18 39,25 70,70 79,131"/>
    <path class="fil0 str2" d="M2399 3307c18,-53 31,-117 79,-133 47,-16 90,35 133,63 40,-72 77,-172 141,-212 63,-40 138,-38 194,0 56,39 65,126 88,194"/>
    <path class="fil0 str3" d="M2859 2996c42,-26 97,-51 140,-77 -6,-53 -49,-106 -18,-159 31,-52 99,-109 176,-105 78,3 201,48 230,123 29,75 -71,129 -106,194"/>
    <path class="fil0 str4" d="M3353 2731c59,-20 96,-84 157,-76 68,8 144,45 177,105 30,58 -12,130 -18,195 -6,64 70,70 106,105 35,36 24,135 -18,177 -53,53 -142,26 -142,87l0 106"/>
    <path class="fil0 str5" d="M3669 2955c-41,-6 -84,-30 -124,-18 -48,14 -82,59 -123,88"/>
    <line class="fil0 str6" x1="3615" y1="3430" x2="229" y2= "3431" />
    <path class="fil0 str7" d="M3510 3237c-35,-53 -94,-88 -159,-88 -64,0 -105,35 -141,88"/>
    <g>
     <path class="fil1" d="M1746 3317c-13,23 -39,30 -58,14 -20,-15 -25,-46 -12,-69l70 55zm155 -203l0 101 0 0 -6 0 -6 0 -5 1 -6 0 -6 1 -5 2 -6 1 -5 2 -6 2 -5 2 -6 2 -5 3 -5 2 -5 3 -5 3 -5 3 -5 4 -5 3 -5 4 -5 4 -4 4 -5 5 -4 4 -5 5 -4 5 -4 5 -4 5 -4 5 -3 5 -4 6 -4 6 -3 5 -70 -55 5 -8 4 -8 6 -8 5 -8 5 -7 6 -7 6 -7 6 -7 6 -7 6 -6 7 -6 6 -6 7 -6 7 -5 7 -6 7 -5 7 -4 8 -5 7 -4 8 -4 7 -4 8 -3 8 -3 8 -3 9 -2 8 -2 8 -2 9 -2 8 -1 9 -1 8 0 9 -1 0 0zm204 148l-70 55 -4 -6 -4 -6 -3 -6 -4 -6 -4 -5 -3 -6 -4 -5 -4 -5 -3 -5 -4 -4 -4 -4 -4 -4 -4 -4 -3 -4 -4 -3 -4 -4 -4 -3 -4 -3 -4 -2 -4 -3 -4 -2 -5 -2 -4 -2 -4 -2 -5 -1 -4 -2 -5 -1 -5 -1 -5 0 -6 -1 -5 0 -6 0 0 -101 9 1 8 0 8 1 9 1 8 2 8 2 8 2 7 3 8 3 7 3 8 3 7 4 7 4 6 5 7 5 6 4 6 6 7 5 5 6 6 6 6 6 5 6 6 6 5 7 5 6 5 7 4 7 5 7 5 7 4 8 5 7 4 8zm0 0c13,23 8,54 -12,69 -19,16 -45,9 -58,-14l70 -55z"/>
    </g>
    <path class="fil0 str8" d="M1764 2813c-12,24 -24,47 -35,71 -12,18 -24,35 -36,53 -35,-6 -75,-37 -105,-18 -31,20 -42,69 -36,106 7,37 47,59 71,88"/>
    <path class="fil0 str8" d="M1552 3025c-41,-1 -67,-7 -106,18 -38,25 -70,70 -78,131"/>
    <path class="fil0 str8" d="M1446 3307c-17,-53 -31,-117 -78,-133 -48,-16 -91,35 -133,63 -41,-72 -78,-172 -141,-212 -64,-40 -138,-38 -194,0 -56,39 -66,126 -89,194"/>
    <path class="fil0 str8" d="M986 2996c-42,-26 -97,-51 -139,-77 6,-53 49,-106 17,-159 -31,-52 -35,-141 -176,-105 -141,35 -95,73 -88,158 7,86 -210,64 -36,159"/>
    <path class="fil0 str8" d="M600 2813c-59,-20 -203,-166 -265,-158 -68,8 -144,45 -176,105 -31,58 12,130 17,195 6,64 -35,105 -70,141 -35,35 -24,82 17,123 53,53 107,44 107,105l-1 107"/>
    <path class="fil0 str8" d="M176 2955c42,-6 84,-30 124,-18 48,14 82,59 123,88"/>
    <path class="fil0 str8" d="M335 3237c35,-53 94,-88 159,-88 65,0 106,35 141,88"/>
    <path class="fil0 str9" d="M719 2648c4,-64 3,-136 -66,-170 -70,-34 -206,-38 -283,0 -76,39 -123,124 -117,200"/>
    <path class="fil0 str10" d="M2981 2760c-35,-70 -111,-85 -176,-70 -66,15 -135,58 -159,123 -24,65 -18,159 35,212"/>
    <polygon class="fil0 str8" points="1940,97 1782,432 2099,432 "/>
    <line class="fil0 str8" x1="1782" y1="432" x2="1782" y2= "2443" />
    <line class="fil0 str8" x1="2099" y1="432" x2="2099" y2= "2443" />
    <line class="fil0 str8" x1="1782" y1="2443" x2="2099" y2= "2443" />
    <polyline class="fil0 str8" points="1782,2410 1676,2408 1676,1843 1782,1706 "/>
    <polyline class="fil0 str8" points="2099,1703 2205,1843 2205,2408 2093,2409 "/>
    <path class="fil0 str8" d="M1799 2514c12,47 53,79 35,167 -17,88 -31,80 -70,132"/>
    <path class="fil0 str11" d="M2073 2514c-12,47 -27,127 -27,167 0,40 18,88 35,132"/>
   </g>
  </g>
 </g>
</svg>
